<svg width="77" height="77" viewBox="0 0 77 77" fill="none" xmlns="http://www.w3.org/2000/svg">
<path d="M38.2108 0.000366211C30.6534 0.000366211 23.2658 2.24151 16.982 6.44039C10.6983 10.6393 5.80073 16.6073 2.90864 23.5898C0.0165561 30.5723 -0.740145 38.2556 0.734227 45.6681C2.2086 53.0807 5.84783 59.8896 11.1917 65.2337C16.5356 70.5779 23.3441 74.2173 30.7563 75.6918C38.1684 77.1662 45.8514 76.4095 52.8335 73.5172C59.8156 70.625 65.7833 65.7272 69.982 59.4431C74.1806 53.159 76.4216 45.771 76.4216 38.2132C76.4113 28.0817 72.3823 18.3681 65.2186 11.204C58.0549 4.03994 48.3418 0.0106538 38.2108 0.000366211V0.000366211ZM51.1636 52.462C50.8789 52.9553 50.4691 53.3647 49.9756 53.649C49.4821 53.9332 48.9224 54.0823 48.3529 54.0812C47.7507 54.0954 47.1558 53.9477 46.6302 53.6538L36.5399 47.8247C36.0581 47.5315 35.6605 47.1184 35.3858 46.6258C35.1111 46.1332 34.9688 45.5778 34.9726 45.0138V25.5835C34.9726 24.7247 35.3138 23.901 35.9211 23.2936C36.5284 22.6863 37.352 22.3452 38.2108 22.3452C39.0697 22.3452 39.8933 22.6863 40.5006 23.2936C41.1079 23.901 41.449 24.7247 41.449 25.5835V43.1485L49.9202 48.0319C50.6641 48.4628 51.2072 49.1707 51.4305 50.001C51.6538 50.8312 51.5392 51.7161 51.1118 52.462H51.1636Z" fill="#032FF2"/>
</svg>
