<svg width="500" height="500" viewBox="0 0 500 500" fill="none" xmlns="http://www.w3.org/2000/svg">
<path d="M21.73 244.86C21.73 244.86 15.46 288.42 41.52 337.02C64.22 379.36 105.3 408.87 154.12 421.37C186.35 429.62 219.56 429.23 252.25 427.19C294.3 424.57 341.06 427.02 379.88 411.18C440.32 386.51 477.25 321.93 480.05 261.98C481.86 223.25 466.97 178.77 427.36 158.35C412.69 150.79 396.41 145.18 383.56 134.84C368.17 122.46 361.45 104.49 349.96 89.49C335.76 70.96 315.43 60.41 293.36 51.87C221.64 24.14 153.2 36.59 97.32 73.24C41.44 109.89 18.39 223.51 21.73 244.86Z" fill="#032FF2"/>
<path d="M233.64 123.3H80.34V299.03H233.64V123.3Z" fill="#BDBDBD"/>
<path d="M226.72 132.59H87.25V299.02H226.72V132.59Z" fill="#DBDBDB"/>
<path d="M226.72 161.16H87.25V170.46H226.72V161.16Z" fill="#BDBDBD"/>
<path d="M201.2 38.8H191.16V41.94H201.2V38.8Z" fill="#BDBDBD"/>
<path d="M201.2 43.1901H191.16V46.3301H201.2V43.1901Z" fill="#BDBDBD"/>
<path d="M201.2 47.5801H191.16V50.7201H201.2V47.5801Z" fill="#BDBDBD"/>
<path d="M201.2 51.9701H191.16V55.1101H201.2V51.9701Z" fill="#BDBDBD"/>
<path d="M201.2 56.37H191.16V59.51H201.2V56.37Z" fill="#BDBDBD"/>
<path d="M201.2 60.76H191.16V63.9H201.2V60.76Z" fill="#BDBDBD"/>
<path d="M201.2 65.15H191.16V68.29H201.2V65.15Z" fill="#BDBDBD"/>
<path d="M201.2 69.54H191.16V72.68H201.2V69.54Z" fill="#BDBDBD"/>
<path d="M201.2 73.9301H191.16V77.0701H201.2V73.9301Z" fill="#BDBDBD"/>
<path d="M201.2 78.3201H191.16V81.4601H201.2V78.3201Z" fill="#BDBDBD"/>
<path d="M201.2 82.7201H191.16V85.8601H201.2V82.7201Z" fill="#BDBDBD"/>
<path d="M201.2 87.1101H191.16V90.2501H201.2V87.1101Z" fill="#BDBDBD"/>
<path d="M201.2 91.5H191.16V94.64H201.2V91.5Z" fill="#BDBDBD"/>
<path d="M201.2 95.89H191.16V99.03H201.2V95.89Z" fill="#BDBDBD"/>
<path d="M201.2 100.28H191.16V103.42H201.2V100.28Z" fill="#BDBDBD"/>
<path d="M201.2 104.67H191.16V107.81H201.2V104.67Z" fill="#BDBDBD"/>
<path d="M201.2 109.07H191.16V112.21H201.2V109.07Z" fill="#BDBDBD"/>
<path d="M201.2 113.46H191.16V116.6H201.2V113.46Z" fill="#BDBDBD"/>
<path d="M201.2 117.85H191.16V120.99H201.2V117.85Z" fill="#BDBDBD"/>
<path d="M201.2 122.24H191.16V125.38H201.2V122.24Z" fill="#BDBDBD"/>
<path d="M332.42 123.3H254.09V299.03H332.42V123.3Z" fill="#BDBDBD"/>
<path d="M326.31 132.59H260.2V299.02H326.31V132.59Z" fill="#DBDBDB"/>
<path d="M326.31 161.16H260.2V170.46H326.31V161.16Z" fill="#BDBDBD"/>
<path d="M299.98 38.8H289.94V41.94H299.98V38.8Z" fill="#BDBDBD"/>
<path d="M299.98 43.1901H289.94V46.3301H299.98V43.1901Z" fill="#BDBDBD"/>
<path d="M299.98 47.5801H289.94V50.7201H299.98V47.5801Z" fill="#BDBDBD"/>
<path d="M299.98 51.9701H289.94V55.1101H299.98V51.9701Z" fill="#BDBDBD"/>
<path d="M299.98 56.37H289.94V59.51H299.98V56.37Z" fill="#BDBDBD"/>
<path d="M299.98 60.76H289.94V63.9H299.98V60.76Z" fill="#BDBDBD"/>
<path d="M299.98 65.15H289.94V68.29H299.98V65.15Z" fill="#BDBDBD"/>
<path d="M299.98 69.54H289.94V72.68H299.98V69.54Z" fill="#BDBDBD"/>
<path d="M299.98 73.9301H289.94V77.0701H299.98V73.9301Z" fill="#BDBDBD"/>
<path d="M299.98 78.3201H289.94V81.4601H299.98V78.3201Z" fill="#BDBDBD"/>
<path d="M299.98 82.7201H289.94V85.8601H299.98V82.7201Z" fill="#BDBDBD"/>
<path d="M299.98 87.1101H289.94V90.2501H299.98V87.1101Z" fill="#BDBDBD"/>
<path d="M299.98 91.5H289.94V94.64H299.98V91.5Z" fill="#BDBDBD"/>
<path d="M299.98 95.89H289.94V99.03H299.98V95.89Z" fill="#BDBDBD"/>
<path d="M299.98 100.28H289.94V103.42H299.98V100.28Z" fill="#BDBDBD"/>
<path d="M299.98 104.67H289.94V107.81H299.98V104.67Z" fill="#BDBDBD"/>
<path d="M299.98 109.07H289.94V112.21H299.98V109.07Z" fill="#BDBDBD"/>
<path d="M299.98 113.46H289.94V116.6H299.98V113.46Z" fill="#BDBDBD"/>
<path d="M299.98 117.85H289.94V120.99H299.98V117.85Z" fill="#BDBDBD"/>
<path d="M299.98 122.24H289.94V125.38H299.98V122.24Z" fill="#BDBDBD"/>
<path d="M267.61 274.8H47V313.44H267.61V274.8Z" fill="#BDBDBD"/>
<path d="M63.84 283.21C63.84 285.79 61.75 287.89 59.16 287.89C56.58 287.89 54.48 285.8 54.48 283.21C54.48 280.62 56.57 278.53 59.16 278.53C61.75 278.53 63.84 280.63 63.84 283.21Z" fill="#032FF2"/>
<path d="M84.88 278.53H72.61V287.88H84.88V278.53Z" fill="#032FF2"/>
<path d="M100.08 278.53H87.81V287.88H100.08V278.53Z" fill="#808080"/>
<path d="M267.61 186H47V274.91H267.61V186Z" fill="#DBDBDB"/>
<path d="M267.61 313.5H47V432.61H267.61V313.5Z" fill="#DBDBDB"/>
<path d="M213.08 189.36H101.52V271.56H213.08V189.36Z" fill="#BDBDBD"/>
<path d="M105.46 258.1C105.2 258.99 105.05 259.92 105.05 260.89C105.05 266.33 109.46 270.73 114.89 270.73C120.33 270.73 124.73 266.32 124.73 260.89C124.73 259.92 124.58 258.98 124.32 258.1H105.46Z" fill="#032FF2"/>
<path d="M118.72 250.56V237.52H111.08V250.56C106.88 252.11 103.88 256.14 103.88 260.89C103.88 266.98 108.81 271.91 114.9 271.91C120.99 271.91 125.92 266.98 125.92 260.89C125.92 256.15 122.92 252.12 118.72 250.56Z" stroke="white" stroke-miterlimit="10"/>
<path d="M150.03 258.1C149.77 258.99 149.62 259.92 149.62 260.89C149.62 266.33 154.03 270.73 159.46 270.73C164.89 270.73 169.3 266.32 169.3 260.89C169.3 259.92 169.15 258.98 168.89 258.1H150.03Z" fill="#032FF2"/>
<path d="M163.29 250.56V237.52H155.65V250.56C151.45 252.11 148.45 256.14 148.45 260.89C148.45 266.98 153.38 271.91 159.47 271.91C165.56 271.91 170.49 266.98 170.49 260.89C170.49 256.15 167.49 252.12 163.29 250.56Z" stroke="white" stroke-miterlimit="10"/>
<path d="M129.25 261.68C129.06 262.34 128.95 263.03 128.95 263.75C128.95 267.78 132.21 271.04 136.24 271.04C140.27 271.04 143.53 267.78 143.53 263.75C143.53 263.03 143.42 262.34 143.23 261.68H129.25Z" fill="#032FF2"/>
<path d="M139.07 256.1V246.44H133.41V256.1C130.3 257.25 128.08 260.24 128.08 263.75C128.08 268.26 131.73 271.91 136.24 271.91C140.75 271.91 144.4 268.26 144.4 263.75C144.4 260.23 142.18 257.25 139.07 256.1Z" stroke="white" stroke-miterlimit="10"/>
<path d="M119.54 201.29H114.57V207.66H119.54V201.29Z" fill="#858585"/>
<path d="M120.71 207.68H113.41C111.31 207.68 109.61 209.38 109.61 211.48V226.37H124.52V211.48C124.51 209.38 122.81 207.68 120.71 207.68Z" fill="#DBDBDB"/>
<path d="M150.95 201.29H145.98V207.66H150.95V201.29Z" fill="#858585"/>
<path d="M152.12 207.68H144.82C142.72 207.68 141.02 209.38 141.02 211.48V226.37H155.93V211.48C155.92 209.38 154.22 207.68 152.12 207.68Z" fill="#DBDBDB"/>
<path d="M178.17 201.29H173.2V207.66H178.17V201.29Z" fill="#858585"/>
<path d="M179.34 207.68H172.04C169.94 207.68 168.24 209.38 168.24 211.48V226.37H183.15V211.48C183.14 209.38 181.44 207.68 179.34 207.68Z" fill="#DBDBDB"/>
<path d="M197.84 201.29H192.87V207.66H197.84V201.29Z" fill="#858585"/>
<path d="M199.01 207.68H191.71C189.61 207.68 187.91 209.38 187.91 211.48V226.37H202.82V211.48C202.81 209.38 201.11 207.68 199.01 207.68Z" fill="#DBDBDB"/>
<path d="M213.08 226.26H101.52V234.65H213.08V226.26Z" fill="#DBDBDB"/>
<path d="M62.02 319.01L64.26 323.13H76.94L79.18 319.01H62.02Z" fill="#808080"/>
<path d="M120.42 319.01L122.65 323.13H135.34L137.58 319.01H120.42Z" fill="#808080"/>
<path d="M178.82 319.01L181.05 323.13H193.74L195.98 319.01H178.82Z" fill="#808080"/>
<path d="M237.22 319.01L239.45 323.13H252.14L254.38 319.01H237.22Z" fill="#808080"/>
<path d="M62.02 346.05L64.26 350.16H76.94L79.18 346.05H62.02Z" fill="#808080"/>
<path d="M120.42 346.05L122.65 350.16H135.34L137.58 346.05H120.42Z" fill="#808080"/>
<path d="M178.82 346.05L181.05 350.16H193.74L195.98 346.05H178.82Z" fill="#808080"/>
<path d="M237.22 346.05L239.45 350.16H252.14L254.38 346.05H237.22Z" fill="#808080"/>
<path d="M49.48 319.01H264.05" stroke="#808080" stroke-miterlimit="10"/>
<path d="M49.48 345.93H264.05" stroke="#808080" stroke-miterlimit="10"/>
<path d="M428.46 263.81L424.06 246.71V242.04H417.83V246.71L413.43 263.81C413.13 264.96 414 266.08 415.19 266.08H426.72C427.89 266.07 428.75 264.96 428.46 263.81Z" fill="#BDBDBD"/>
<path d="M424.85 255.17H417.02L414.71 264.14C414.66 264.34 414.74 264.48 414.8 264.55C414.86 264.62 414.97 264.74 415.18 264.74H426.71C426.91 264.74 427.03 264.62 427.09 264.55C427.14 264.48 427.23 264.34 427.18 264.14L424.85 255.17Z" fill="#808080"/>
<path d="M455.06 263.81L450.66 246.71V242.04H444.43V246.71L440.03 263.81C439.73 264.96 440.6 266.08 441.79 266.08H453.31C454.49 266.07 455.36 264.96 455.06 263.81Z" fill="#BDBDBD"/>
<path d="M451.46 255.17H443.63L441.32 264.14C441.27 264.34 441.35 264.48 441.41 264.55C441.46 264.62 441.58 264.74 441.79 264.74H453.32C453.52 264.74 453.64 264.62 453.7 264.55C453.76 264.48 453.84 264.34 453.79 264.14L451.46 255.17Z" fill="#808080"/>
<path d="M420.5 246V195" stroke="#BDBDBD" stroke-miterlimit="10"/>
<path d="M482.52 266H313.71V365.42H482.52V266Z" fill="#DBDBDB"/>
<path d="M477.86 269.95H318.38V365.42H477.86V269.95Z" fill="#BDBDBD"/>
<path d="M403.56 308.43L409.31 316.32H453.81L459.92 308.43H403.56Z" fill="#808080"/>
<path d="M449.54 312.93H415V316.32H449.54V312.93Z" fill="#5C5C5C"/>
<path d="M398.42 295.31H370.07V303.9H398.42V295.31Z" fill="#808080"/>
<path d="M415.19 283.69H411V293.95H415.19V283.69Z" fill="#263238" stroke="#263238" stroke-miterlimit="10"/>
<path d="M415.59 289.08H410.61C408.51 289.08 406.81 290.78 406.81 292.88V304.85H419.39V292.88C419.39 290.78 417.69 289.08 415.59 289.08Z" fill="#DBDBDB"/>
<path d="M432.47 283.69H428.28V293.95H432.47V283.69Z" fill="#263238" stroke="#263238" stroke-miterlimit="10"/>
<path d="M432.86 289.08H427.88C425.78 289.08 424.08 290.78 424.08 292.88V304.85H436.66V292.88C436.66 290.78 434.96 289.08 432.86 289.08Z" fill="#DBDBDB"/>
<path d="M449.74 283.69H445.55V293.95H449.74V283.69Z" fill="#263238" stroke="#263238" stroke-miterlimit="10"/>
<path d="M450.13 289.08H445.15C443.05 289.08 441.35 290.78 441.35 292.88V304.85H453.93V292.88C453.93 290.78 452.23 289.08 450.13 289.08Z" fill="#DBDBDB"/>
<path d="M398.42 287.92H370.07V295.31H398.42V287.92Z" fill="#A3A3A3"/>
<path d="M477.86 303.32H318.38V309.78H477.86V303.32Z" fill="#DBDBDB"/>
<path d="M376.92 333.11H365.88V366.76H376.92V333.11Z" fill="#263238" stroke="#263238" stroke-miterlimit="10" stroke-linecap="round" stroke-linejoin="round"/>
<path d="M397.1 316.69H345.69V359.22H397.1V316.69Z" fill="#545454"/>
<path d="M393.52 319.65H349.27V356.26H393.52V319.65Z" fill="white"/>
<path d="M358.76 328.4L372.44 338.26L363.22 343.35" stroke="#828282" stroke-miterlimit="10"/>
<path d="M379.12 329.04L372.44 338.26L375.62 350.35" stroke="#828282" stroke-miterlimit="10"/>
<path d="M372.44 338.26L386.76 346.54" stroke="#828282" stroke-miterlimit="10"/>
<path d="M360.03 327.6C360.03 329.45 358.53 330.94 356.69 330.94C354.84 330.94 353.35 329.44 353.35 327.6C353.35 325.76 354.85 324.26 356.69 324.26C358.54 324.26 360.03 325.76 360.03 327.6Z" fill="#032FF2"/>
<path d="M366.56 343.35C366.56 345.2 365.06 346.69 363.22 346.69C361.37 346.69 359.88 345.19 359.88 343.35C359.88 341.51 361.38 340.01 363.22 340.01C365.06 340.01 366.56 341.51 366.56 343.35Z" fill="#032FF2"/>
<path d="M382.46 329.04C382.46 330.89 380.96 332.38 379.12 332.38C377.28 332.38 375.78 330.88 375.78 329.04C375.78 327.2 377.28 325.7 379.12 325.7C380.97 325.7 382.46 327.19 382.46 329.04Z" fill="#032FF2"/>
<path d="M390.1 346.54C390.1 348.39 388.6 349.88 386.76 349.88C384.91 349.88 383.42 348.38 383.42 346.54C383.42 344.7 384.92 343.2 386.76 343.2C388.61 343.19 390.1 344.69 390.1 346.54Z" fill="#032FF2"/>
<path d="M375.62 353.69C377.465 353.69 378.96 352.195 378.96 350.35C378.96 348.505 377.465 347.01 375.62 347.01C373.775 347.01 372.28 348.505 372.28 350.35C372.28 352.195 373.775 353.69 375.62 353.69Z" fill="#032FF2"/>
<path d="M446.36 344.96H432.9V347.92H446.36V344.96Z" fill="#263238" stroke="#263238" stroke-miterlimit="10" stroke-linecap="round" stroke-linejoin="round"/>
<path d="M414.74 366.49V359.86C414.74 357.92 415.58 356.07 417.04 354.79L425.23 347.65H455.11L462.9 354.8C464.29 356.07 465.07 357.87 465.07 359.75V367.57L414.74 366.49Z" fill="#C4C4C4"/>
<path d="M454.3 356.13C454.3 358.88 447.85 361.11 439.9 361.11C431.95 361.11 425.5 358.88 425.5 356.13C425.5 353.38 431.95 351.15 439.9 351.15C447.86 351.15 454.3 353.38 454.3 356.13Z" fill="#DBDBDB"/>
<path d="M483.19 365.41H313.71V432.6H483.19V365.41Z" fill="#DBDBDB"/>
<path d="M313.66 400.41H482.43" stroke="#808080" stroke-miterlimit="10"/>
<path d="M483.19 365.41H430.48V432.6H483.19V365.41Z" fill="#BDBDBD"/>
<path d="M486.47 365.41H310.43V371.87H486.47V365.41Z" fill="#808080"/>
<path d="M396.57 371.93L399.23 376.84H414.35L417.02 371.93H396.57Z" fill="#808080"/>
<path d="M396.57 400.2L399.23 405.11H414.35L417.02 400.2H396.57Z" fill="#808080"/>
<path d="M339.77 371.93L342.43 376.84H357.55L360.23 371.93H339.77Z" fill="#808080"/>
<path d="M339.77 400.2L342.43 405.11H357.55L360.23 400.2H339.77Z" fill="#808080"/>
<path d="M417.15 212.5H464" stroke="#BDBDBD" stroke-miterlimit="10"/>
<path d="M413 212.5H417.15" stroke="#BDBDBD" stroke-width="3" stroke-miterlimit="10"/>
<path d="M447.5 213V244.5" stroke="#BDBDBD" stroke-miterlimit="10"/>
<path d="M86.44 307.27H78.19V316.6H86.44V307.27Z" fill="#263238" stroke="#263238" stroke-miterlimit="10"/>
<path d="M89.67 303.68H73.88V309.42H89.67V303.68Z" fill="#263238" stroke="#263238" stroke-miterlimit="10"/>
<path d="M99.72 313.73H64.19V408.48H99.72V313.73Z" fill="white" stroke="#263238" stroke-miterlimit="10"/>
<path d="M78.01 351.06C83.0634 351.06 87.16 346.963 87.16 341.91C87.16 336.857 83.0634 332.76 78.01 332.76C72.9566 332.76 68.86 336.857 68.86 341.91C68.86 346.963 72.9566 351.06 78.01 351.06Z" fill="#263238" stroke="#263238" stroke-miterlimit="10"/>
<path d="M152.63 432.61L136.33 412.15H89.31L73.14 432.61H152.63Z" fill="white" stroke="#263238" stroke-miterlimit="10"/>
<path d="M152.2 412.43H87.8C84.67 412.43 82.13 409.89 82.13 406.76V406.33H157.86V406.76C157.86 409.89 155.33 412.43 152.2 412.43Z" fill="white" stroke="#263238" stroke-miterlimit="10"/>
<path d="M127.302 281.477L113.035 290.775L114.897 293.632L129.164 284.333L127.302 281.477Z" fill="white" stroke="#263238" stroke-miterlimit="10"/>
<path d="M135.373 271.693L122.06 280.369L127.64 288.931L140.953 280.255L135.373 271.693Z" fill="#263238" stroke="#263238" stroke-miterlimit="10"/>
<path d="M83.57 258.82H80.34V269.23H83.57V258.82Z" fill="#263238" stroke="#263238" stroke-miterlimit="10"/>
<path d="M85.01 268.51H78.55V288.97H85.01V268.51Z" fill="white" stroke="#263238" stroke-miterlimit="10"/>
<path d="M89.31 286.81H74.24V298.65H89.31V286.81Z" fill="white" stroke="#263238" stroke-miterlimit="10"/>
<path d="M113.67 281.15L96.5 295.65L58.39 299.01L59.25 308.81L105.24 304.76L120.78 293.16L113.67 281.15Z" fill="white" stroke="#263238" stroke-miterlimit="10"/>
<path d="M395.18 167.54L393.47 185.52C393.47 185.52 383.54 184.84 380.63 179.01C377.72 173.19 379.02 165.58 379.02 165.58L380.29 158.64C380.29 158.64 385.43 155.9 390.73 159.15C396.04 162.4 395.18 167.54 395.18 167.54Z" fill="#B5B5B5" stroke="#263238" stroke-miterlimit="10"/>
<path d="M324.57 225.22L360.97 216.35L379.02 165.57C379.02 165.57 383.3 173.52 386.36 177.19C389.42 180.86 395.23 184.23 395.23 184.23C395.23 184.23 389.11 217.57 386.97 228.28C384.83 238.99 384.52 240.82 381.77 243.27C379.02 245.72 345.98 266.52 345.98 266.52C345.98 266.52 356.99 287.01 358.22 301.39C359.44 315.77 360.36 332.59 360.36 332.59C360.36 332.59 333.44 289.77 323.65 277.23C313.86 264.69 309.89 245.72 312.03 235.94C314.17 226.14 324.57 225.22 324.57 225.22Z" fill="white" stroke="#263238" stroke-miterlimit="10"/>
<path d="M337.51 234.98L345.98 266.52L352.19 229.17" stroke="#263238" stroke-miterlimit="10"/>
<path d="M361.98 217.24C361.98 217.24 371.46 220.6 372.99 231.62" stroke="#263238" stroke-miterlimit="10"/>
<path d="M368.71 217.24C368.71 217.24 380.33 219.69 380.95 231.92" stroke="#263238" stroke-miterlimit="10"/>
<path d="M325.58 237.12L340.87 268.93L337.51 274.74L345.16 280.86L347.3 292.79" stroke="#263238" stroke-miterlimit="10"/>
<path d="M270.9 197.78C270.9 197.78 252.85 203.59 247.04 214.91C241.23 226.23 255.3 246.72 257.44 254.37C259.58 262.02 256.52 264.77 253.77 262.63C251.02 260.49 247.96 264.77 251.02 269.67C254.08 274.56 270.9 270.89 276.41 268.14C281.92 265.39 280.69 247.03 277.63 235.11C274.57 223.18 270.9 209.72 272.74 203.91C274.57 198.09 270.9 197.78 270.9 197.78Z" fill="#263238" stroke="#263238" stroke-miterlimit="10"/>
<path d="M327.94 172.92C327.94 172.92 336.81 183.63 337.42 187.91C338.03 192.19 337.73 194.64 337.73 194.64C337.73 194.64 342.01 199.53 342.93 200.15C343.85 200.76 346.91 202.6 345.07 205.04C343.23 207.49 340.18 207.49 340.18 207.49C340.18 207.49 340.49 216.97 339.57 221.25C338.65 225.53 336.82 227.06 333.45 227.37C330.09 227.68 325.8 227.68 325.8 227.68L322.44 244.81L326.72 267.14L294.91 232.58C294.91 232.58 297.97 220.04 297.97 217.59C297.97 215.14 293.38 210.55 297.36 197.71C301.33 184.85 327.94 172.92 327.94 172.92Z" fill="#B5B5B5" stroke="#263238" stroke-miterlimit="10"/>
<path d="M297.04 205.65C297.04 205.65 302.55 207.49 304.08 203.51C305.61 199.53 303.16 194.64 310.81 190.36C318.46 186.08 331.92 183.02 334.67 175.98C337.42 168.94 334.36 161.6 330.08 160.69C325.8 159.77 320.6 162.22 312.34 162.53C304.08 162.84 279.87 162.71 272.22 174.33C264.57 185.95 271.96 206.88 274.1 211.47C276.24 216.06 276.24 227.99 285.11 228.6C293.98 229.21 300.1 222.48 300.71 217.59C301.33 212.68 297.04 205.65 297.04 205.65Z" fill="#263238" stroke="#263238" stroke-miterlimit="10"/>
<g opacity="0.5">
<path opacity="0.5" d="M294.9 201.98L338.95 186.99C338.95 186.99 346.9 191.88 341.4 198.31L318.77 205.65L295.22 205.04L294.9 201.98Z" fill="white"/>
</g>
<path d="M294.9 201.98L338.95 186.99C338.95 186.99 346.9 191.88 341.4 198.31L318.77 205.65L295.22 205.04L294.9 201.98Z" stroke="#263238" stroke-miterlimit="10"/>
<path d="M294.9 201.98L338.95 186.99" stroke="#263238" stroke-width="2" stroke-miterlimit="10" stroke-linecap="round"/>
<path d="M314.17 196.47L318.76 205.65" stroke="#263238" stroke-miterlimit="10"/>
<path d="M302.86 207.79C301.94 207.79 293.99 197.08 290.01 200.14C286.03 203.2 289.7 214.21 294.6 216.35C299.49 218.49 303.47 213.29 303.47 213.29" fill="#B5B5B5"/>
<path d="M302.86 207.79C301.94 207.79 293.99 197.08 290.01 200.14C286.03 203.2 289.7 214.21 294.6 216.35C299.49 218.49 303.47 213.29 303.47 213.29" stroke="#263238" stroke-miterlimit="10"/>
<path d="M332.53 195.55C332.53 197.07 331.98 198.3 331.31 198.3C330.63 198.3 330.09 197.07 330.09 195.55C330.09 194.03 330.64 192.8 331.31 192.8C331.98 192.8 332.53 194.03 332.53 195.55Z" fill="#263238"/>
<path d="M293.99 228.89C293.99 228.89 309.9 242.04 318.77 256.42C327.64 270.8 350.28 296.49 353.95 305.05C357.62 313.61 360.68 322.49 360.68 329.83C360.68 337.17 361.29 392.84 361.29 394.06C361.29 395.28 361.29 432.6 361.29 432.6H267.39C267.39 432.6 273.2 352.15 273.2 335.03C273.2 317.9 265.86 302.3 271.36 277.83C276.86 253.36 286.03 239.29 293.99 228.89Z" fill="white" stroke="#263238" stroke-miterlimit="10"/>
<path d="M287.87 237.76L321.82 284.56L330.39 281.81L329.77 292.21L351.18 303.53" stroke="#263238" stroke-miterlimit="10"/>
<path d="M352 392.5H302.6V400.4H348.04" stroke="#263238" stroke-miterlimit="10"/>
<path d="M404.64 202.52H404.31C403.12 202.52 402.16 201.56 402.16 200.37V186.96H406.78V200.37C406.79 201.56 405.83 202.52 404.64 202.52Z" fill="white" stroke="#263238" stroke-miterlimit="10"/>
<path d="M407.9 184.15H401.06V188.77H407.9V184.15Z" fill="white" stroke="#263238" stroke-miterlimit="10"/>
<path d="M427.89 159.49C427.89 159.49 430.29 163.26 429.94 165.48C429.6 167.71 426.34 177.47 425.32 177.64C424.29 177.81 424.12 176.61 424.46 173.19C424.8 169.77 425.32 167.54 425.32 166.51C425.32 165.48 426 157.44 427.89 159.49Z" fill="#032FF2" stroke="#263238" stroke-miterlimit="10" stroke-linecap="round" stroke-linejoin="round"/>
<path d="M381.83 154.87C381.83 154.87 377.89 161.72 380.8 165.66C383.71 169.6 390.05 169.94 390.05 169.94C390.05 169.94 391.08 177.65 392.62 178.84C394.16 180.04 397.93 185.35 398.44 187.23C398.95 189.11 402.55 186.72 402.55 185.18C402.55 183.64 399.98 177.47 399.3 175.76C398.62 174.05 400.16 169.42 400.67 167.88C401.18 166.34 401.7 165.65 401.7 165.65C401.7 165.65 406.67 170.44 407.18 173.18C407.69 175.92 406.32 186.02 407.69 187.22C409.06 188.42 412.66 188.08 413.34 186.02C414.02 183.97 415.22 171.98 415.22 169.92C415.22 167.87 411.97 160.84 411.97 160.84C411.97 160.84 417.28 166.15 417.45 168.03C417.62 169.91 416.08 181.9 416.94 182.24C417.8 182.58 419.17 183.1 420.36 182.07C421.56 181.04 422.59 178.3 422.59 178.3C422.59 178.3 426.01 170.25 427.38 166.49C428.75 162.72 429.95 158.44 426.87 156.9C423.79 155.36 421.39 153.99 412.66 150.56C403.93 147.14 391.6 144.57 387.15 147.82C382.68 151.1 381.83 154.87 381.83 154.87Z" fill="#032FF2" stroke="#263238" stroke-miterlimit="10" stroke-linecap="round" stroke-linejoin="round"/>
<path d="M390.05 169.94L389.36 157.61" stroke="#263238" stroke-miterlimit="10"/>
<path d="M389.88 165.48C389.88 165.48 383.03 165.31 382.35 156.58" stroke="#263238" stroke-miterlimit="10"/>
<path d="M424.46 173.19C424.46 173.19 426.69 166.68 424.8 163.6C422.92 160.52 415.72 155.72 415.72 155.72" stroke="#263238" stroke-miterlimit="10"/>
<path d="M376.38 275.24C376.98 274.84 387.64 263.58 387.84 262.77C388.04 261.97 388.24 251.11 389.45 248.7C390.66 246.29 394.68 239.25 394.88 237.04C395.08 234.83 395.08 227.39 394.88 224.77C394.68 222.16 397.29 221.96 399.1 224.37C400.91 226.78 401.31 230.2 401.31 233.22C401.31 236.24 401.51 238.65 401.91 239.25C402.31 239.85 405.73 242.87 407.34 243.27C408.95 243.67 418.6 238.85 421.41 237.84C424.22 236.83 426.03 228.59 426.44 227.79C426.84 226.99 427.04 220.95 427.24 219.55C427.44 218.14 430.06 216.33 431.06 219.75C432.07 223.17 431.66 231.21 431.46 233.42C431.26 235.63 431.46 240.26 430.45 241.46C429.44 242.67 423.01 248.3 422.41 249.1C421.81 249.9 419.39 257.75 418.59 258.95C417.79 260.16 410.95 262.77 406.32 265.59C401.7 268.4 396.87 272.83 396.87 272.83C396.87 272.83 398.28 274.44 396.87 275.85C395.46 277.26 392.85 278.26 392.85 278.26L388.63 288.31L376.38 275.24Z" fill="#B5B5B5" stroke="#263238" stroke-miterlimit="10"/>
<path d="M418.6 258.95C419.4 257.74 421.82 249.9 422.42 249.1C423.02 248.3 429.46 242.67 430.46 241.46C431.47 240.25 431.26 235.63 431.47 233.42C431.67 231.21 432.07 223.17 431.07 219.75C430.06 216.33 427.45 218.14 427.25 219.55C427.05 220.96 426.85 226.99 426.45 227.79C426.05 228.59 424.24 236.84 421.42 237.84C418.6 238.85 408.95 243.67 407.35 243.27C405.74 242.87 402.32 239.85 401.92 239.25C401.52 238.65 401.32 236.23 401.32 233.22C401.32 230.2 400.92 226.79 399.11 224.37C397.3 221.96 394.69 222.16 394.89 224.77C395.09 227.38 395.09 234.82 394.89 237.04C394.69 239.25 390.67 246.29 389.46 248.7C388.25 251.11 388.05 261.97 387.85 262.77C387.75 263.19 384.83 266.41 381.97 269.48L392.7 278.68L392.88 278.26C392.88 278.26 395.49 277.25 396.9 275.85C398.31 274.44 396.9 272.83 396.9 272.83C396.9 272.83 401.73 268.41 406.35 265.59C410.96 262.77 417.8 260.16 418.6 258.95Z" fill="#032FF2" stroke="#263238" stroke-miterlimit="10" stroke-linecap="round" stroke-linejoin="round"/>
<path d="M422.42 249.1L415.59 254.12" stroke="#263238" stroke-miterlimit="10"/>
<path d="M286.95 260.71C286.95 260.71 297.35 258.87 303.47 263.77C309.59 268.66 311.73 277.84 312.03 278.76C312.34 279.68 341.09 305.98 341.09 305.98L377.18 272.64L394.92 290.07C394.92 290.07 372.28 318.82 360.66 329.83C349.04 340.84 340.47 346.04 338.33 346.96C336.19 347.88 334.05 346.96 331.6 345.43C329.15 343.9 278.38 292.82 278.38 292.82" fill="white"/>
<path d="M286.95 260.71C286.95 260.71 297.35 258.87 303.47 263.77C309.59 268.66 311.73 277.84 312.03 278.76C312.34 279.68 341.09 305.98 341.09 305.98L377.18 272.64L394.92 290.07C394.92 290.07 372.28 318.82 360.66 329.83C349.04 340.84 340.47 346.04 338.33 346.96C336.19 347.88 334.05 346.96 331.6 345.43C329.15 343.9 278.38 292.82 278.38 292.82" stroke="#263238" stroke-miterlimit="10"/>
<path d="M286.34 282.12C286.34 282.12 295.82 273.25 300.72 272.94C305.61 272.63 308.98 276.61 308.98 276.61" stroke="#263238" stroke-miterlimit="10"/>
<path d="M281.44 274.78C281.44 274.78 293.06 267.13 299.79 270.8" stroke="#263238" stroke-miterlimit="10"/>
<path d="M341.09 305.98C341.09 305.98 333.14 322.8 334.36 330.76" stroke="#263238" stroke-miterlimit="10"/>
<path d="M339.56 306.89C339.56 306.89 331.3 312.09 328.24 321.88" stroke="#263238" stroke-miterlimit="10"/>
<path d="M415.7 224.04H415.37C414.18 224.04 413.22 223.08 413.22 221.89V208.48H417.84V221.89C417.85 223.07 416.89 224.04 415.7 224.04Z" fill="white" stroke="#263238" stroke-miterlimit="10"/>
<path d="M418.96 205.67H412.12V210.29H418.96V205.67Z" fill="white" stroke="#263238" stroke-miterlimit="10"/>
<path d="M424.35 224.04H424.02C422.83 224.04 421.87 223.08 421.87 221.89V208.48H426.49V221.89C426.49 223.07 425.53 224.04 424.35 224.04Z" fill="white" stroke="#263238" stroke-miterlimit="10"/>
<path d="M427.6 205.67H420.76V210.29H427.6V205.67Z" fill="white" stroke="#263238" stroke-miterlimit="10"/>
<path d="M429.46 215.52H400.1V230.6H429.46V215.52Z" fill="#263238" stroke="#263238" stroke-miterlimit="10"/>
<path d="M132.55 250.53C132.55 250.53 132.2 262.12 134.66 266.69C137.12 271.26 141.34 273.01 141.69 276.88C142.04 280.74 140.28 286.01 142.74 287.42C145.2 288.83 162.77 306.39 168.39 306.04C174.01 305.69 179.98 297.61 179.98 297.61L192.63 305.69L209.49 270.91L198.25 260.72C198.25 260.72 193.68 233.32 187.36 225.59C181.04 217.86 157.5 215.75 145.55 221.37C133.6 226.99 129.39 239.64 126.58 242.1C123.77 244.56 117.8 247.02 120.96 251.59C124.12 256.15 132.55 250.53 132.55 250.53Z" fill="white" stroke="#263238" stroke-miterlimit="10"/>
<path d="M195.09 267.74C196.43 266.7 197.77 264.02 198.87 261.27L198.25 260.71C198.25 260.71 193.68 233.31 187.36 225.58C181.04 217.85 157.5 215.74 145.55 221.36C133.6 226.98 129.39 239.63 126.58 242.09C123.77 244.55 117.8 247.01 120.96 251.58C123.91 255.84 131.44 251.24 132.44 250.6L132.56 250.52C132.56 250.52 138.18 248.76 142.05 246.66C145.91 244.55 150.13 241.04 150.13 241.04C150.13 241.04 142.75 253.34 145.56 257.2C148.37 261.06 156.8 259.31 156.8 259.31C156.8 259.31 162.42 266.69 165.93 264.93C169.44 263.17 164.52 256.5 169.79 254.04C175.06 251.58 179.28 262.12 179.28 263.88C179.28 265.64 191.93 270.2 195.09 267.74Z" fill="#263238" stroke="#263238" stroke-miterlimit="10"/>
<path d="M198.92 261.33L174.35 289.88C174.35 289.88 168.38 289.18 164.16 286.02C159.94 282.86 156.43 275.13 156.43 275.13C156.43 275.13 174.35 255.46 183.48 249.83C191.45 244.92 194.07 244.03 194.61 243.89C194.3 242.7 193.97 241.5 193.63 240.31C191.72 241.15 186.12 243.96 177.16 251.24C167.37 259.2 146.65 279.94 141.47 285.16C141.61 286.18 141.97 286.99 142.73 287.43C145.19 288.84 162.76 306.4 168.38 306.05C169.49 305.98 170.6 305.61 171.69 305.06C172.76 300.69 174.61 294.04 176.11 291.29C177.93 287.95 195.97 268.4 200.87 263.11L198.92 261.33Z" fill="#032FF2" stroke="#263238" stroke-miterlimit="10" stroke-linecap="round" stroke-linejoin="round"/>
<path d="M167.68 265.99C167.68 265.99 164.52 254.75 168.73 252.64C172.95 250.53 178.22 255.1 178.92 260.02C179.62 264.94 177.16 270.91 177.16 270.91C177.16 270.91 179.62 275.83 178.57 281.1" fill="white"/>
<path d="M167.68 265.99C167.68 265.99 164.52 254.75 168.73 252.64C172.95 250.53 178.22 255.1 178.92 260.02C179.62 264.94 177.16 270.91 177.16 270.91C177.16 270.91 179.62 275.83 178.57 281.1" stroke="#263238" stroke-miterlimit="10"/>
<path d="M149.61 274.69C150.31 276.05 150.3 277.44 149.6 277.8C148.9 278.16 147.76 277.36 147.06 276C146.36 274.64 146.37 273.25 147.07 272.89C147.77 272.53 148.91 273.33 149.61 274.69Z" fill="#263238"/>
<path d="M140.53 268.16C140.53 268.16 140.94 263.25 146.87 264.27" stroke="#263238" stroke-miterlimit="10"/>
<path d="M208.83 266.79L182.27 309.14L192.68 316.68L217.08 270.74L208.83 266.79Z" fill="white" stroke="#263238" stroke-miterlimit="10"/>
<path d="M215.29 271.46C215.29 271.46 194.83 306.99 190.88 314.89C186.93 322.79 175.45 342.17 174.73 353.65C174.01 365.14 170.42 432.61 170.42 432.61H252.97C252.97 432.61 259.07 381.29 258.71 361.55C258.35 341.81 253.33 312.74 238.25 293C223.18 273.25 215.29 271.46 215.29 271.46Z" fill="white" stroke="#263238" stroke-miterlimit="10"/>
<path d="M222.47 276.84C222.47 276.84 210.27 299.81 202.01 313.09C193.76 326.37 182.99 340.73 180.12 348.98C177.25 357.23 177.25 360.82 177.25 360.82" stroke="#263238" stroke-miterlimit="10"/>
<path d="M116.59 367.29L106.9 360.11C106.9 360.11 102.23 348.27 99.36 345.04C96.49 341.81 92.54 342.53 90.03 339.66C87.52 336.79 84.65 330.33 83.21 329.61C81.77 328.89 78.54 330.69 78.54 333.56C78.54 336.43 81.77 341.1 81.77 342.17C81.77 343.25 81.77 343.25 81.77 343.25C81.77 343.25 69.57 339.66 68.13 340.74C66.69 341.82 65.26 345.41 66.34 347.2C67.42 348.99 69.57 349.71 69.57 351.15C69.57 352.59 67.06 357.25 68.49 359.05C69.93 360.84 72.08 361.92 72.08 361.92C72.08 361.92 72.08 368.74 74.23 371.61C76.38 374.48 92.89 376.63 97.92 377.35C102.95 378.07 117.66 385.25 117.66 385.25L116.59 367.29Z" fill="#032FF2" stroke="#263238" stroke-miterlimit="10" stroke-linecap="round" stroke-linejoin="round"/>
<path d="M211.7 305.56C211.7 305.56 196.27 313.1 190.52 332.84C184.78 352.58 181.19 373.04 181.19 373.04C181.19 373.04 177.6 372.32 177.6 374.48C177.6 376.63 177.24 377.71 177.24 377.71L114.79 365.87L113.35 395.3C113.35 395.3 194.46 410.37 198.77 410.37C203.08 410.37 207.74 408.93 209.18 405.35C210.62 401.76 233.94 349.36 233.94 349.36" fill="white"/>
<path d="M211.7 305.56C211.7 305.56 196.27 313.1 190.52 332.84C184.78 352.58 181.19 373.04 181.19 373.04C181.19 373.04 177.6 372.32 177.6 374.48C177.6 376.63 177.24 377.71 177.24 377.71L114.79 365.87L113.35 395.3C113.35 395.3 194.46 410.37 198.77 410.37C203.08 410.37 207.74 408.93 209.18 405.35C210.62 401.76 233.94 349.36 233.94 349.36" stroke="#263238" stroke-miterlimit="10"/>
<path d="M218.88 322.07C218.88 322.07 231.08 328.89 233.24 338.22" stroke="#263238" stroke-miterlimit="10"/>
<path d="M210.26 332.47C211.34 332.47 229.64 333.91 233.59 344.31" stroke="#263238" stroke-miterlimit="10"/>
<path d="M227.13 364.42C227.13 364.42 241.13 357.96 245.43 343.96" stroke="#263238" stroke-miterlimit="10"/>
<path d="M180.48 378.05C180.48 378.05 187.66 391.33 187.3 400.66" stroke="#263238" stroke-miterlimit="10"/>
<path d="M184.78 375.9C184.78 375.9 191.96 377.34 196.98 387.03" stroke="#263238" stroke-miterlimit="10"/>
<path d="M281.29 362.26H268.37C265.99 362.26 263.68 364.19 263.2 366.57L249.85 432.61H271.38L284.73 366.57C285.21 364.19 283.66 362.26 281.29 362.26Z" fill="#263238" stroke="#263238" stroke-miterlimit="10"/>
<path d="M8.29999 432.61H495.27" stroke="#263238" stroke-miterlimit="10"/>
<path d="M38.2599 430.37H37.6399C35.4099 430.37 33.6099 428.56 33.6099 426.34V385.7H42.2899V426.35C42.2899 428.57 40.4799 430.37 38.2599 430.37Z" fill="white" stroke="#263238" stroke-miterlimit="10" stroke-linecap="round" stroke-linejoin="round"/>
<path d="M33.6099 402.17V426.03C33.6099 428.43 35.5499 430.37 37.9499 430.37C40.3499 430.37 42.2899 428.43 42.2899 426.03V402.17H33.6099Z" fill="#032FF2" stroke="#263238" stroke-miterlimit="10" stroke-linecap="round" stroke-linejoin="round"/>
<path d="M43.8199 384.42H32.0699V392.59H43.8199V384.42Z" fill="white" stroke="#263238" stroke-miterlimit="10" stroke-linecap="round" stroke-linejoin="round"/>
<path d="M54.84 430.37C52.44 430.37 50.5 428.43 50.5 426.03V385.7H59.18V426.04C59.18 428.43 57.23 430.37 54.84 430.37Z" fill="white" stroke="#263238" stroke-miterlimit="10" stroke-linecap="round" stroke-linejoin="round"/>
<path d="M50.49 402.17V426.03C50.49 428.43 52.43 430.37 54.83 430.37C57.23 430.37 59.17 428.43 59.17 426.03V402.17H50.49Z" fill="#032FF2" stroke="#263238" stroke-miterlimit="10" stroke-linecap="round" stroke-linejoin="round"/>
<path d="M60.71 384.42H48.96V392.59H60.71V384.42Z" fill="white" stroke="#263238" stroke-miterlimit="10" stroke-linecap="round" stroke-linejoin="round"/>
<path d="M71.72 430.37C69.32 430.37 67.38 428.43 67.38 426.03V385.7H76.06V426.04C76.07 428.43 74.12 430.37 71.72 430.37Z" fill="white" stroke="#263238" stroke-miterlimit="10" stroke-linecap="round" stroke-linejoin="round"/>
<path d="M67.38 402.17V426.03C67.38 428.43 69.32 430.37 71.72 430.37C74.12 430.37 76.06 428.43 76.06 426.03V402.17H67.38Z" fill="#032FF2" stroke="#263238" stroke-miterlimit="10" stroke-linecap="round" stroke-linejoin="round"/>
<path d="M77.6 384.42H65.85V392.59H77.6V384.42Z" fill="white" stroke="#263238" stroke-miterlimit="10" stroke-linecap="round" stroke-linejoin="round"/>
<path d="M88.61 430.37C86.21 430.37 84.27 428.43 84.27 426.03V385.7H92.95V426.04C92.95 428.43 91.01 430.37 88.61 430.37Z" fill="white" stroke="#263238" stroke-miterlimit="10" stroke-linecap="round" stroke-linejoin="round"/>
<path d="M84.27 402.17V426.03C84.27 428.43 86.21 430.37 88.61 430.37C91.01 430.37 92.95 428.43 92.95 426.03V402.17H84.27Z" fill="#032FF2" stroke="#263238" stroke-miterlimit="10" stroke-linecap="round" stroke-linejoin="round"/>
<path d="M94.49 384.42H82.74V392.59H94.49V384.42Z" fill="white" stroke="#263238" stroke-miterlimit="10" stroke-linecap="round" stroke-linejoin="round"/>
<path d="M101.83 397H26.2V399.57H101.83V426.37H22.53V432.61H106.97V431.14V426.37V399.57V397H101.83Z" fill="white" stroke="#263238" stroke-miterlimit="10" stroke-linecap="round" stroke-linejoin="round"/>
<path d="M385.35 427.52L375.46 389.11V378.61H361.46V389.11L351.57 427.52C350.91 430.1 352.85 432.61 355.52 432.61H381.41C384.07 432.61 386.01 430.1 385.35 427.52Z" fill="white" stroke="#263238" stroke-miterlimit="10"/>
<path d="M377.25 408.11H359.66L354.47 428.27C354.36 428.71 354.54 429.04 354.66 429.2C354.78 429.36 355.05 429.62 355.51 429.62H381.4C381.86 429.62 382.13 429.36 382.25 429.2C382.37 429.04 382.56 428.72 382.44 428.27L377.25 408.11Z" fill="#032FF2"/>
<path d="M413.83 396.29V374.11H400.83V396.29C393.68 398.94 388.58 405.79 388.58 413.86C388.58 424.22 396.97 432.61 407.33 432.61C417.69 432.61 426.08 424.22 426.08 413.86C426.08 405.79 420.98 398.94 413.83 396.29Z" fill="white" stroke="#263238" stroke-miterlimit="10"/>
<path d="M391.28 409.11C390.83 410.62 390.59 412.21 390.59 413.86C390.59 423.11 398.09 430.61 407.34 430.61C416.59 430.61 424.09 423.11 424.09 413.86C424.09 412.21 423.84 410.62 423.4 409.11H391.28Z" fill="#032FF2"/>
<path d="M452.37 408.64V368H443.79V408.64C439.07 410.39 435.71 414.91 435.71 420.24C435.71 427.07 441.25 432.62 448.09 432.62C454.92 432.62 460.47 427.08 460.47 420.24C460.46 414.91 457.09 410.38 452.37 408.64Z" fill="white" stroke="#263238" stroke-miterlimit="10"/>
<path d="M437.49 417.1C437.2 418.09 437.03 419.15 437.03 420.24C437.03 426.35 441.98 431.29 448.08 431.29C454.19 431.29 459.13 426.34 459.13 420.24C459.13 419.15 458.97 418.1 458.67 417.1H437.49Z" fill="#032FF2"/>
</svg>
