<svg width="121" height="30" viewBox="0 0 121 30" fill="none" xmlns="http://www.w3.org/2000/svg">
<path d="M36.5 7.96C37.98 7.96 39.2733 8.25333 40.38 8.84C41.4867 9.42667 42.34 10.2533 42.94 11.32C43.5533 12.3733 43.86 13.5933 43.86 14.98C43.86 16.3533 43.5533 17.5733 42.94 18.64C42.34 19.7067 41.48 20.5333 40.36 21.12C39.2533 21.7067 37.9667 22 36.5 22H31.24V7.96H36.5ZM36.28 19.04C37.5733 19.04 38.58 18.6867 39.3 17.98C40.02 17.2733 40.38 16.2733 40.38 14.98C40.38 13.6867 40.02 12.68 39.3 11.96C38.58 11.24 37.5733 10.88 36.28 10.88H34.66V19.04H36.28ZM52.4113 22.14C51.0913 22.14 49.8779 21.8333 48.7713 21.22C47.6779 20.6067 46.8046 19.7533 46.1513 18.66C45.5112 17.5533 45.1912 16.3133 45.1912 14.94C45.1912 13.5667 45.5112 12.3333 46.1513 11.24C46.8046 10.1467 47.6779 9.29333 48.7713 8.68C49.8779 8.06667 51.0913 7.76 52.4113 7.76C53.7313 7.76 54.9379 8.06667 56.0313 8.68C57.1379 9.29333 58.0046 10.1467 58.6313 11.24C59.2713 12.3333 59.5913 13.5667 59.5913 14.94C59.5913 16.3133 59.2713 17.5533 58.6313 18.66C57.9913 19.7533 57.1246 20.6067 56.0313 21.22C54.9379 21.8333 53.7313 22.14 52.4113 22.14ZM52.4113 19.02C53.5313 19.02 54.4246 18.6467 55.0912 17.9C55.7713 17.1533 56.1113 16.1667 56.1113 14.94C56.1113 13.7 55.7713 12.7133 55.0912 11.98C54.4246 11.2333 53.5313 10.86 52.4113 10.86C51.2779 10.86 50.3713 11.2267 49.6913 11.96C49.0246 12.6933 48.6913 13.6867 48.6913 14.94C48.6913 16.18 49.0246 17.1733 49.6913 17.92C50.3713 18.6533 51.2779 19.02 52.4113 19.02ZM60.9139 14.96C60.9139 13.5733 61.2139 12.34 61.8139 11.26C62.4139 10.1667 63.2472 9.32 64.3139 8.72C65.3939 8.10667 66.6139 7.8 67.9739 7.8C69.6406 7.8 71.0672 8.24 72.2539 9.12C73.4406 10 74.2339 11.2 74.6339 12.72H70.8739C70.5939 12.1333 70.1939 11.6867 69.6739 11.38C69.1672 11.0733 68.5872 10.92 67.9339 10.92C66.8806 10.92 66.0272 11.2867 65.3739 12.02C64.7206 12.7533 64.3939 13.7333 64.3939 14.96C64.3939 16.1867 64.7206 17.1667 65.3739 17.9C66.0272 18.6333 66.8806 19 67.9339 19C68.5872 19 69.1672 18.8467 69.6739 18.54C70.1939 18.2333 70.5939 17.7867 70.8739 17.2H74.6339C74.2339 18.72 73.4406 19.92 72.2539 20.8C71.0672 21.6667 69.6406 22.1 67.9739 22.1C66.6139 22.1 65.3939 21.8 64.3139 21.2C63.2472 20.5867 62.4139 19.74 61.8139 18.66C61.2139 17.58 60.9139 16.3467 60.9139 14.96ZM81.9883 7.96C83.4683 7.96 84.7616 8.25333 85.8683 8.84C86.9749 9.42667 87.8283 10.2533 88.4283 11.32C89.0416 12.3733 89.3483 13.5933 89.3483 14.98C89.3483 16.3533 89.0416 17.5733 88.4283 18.64C87.8283 19.7067 86.9683 20.5333 85.8483 21.12C84.7416 21.7067 83.4549 22 81.9883 22H76.7283V7.96H81.9883ZM81.7683 19.04C83.0616 19.04 84.0683 18.6867 84.7883 17.98C85.5083 17.2733 85.8683 16.2733 85.8683 14.98C85.8683 13.6867 85.5083 12.68 84.7883 11.96C84.0683 11.24 83.0616 10.88 81.7683 10.88H80.1483V19.04H81.7683ZM97.8995 22.14C96.5795 22.14 95.3662 21.8333 94.2595 21.22C93.1662 20.6067 92.2929 19.7533 91.6395 18.66C90.9995 17.5533 90.6795 16.3133 90.6795 14.94C90.6795 13.5667 90.9995 12.3333 91.6395 11.24C92.2929 10.1467 93.1662 9.29333 94.2595 8.68C95.3662 8.06667 96.5795 7.76 97.8995 7.76C99.2195 7.76 100.426 8.06667 101.52 8.68C102.626 9.29333 103.493 10.1467 104.12 11.24C104.76 12.3333 105.08 13.5667 105.08 14.94C105.08 16.3133 104.76 17.5533 104.12 18.66C103.48 19.7533 102.613 20.6067 101.52 21.22C100.426 21.8333 99.2195 22.14 97.8995 22.14ZM97.8995 19.02C99.0195 19.02 99.9129 18.6467 100.58 17.9C101.26 17.1533 101.6 16.1667 101.6 14.94C101.6 13.7 101.26 12.7133 100.58 11.98C99.9129 11.2333 99.0195 10.86 97.8995 10.86C96.7662 10.86 95.8595 11.2267 95.1795 11.96C94.5129 12.6933 94.1795 13.6867 94.1795 14.94C94.1795 16.18 94.5129 17.1733 95.1795 17.92C95.8595 18.6533 96.7662 19.02 97.8995 19.02ZM106.402 14.96C106.402 13.5733 106.702 12.34 107.302 11.26C107.902 10.1667 108.736 9.32 109.802 8.72C110.882 8.10667 112.102 7.8 113.462 7.8C115.129 7.8 116.556 8.24 117.742 9.12C118.929 10 119.722 11.2 120.122 12.72H116.362C116.082 12.1333 115.682 11.6867 115.162 11.38C114.656 11.0733 114.076 10.92 113.422 10.92C112.369 10.92 111.516 11.2867 110.862 12.02C110.209 12.7533 109.882 13.7333 109.882 14.96C109.882 16.1867 110.209 17.1667 110.862 17.9C111.516 18.6333 112.369 19 113.422 19C114.076 19 114.656 18.8467 115.162 18.54C115.682 18.2333 116.082 17.7867 116.362 17.2H120.122C119.722 18.72 118.929 19.92 117.742 20.8C116.556 21.6667 115.129 22.1 113.462 22.1C112.102 22.1 110.882 21.8 109.802 21.2C108.736 20.5867 107.902 19.74 107.302 18.66C106.702 17.58 106.402 16.3467 106.402 14.96Z" fill="#2B2E35"/>
<rect y="4" width="22" height="22" fill="#262433"/>
<path d="M16.38 16.54H12.9V20.1H9.66V16.54H6.18V13.48H9.66V9.9H12.9V13.48H16.38V16.54Z" fill="white"/>
</svg>
