<svg xmlns="http://www.w3.org/2000/svg" xmlns:xlink="http://www.w3.org/1999/xlink" viewBox="0 0 280.07 168.68"><defs><style>.cls-1{fill:none;}.cls-2{fill:url(#linear-gradient);}.cls-3{fill:url(#linear-gradient-2);}.cls-4{isolation:isolate;}.cls-5{opacity:0.5;}.cls-6{fill:#fffdfe;}.cls-10,.cls-7{fill:#f1ebff;}.cls-12,.cls-8{fill:#d6bdf1;mix-blend-mode:multiply;}.cls-8{opacity:0.13;}.cls-9{fill:blue;}.cls-10{opacity:0.4;}.cls-11{clip-path:url(#clip-path);}.cls-12{opacity:0.31;}.cls-13{opacity:0.52;}.cls-14{fill:#ffc504;}.cls-15{clip-path:url(#clip-path-2);}.cls-16{clip-path:url(#clip-path-3);}.cls-17{fill:#423baa;}.cls-18{fill:#7357e5;}.cls-19{clip-path:url(#clip-path-4);}.cls-20{fill:url(#linear-gradient-5);}.cls-21{clip-path:url(#clip-path-5);}.cls-22{fill:#ffc9c5;}.cls-23{fill:#391d77;}.cls-24{fill:url(#linear-gradient-7);}.cls-25{fill:#ffae02;}.cls-26{fill:url(#linear-gradient-8);}.cls-27{fill:#b598fc;}.cls-28{fill:url(#linear-gradient-9);}.cls-29{fill:url(#linear-gradient-10);}.cls-30{fill:#e4d4f4;}</style><linearGradient id="linear-gradient" x1="204.96" y1="135.49" x2="204.96" y2="175.15" gradientUnits="userSpaceOnUse"><stop offset="0" stop-color="#ffc504"/><stop offset="0.25" stop-color="#ffb504"/><stop offset="0.74" stop-color="#ff8c05"/><stop offset="1" stop-color="#ff7406"/></linearGradient><linearGradient id="linear-gradient-2" x1="40.22" y1="135.49" x2="40.22" y2="175.15" xlink:href="#linear-gradient"/><clipPath id="clip-path"><rect class="cls-1" x="88.52" y="76.9" width="52.13" height="48.81" rx="4.61"/></clipPath><clipPath id="clip-path-2"><path class="cls-2" d="M213.68,164.24H196.24L204,140.36a1,1,0,0,1,2,0Z"/></clipPath><clipPath id="clip-path-3"><path class="cls-3" d="M48.94,164.24H31.5l7.73-23.88a1,1,0,0,1,2,0Z"/></clipPath><clipPath id="clip-path-4"><rect class="cls-1" x="213.87" y="129.69" width="50.6" height="14.39"/></clipPath><linearGradient id="linear-gradient-5" x1="200.37" y1="137.54" x2="279.76" y2="137.54" xlink:href="#linear-gradient"/><clipPath id="clip-path-5"><rect class="cls-1" x="213.87" y="145.85" width="50.6" height="6.59"/></clipPath><linearGradient id="linear-gradient-7" x1="169.49" y1="112.43" x2="182.1" y2="161.82" xlink:href="#linear-gradient"/><linearGradient id="linear-gradient-8" x1="163.55" y1="160.58" x2="163.55" y2="141.75" gradientUnits="userSpaceOnUse"><stop offset="0" stop-color="#4f2ca0"/><stop offset="1" stop-color="#8149ed"/></linearGradient><linearGradient id="linear-gradient-9" x1="59.1" y1="172.19" x2="59.1" y2="150.96" xlink:href="#linear-gradient-8"/><linearGradient id="linear-gradient-10" x1="79.66" y1="54.94" x2="79.92" y2="119.59" xlink:href="#linear-gradient"/></defs><g class="cls-4"><g id="Capa_2" data-name="Capa 2"><g id="Capa_1-2" data-name="Capa 1"><g id="Maintenence_img" data-name="Maintenence img"><g class="cls-5"><path class="cls-6" d="M90.56,138.42V127.31a1.3,1.3,0,0,0-1.3-1.29H85.54a1.34,1.34,0,0,1-1.21-.83v0a1.32,1.32,0,0,1,.26-1.44l2.64-2.63a1.3,1.3,0,0,0,0-1.83l-7.86-7.86a1.3,1.3,0,0,0-1.83,0L74.91,114a1.3,1.3,0,0,1-1.44.27h0a1.34,1.34,0,0,1-.83-1.21v-3.72a1.3,1.3,0,0,0-1.29-1.3H60.22a1.3,1.3,0,0,0-1.3,1.3v3.72a1.33,1.33,0,0,1-.82,1.21h0a1.3,1.3,0,0,1-1.44-.27L54,111.41a1.3,1.3,0,0,0-1.83,0l-7.86,7.86a1.29,1.29,0,0,0,0,1.83L47,123.73a1.3,1.3,0,0,1,.27,1.44v0A1.31,1.31,0,0,1,46,126H42.28A1.29,1.29,0,0,0,41,127.31v11.11a1.3,1.3,0,0,0,1.29,1.3H46a1.3,1.3,0,0,1,1.2.82v0A1.3,1.3,0,0,1,47,142l-2.63,2.63a1.29,1.29,0,0,0,0,1.83l7.86,7.86a1.29,1.29,0,0,0,1.83,0l2.63-2.63a1.3,1.3,0,0,1,1.44-.27h0a1.3,1.3,0,0,1,.82,1.2v3.73a1.3,1.3,0,0,0,1.3,1.29H71.33a1.29,1.29,0,0,0,1.29-1.29v-3.73a1.31,1.31,0,0,1,.83-1.2h0a1.3,1.3,0,0,1,1.44.27l2.63,2.63a1.29,1.29,0,0,0,1.83,0l7.86-7.86a1.3,1.3,0,0,0,0-1.83L84.59,142a1.32,1.32,0,0,1-.26-1.44v0a1.33,1.33,0,0,1,1.21-.82h3.72A1.3,1.3,0,0,0,90.56,138.42ZM78,132.87a12.2,12.2,0,1,1-12.2-12.2A12.2,12.2,0,0,1,78,132.87Z"/><path class="cls-6" d="M245.77,143.69h8.13a1,1,0,0,0,.95-.95V140a1,1,0,0,1,.6-.89h0a1,1,0,0,1,1.06.19l1.92,1.93a1,1,0,0,0,1.34,0l5.75-5.75a1,1,0,0,0,0-1.34l-1.92-1.93a1,1,0,0,1-.2-1h0a1,1,0,0,1,.88-.61H267a.94.94,0,0,0,1-.94v-8.13a.94.94,0,0,0-1-.95H264.3a1,1,0,0,1-.88-.61h0a1,1,0,0,1,.2-1l1.92-1.93a1,1,0,0,0,0-1.34l-5.75-5.75a1,1,0,0,0-1.34,0l-1.92,1.93a1,1,0,0,1-1.06.19h0a1,1,0,0,1-.6-.88v-2.73a1,1,0,0,0-.95-1h-8.13a1,1,0,0,0-1,1v2.73a1,1,0,0,1-.6.88h0a1,1,0,0,1-1.06-.19l-1.93-1.93a1,1,0,0,0-1.34,0l-5.75,5.75a1,1,0,0,0,0,1.34l1.93,1.93a1,1,0,0,1,.2,1h0a1,1,0,0,1-.88.61h-2.73a.94.94,0,0,0-.94.95v8.13a.94.94,0,0,0,.94.94h2.73a1,1,0,0,1,.88.61h0a1,1,0,0,1-.2,1l-1.93,1.93a1,1,0,0,0,0,1.34l5.75,5.75a1,1,0,0,0,1.34,0l1.93-1.93a1,1,0,0,1,1.06-.19h0a1,1,0,0,1,.6.89v2.72A1,1,0,0,0,245.77,143.69Zm4.06-9.21a8.93,8.93,0,1,1,8.93-8.93A8.92,8.92,0,0,1,249.83,134.48Z"/><path class="cls-6" d="M211.62,128.89h4.5a.52.52,0,0,0,.52-.53v-1.5a.53.53,0,0,1,.34-.49h0a.56.56,0,0,1,.59.11l1.06,1.07a.53.53,0,0,0,.74,0l3.19-3.18a.54.54,0,0,0,0-.75l-1.07-1.06a.56.56,0,0,1-.11-.59h0a.55.55,0,0,1,.49-.34h1.51a.52.52,0,0,0,.53-.52v-4.5a.53.53,0,0,0-.53-.53h-1.51a.54.54,0,0,1-.49-.33h0a.54.54,0,0,1,.11-.58l1.07-1.07a.53.53,0,0,0,0-.74l-3.19-3.18a.51.51,0,0,0-.74,0l-1.06,1.07a.54.54,0,0,1-.59.1h0a.53.53,0,0,1-.34-.49v-1.51a.52.52,0,0,0-.52-.52h-4.5a.52.52,0,0,0-.53.52v1.51a.52.52,0,0,1-.33.49h0a.52.52,0,0,1-.58-.1l-1.07-1.07a.51.51,0,0,0-.74,0l-3.18,3.18a.51.51,0,0,0,0,.74l1.06,1.07a.5.5,0,0,1,.11.58h0a.52.52,0,0,1-.49.33h-1.51a.52.52,0,0,0-.52.53v4.5a.52.52,0,0,0,.52.52h1.51a.53.53,0,0,1,.49.34h0a.52.52,0,0,1-.11.59l-1.06,1.06a.53.53,0,0,0,0,.75l3.18,3.18a.53.53,0,0,0,.74,0l1.07-1.07a.54.54,0,0,1,.58-.11h0a.52.52,0,0,1,.33.49v1.5A.53.53,0,0,0,211.62,128.89Zm2.25-5.1a4.94,4.94,0,1,1,4.94-4.94A4.95,4.95,0,0,1,213.87,123.79Z"/><path class="cls-7" d="M50.91,56.35h4.5a.52.52,0,0,0,.52-.53v-1.5a.53.53,0,0,1,.34-.49h0a.56.56,0,0,1,.59.11L57.92,55a.54.54,0,0,0,.75,0l3.18-3.18a.54.54,0,0,0,0-.75L60.78,50a.56.56,0,0,1-.11-.59h0a.53.53,0,0,1,.49-.34h1.5a.52.52,0,0,0,.53-.52v-4.5a.53.53,0,0,0-.53-.53h-1.5a.52.52,0,0,1-.49-.33h0a.54.54,0,0,1,.11-.58l1.07-1.07a.53.53,0,0,0,0-.74l-3.18-3.18a.53.53,0,0,0-.75,0l-1.06,1.06a.52.52,0,0,1-.59.11h0a.53.53,0,0,1-.34-.49V36.79a.52.52,0,0,0-.52-.52h-4.5a.52.52,0,0,0-.53.52V38.3a.52.52,0,0,1-.33.49h0a.5.5,0,0,1-.58-.11l-1.07-1.06a.51.51,0,0,0-.74,0L44.47,40.8a.51.51,0,0,0,0,.74l1.06,1.07a.5.5,0,0,1,.11.58h0a.52.52,0,0,1-.49.33H43.64a.52.52,0,0,0-.52.53v4.5a.52.52,0,0,0,.52.52h1.51a.53.53,0,0,1,.49.34h0a.52.52,0,0,1-.11.59l-1.06,1.06a.53.53,0,0,0,0,.75L47.65,55a.53.53,0,0,0,.74,0l1.07-1.07a.54.54,0,0,1,.58-.11h0a.52.52,0,0,1,.33.49v1.5A.53.53,0,0,0,50.91,56.35Zm2.25-5.1a4.94,4.94,0,1,1,4.94-4.94A4.94,4.94,0,0,1,53.16,51.25Z"/><path class="cls-6" d="M223,99.57h2.59a.3.3,0,0,0,.31-.3V98.4a.3.3,0,0,1,.19-.28h0a.3.3,0,0,1,.34.06l.61.62a.32.32,0,0,0,.43,0L229.28,97a.29.29,0,0,0,0-.42l-.61-.62a.3.3,0,0,1-.06-.34h0a.32.32,0,0,1,.28-.19h.87a.3.3,0,0,0,.3-.3v-2.6a.3.3,0,0,0-.3-.3h-.87a.32.32,0,0,1-.28-.19h0a.29.29,0,0,1,.06-.33l.61-.62a.29.29,0,0,0,0-.42l-1.83-1.84a.3.3,0,0,0-.43,0l-.61.62a.32.32,0,0,1-.34.06h0a.3.3,0,0,1-.19-.28v-.87a.31.31,0,0,0-.31-.31H223a.3.3,0,0,0-.3.31v.87a.31.31,0,0,1-.2.28h0a.33.33,0,0,1-.34-.06l-.61-.62a.3.3,0,0,0-.43,0l-1.83,1.84a.29.29,0,0,0,0,.42l.61.62A.31.31,0,0,1,220,92h0a.3.3,0,0,1-.28.19h-.87a.31.31,0,0,0-.3.3v2.6a.31.31,0,0,0,.3.3h.87a.3.3,0,0,1,.28.19h0a.33.33,0,0,1-.07.34l-.61.62a.29.29,0,0,0,0,.42l1.83,1.84a.32.32,0,0,0,.43,0l.61-.62a.31.31,0,0,1,.34-.06h0a.31.31,0,0,1,.2.28v.87A.29.29,0,0,0,223,99.57Zm1.3-2.93a2.85,2.85,0,1,1,2.84-2.85A2.85,2.85,0,0,1,224.28,96.64Z"/><path class="cls-6" d="M25.71,128.43v-5.76A.67.67,0,0,0,25,122H23.11a.68.68,0,0,1-.63-.43h0a.68.68,0,0,1,.14-.75L24,119.45a.68.68,0,0,0,0-1l-4.08-4.08a.68.68,0,0,0-.95,0l-1.37,1.37a.69.69,0,0,1-.74.14h0a.67.67,0,0,1-.43-.62v-1.93a.68.68,0,0,0-.67-.68H10a.68.68,0,0,0-.67.68v1.93a.68.68,0,0,1-.42.62h0a.71.71,0,0,1-.75-.14l-1.37-1.37a.68.68,0,0,0-1,0L1.73,118.5a.68.68,0,0,0,0,1l1.36,1.36a.68.68,0,0,1,.14.75h0a.68.68,0,0,1-.63.43H.67a.67.67,0,0,0-.67.67v5.76a.68.68,0,0,0,.67.68H2.6a.69.69,0,0,1,.63.42h0a.67.67,0,0,1-.14.75l-1.36,1.36a.68.68,0,0,0,0,.95l4.07,4.08a.68.68,0,0,0,1,0l1.37-1.37a.69.69,0,0,1,.75-.13h0a.69.69,0,0,1,.42.63v1.93a.67.67,0,0,0,.67.67h5.77a.67.67,0,0,0,.67-.67V135.8a.68.68,0,0,1,.43-.62h0a.67.67,0,0,1,.74.13L19,136.68a.68.68,0,0,0,.95,0L24,132.6a.68.68,0,0,0,0-.95l-1.37-1.36a.67.67,0,0,1-.14-.75h0a.69.69,0,0,1,.63-.42H25A.68.68,0,0,0,25.71,128.43Zm-6.52-2.88a6.33,6.33,0,1,1-6.33-6.33A6.33,6.33,0,0,1,19.19,125.55Z"/><path class="cls-6" d="M211.43,20.21h4.5a.52.52,0,0,0,.52-.53v-1.5a.54.54,0,0,1,.33-.49h0a.54.54,0,0,1,.58.11l1.07,1.07a.53.53,0,0,0,.74,0l3.19-3.18a.54.54,0,0,0,0-.75l-1.07-1.06a.56.56,0,0,1-.11-.59h0a.55.55,0,0,1,.49-.34h1.51a.52.52,0,0,0,.52-.52V7.92a.52.52,0,0,0-.52-.53h-1.51a.54.54,0,0,1-.49-.33h0a.54.54,0,0,1,.11-.58l1.07-1.07a.53.53,0,0,0,0-.74l-3.19-3.18a.51.51,0,0,0-.74,0l-1.07,1.06a.5.5,0,0,1-.58.11h0a.54.54,0,0,1-.33-.49V.65a.52.52,0,0,0-.52-.52h-4.5a.52.52,0,0,0-.53.52V2.16a.52.52,0,0,1-.33.49h0a.5.5,0,0,1-.58-.11l-1.07-1.06a.51.51,0,0,0-.74,0L205,4.66a.51.51,0,0,0,0,.74l1.06,1.07a.52.52,0,0,1,.11.58h0a.53.53,0,0,1-.49.33h-1.51a.52.52,0,0,0-.52.53v4.5a.52.52,0,0,0,.52.52h1.51a.54.54,0,0,1,.49.34h0a.54.54,0,0,1-.11.59L205,14.93a.53.53,0,0,0,0,.75l3.18,3.18a.53.53,0,0,0,.74,0L210,17.79a.54.54,0,0,1,.58-.11h0a.52.52,0,0,1,.33.49v1.5A.53.53,0,0,0,211.43,20.21Zm2.25-5.1a4.94,4.94,0,1,1,4.94-4.94A4.95,4.95,0,0,1,213.68,15.11Z"/><path class="cls-6" d="M232.48,29.33h2.59a.3.3,0,0,0,.3-.3v-.87a.29.29,0,0,1,.2-.28h0a.3.3,0,0,1,.34.06l.61.61a.3.3,0,0,0,.43,0l1.83-1.83a.3.3,0,0,0,0-.43l-.61-.61a.33.33,0,0,1-.07-.34h0a.29.29,0,0,1,.28-.2h.87a.3.3,0,0,0,.3-.3V22.25a.3.3,0,0,0-.3-.3h-.87a.29.29,0,0,1-.28-.2h0a.33.33,0,0,1,.07-.34l.61-.61a.3.3,0,0,0,0-.43L237,18.54a.3.3,0,0,0-.43,0l-.61.61a.3.3,0,0,1-.34.06h0a.3.3,0,0,1-.2-.28v-.87a.3.3,0,0,0-.3-.3h-2.59a.3.3,0,0,0-.3.3v.87a.3.3,0,0,1-.2.28h0a.3.3,0,0,1-.34-.06l-.61-.61a.3.3,0,0,0-.43,0l-1.83,1.83a.3.3,0,0,0,0,.43l.61.61a.3.3,0,0,1,.06.34h0a.3.3,0,0,1-.28.2h-.87a.29.29,0,0,0-.3.3v2.59a.29.29,0,0,0,.3.3h.87a.3.3,0,0,1,.28.2h0a.3.3,0,0,1-.06.34l-.61.61a.3.3,0,0,0,0,.43l1.83,1.83a.3.3,0,0,0,.43,0l.61-.61a.3.3,0,0,1,.34-.06h0a.29.29,0,0,1,.2.28V29A.3.3,0,0,0,232.48,29.33Zm1.29-2.94a2.85,2.85,0,1,1,2.85-2.85A2.84,2.84,0,0,1,233.77,26.39Z"/><path class="cls-7" d="M70.26,40.9h2.6a.31.31,0,0,0,.3-.3v-.87a.3.3,0,0,1,.19-.28h0a.3.3,0,0,1,.34.06l.61.61a.3.3,0,0,0,.43,0l1.84-1.83a.32.32,0,0,0,0-.43L76,37.25a.3.3,0,0,1-.06-.34h0a.31.31,0,0,1,.28-.2H77a.29.29,0,0,0,.3-.3V33.82a.29.29,0,0,0-.3-.3h-.87a.31.31,0,0,1-.28-.2h0A.3.3,0,0,1,76,33l.62-.61a.32.32,0,0,0,0-.43l-1.84-1.83a.3.3,0,0,0-.43,0l-.61.61a.3.3,0,0,1-.34.06h0a.31.31,0,0,1-.19-.28v-.87a.31.31,0,0,0-.3-.3h-2.6a.3.3,0,0,0-.3.3v.87a.31.31,0,0,1-.19.28h0a.29.29,0,0,1-.33-.06l-.62-.61a.3.3,0,0,0-.43,0l-1.83,1.83a.3.3,0,0,0,0,.43l.62.61a.32.32,0,0,1,.06.34h0a.31.31,0,0,1-.29.2h-.86a.3.3,0,0,0-.31.3v2.59a.3.3,0,0,0,.31.3h.86a.31.31,0,0,1,.29.2h0a.32.32,0,0,1-.06.34l-.62.61a.3.3,0,0,0,0,.43l1.83,1.83a.3.3,0,0,0,.43,0l.62-.61a.29.29,0,0,1,.33-.06h0a.3.3,0,0,1,.19.28v.87A.3.3,0,0,0,70.26,40.9ZM71.56,38a2.85,2.85,0,1,1,2.85-2.85A2.85,2.85,0,0,1,71.56,38Z"/></g><rect class="cls-8" x="83.84" width="128.96" height="165.92" rx="7.35"/><rect class="cls-9" x="79.93" width="128.96" height="165.92" rx="7.35"/><rect class="cls-6" x="83.87" y="10.33" width="121.09" height="145.26" rx="3.47"/><rect class="cls-10" x="146.69" y="18.48" width="53.9" height="128.19" rx="3.85"/><path class="cls-7" d="M154.13,39.82V28.21a1.42,1.42,0,0,1,1.42-1.43h11.62a1.43,1.43,0,0,1,1.42,1.43V39.82a1.43,1.43,0,0,1-1.42,1.42H155.55A1.42,1.42,0,0,1,154.13,39.82Z"/><path class="cls-7" d="M192.77,29.87H171.32a.38.38,0,0,1,0-.76h21.45a.38.38,0,1,1,0,.76Zm.38,1.88a.38.38,0,0,0-.38-.38H171.32a.38.38,0,0,0,0,.76h21.45A.38.38,0,0,0,193.15,31.75Zm0,2.26a.38.38,0,0,0-.38-.38H171.32a.38.38,0,0,0,0,.76h21.45A.38.38,0,0,0,193.15,34Zm0,2.26a.38.38,0,0,0-.38-.38H171.32a.38.38,0,0,0,0,.76h21.45A.38.38,0,0,0,193.15,36.27Zm0,2.26a.38.38,0,0,0-.38-.38H171.32a.38.38,0,0,0,0,.76h21.45A.38.38,0,0,0,193.15,38.53Z"/><rect class="cls-7" x="154.13" y="46.45" width="14.46" height="14.46" rx="1.42"/><path class="cls-7" d="M192.77,49.54H171.32a.38.38,0,0,1,0-.76h21.45a.38.38,0,1,1,0,.76Zm.38,1.88a.38.38,0,0,0-.38-.38H171.32a.38.38,0,1,0,0,.76h21.45A.38.38,0,0,0,193.15,51.42Zm0,2.26a.38.38,0,0,0-.38-.38H171.32a.38.38,0,0,0,0,.76h21.45A.38.38,0,0,0,193.15,53.68Zm0,2.26a.38.38,0,0,0-.38-.38H171.32a.38.38,0,0,0,0,.76h21.45A.38.38,0,0,0,193.15,55.94Zm0,2.27a.38.38,0,0,0-.38-.38H171.32a.38.38,0,1,0,0,.75h21.45A.38.38,0,0,0,193.15,58.21Z"/><path class="cls-7" d="M154.13,78.85V67.24a1.41,1.41,0,0,1,1.42-1.42h11.62a1.42,1.42,0,0,1,1.42,1.42V78.85a1.43,1.43,0,0,1-1.42,1.43H155.55A1.42,1.42,0,0,1,154.13,78.85Z"/><path class="cls-7" d="M192.77,68.9H171.32a.38.38,0,1,1,0-.75h21.45a.38.38,0,1,1,0,.75Zm.38,1.89a.38.38,0,0,0-.38-.38H171.32a.38.38,0,0,0-.38.38.37.37,0,0,0,.38.37h21.45A.37.37,0,0,0,193.15,70.79Zm0,2.26a.38.38,0,0,0-.38-.38H171.32a.38.38,0,1,0,0,.76h21.45A.38.38,0,0,0,193.15,73.05Zm0,2.26a.38.38,0,0,0-.38-.38H171.32a.38.38,0,0,0,0,.76h21.45A.38.38,0,0,0,193.15,75.31Zm0,2.26a.38.38,0,0,0-.38-.38H171.32a.38.38,0,1,0,0,.76h21.45A.38.38,0,0,0,193.15,77.57Z"/><path class="cls-7" d="M154.13,98.22V86.61a1.42,1.42,0,0,1,1.42-1.43h11.62a1.43,1.43,0,0,1,1.42,1.43V98.22a1.43,1.43,0,0,1-1.42,1.42H155.55A1.42,1.42,0,0,1,154.13,98.22Z"/><path class="cls-7" d="M192.77,88.27H171.32a.38.38,0,0,1,0-.76h21.45a.38.38,0,0,1,0,.76Zm.38,1.88a.38.38,0,0,0-.38-.38H171.32a.38.38,0,0,0,0,.76h21.45A.38.38,0,0,0,193.15,90.15Zm0,2.26a.38.38,0,0,0-.38-.38H171.32a.38.38,0,0,0,0,.76h21.45A.38.38,0,0,0,193.15,92.41Zm0,2.26a.38.38,0,0,0-.38-.38H171.32a.38.38,0,0,0,0,.76h21.45A.38.38,0,0,0,193.15,94.67Zm0,2.27a.38.38,0,0,0-.38-.38H171.32a.38.38,0,1,0,0,.75h21.45A.38.38,0,0,0,193.15,96.94Z"/><path class="cls-7" d="M154.13,117.58V106a1.41,1.41,0,0,1,1.42-1.42h11.62a1.42,1.42,0,0,1,1.42,1.42v11.61a1.43,1.43,0,0,1-1.42,1.43H155.55A1.42,1.42,0,0,1,154.13,117.58Z"/><path class="cls-7" d="M192.77,107.63H171.32a.38.38,0,0,1-.38-.38.37.37,0,0,1,.38-.37h21.45a.37.37,0,0,1,.38.37A.38.38,0,0,1,192.77,107.63Zm.38,1.89a.38.38,0,0,0-.38-.38H171.32a.38.38,0,0,0-.38.38.37.37,0,0,0,.38.37h21.45A.37.37,0,0,0,193.15,109.52Zm0,2.26a.38.38,0,0,0-.38-.38H171.32a.38.38,0,0,0,0,.76h21.45A.38.38,0,0,0,193.15,111.78Zm0,2.26a.38.38,0,0,0-.38-.38H171.32a.38.38,0,1,0,0,.76h21.45A.38.38,0,0,0,193.15,114Zm0,2.26a.38.38,0,0,0-.38-.38H171.32a.38.38,0,0,0,0,.76h21.45A.38.38,0,0,0,193.15,116.3Z"/><rect class="cls-7" x="154.13" y="123.91" width="14.46" height="14.46" rx="1.42"/><path class="cls-7" d="M192.77,127H171.32a.38.38,0,1,1,0-.76h21.45a.38.38,0,1,1,0,.76Zm.38,1.88a.38.38,0,0,0-.38-.38H171.32a.38.38,0,0,0,0,.76h21.45A.38.38,0,0,0,193.15,128.88Zm0,2.26a.38.38,0,0,0-.38-.38H171.32a.38.38,0,1,0,0,.76h21.45A.38.38,0,0,0,193.15,131.14Zm0,2.26a.38.38,0,0,0-.38-.38H171.32a.38.38,0,0,0,0,.76h21.45A.38.38,0,0,0,193.15,133.4Zm0,2.26a.38.38,0,0,0-.38-.37H171.32a.38.38,0,1,0,0,.75h21.45A.38.38,0,0,0,193.15,135.66Z"/><rect class="cls-10" x="88.52" y="17.74" width="52.13" height="48.8" rx="4.61"/><path class="cls-7" d="M105.76,37.87V66.54H93a4.5,4.5,0,0,1-4.49-4.49V37.87Z"/><circle class="cls-7" cx="95.95" cy="140.45" r="7.71"/><path class="cls-7" d="M142.1,133.92H108.28a.6.6,0,0,1,0-1.2H142.1a.6.6,0,0,1,0,1.2Zm.59,3a.59.59,0,0,0-.59-.6H108.28a.6.6,0,1,0,0,1.19H142.1A.58.58,0,0,0,142.69,136.89Zm0,3.56a.59.59,0,0,0-.59-.6H108.28a.6.6,0,0,0,0,1.2H142.1A.59.59,0,0,0,142.69,140.45Zm0,3.57a.59.59,0,0,0-.59-.6H108.28a.6.6,0,0,0-.6.6.59.59,0,0,0,.6.59H142.1A.58.58,0,0,0,142.69,144Zm0,3.56a.59.59,0,0,0-.59-.6H108.28a.6.6,0,0,0,0,1.2H142.1A.59.59,0,0,0,142.69,147.58Z"/><rect class="cls-10" x="88.52" y="76.9" width="52.13" height="48.81" rx="4.61"/><g class="cls-11"><path class="cls-7" d="M83.54,116.74l17.19-20.48a4.06,4.06,0,0,1,6.06-.18l30.06,31.77H83.05Z"/><path class="cls-7" d="M130.46,102.26l31,25.59H100l25-25.31A4.07,4.07,0,0,1,130.46,102.26Z"/><path class="cls-7" d="M122.81,92.34a4.81,4.81,0,1,1-4.8-4.8A4.8,4.8,0,0,1,122.81,92.34Z"/></g><rect class="cls-12" x="30.07" y="87.59" width="51.12" height="30.62" rx="3.53"/><rect class="cls-6" x="27.6" y="85.94" width="51.12" height="30.62" rx="3.53"/><g class="cls-13"><path class="cls-7" d="M31,107.86V94.64A1.62,1.62,0,0,1,32.58,93H45.8a1.62,1.62,0,0,1,1.61,1.62v13.22a1.62,1.62,0,0,1-1.61,1.62H32.58A1.62,1.62,0,0,1,31,107.86Z"/><path class="cls-7" d="M74.93,96.54H50.52a.44.44,0,0,1,0-.87H74.93a.44.44,0,0,1,0,.87Zm.43,2.14a.43.43,0,0,0-.43-.43H50.52a.43.43,0,1,0,0,.86H74.93A.43.43,0,0,0,75.36,98.68Zm0,2.57a.43.43,0,0,0-.43-.43H50.52a.43.43,0,0,0,0,.86H74.93A.43.43,0,0,0,75.36,101.25Zm0,2.57a.44.44,0,0,0-.43-.43H50.52a.43.43,0,0,0-.43.43.43.43,0,0,0,.43.43H74.93A.43.43,0,0,0,75.36,103.82Zm0,2.58a.43.43,0,0,0-.43-.43H50.52a.43.43,0,1,0,0,.86H74.93A.43.43,0,0,0,75.36,106.4Z"/></g><path class="cls-14" d="M213.68,164.24H196.24L204,140.36a1,1,0,0,1,2,0Z"/><path class="cls-6" d="M215.34,165.92H194.58a.84.84,0,0,1-.84-.84h0a.83.83,0,0,1,.84-.84h20.76a.83.83,0,0,1,.84.84h0A.84.84,0,0,1,215.34,165.92Z"/><path class="cls-2" d="M213.68,164.24H196.24L204,140.36a1,1,0,0,1,2,0Z"/><g class="cls-15"><path class="cls-6" d="M214.22,159.93h-17.8v-4.56h17.8Zm0-13.42h-17.8v4.55h17.8Z"/></g><path class="cls-14" d="M48.94,164.24H31.5l7.73-23.88a1,1,0,0,1,2,0Z"/><path class="cls-6" d="M50.6,165.92H29.84a.84.84,0,0,1-.84-.84h0a.83.83,0,0,1,.84-.84H50.6a.83.83,0,0,1,.84.84h0A.84.84,0,0,1,50.6,165.92Z"/><path class="cls-3" d="M48.94,164.24H31.5l7.73-23.88a1,1,0,0,1,2,0Z"/><g class="cls-16"><path class="cls-6" d="M49.48,159.93H31.68v-4.56h17.8Zm0-13.42H31.68v4.55h17.8Z"/></g><rect class="cls-17" x="238.8" y="137.3" width="1.52" height="41.03" transform="translate(397.37 -81.74) rotate(90)"/><path class="cls-17" d="M219.09,165.92h0a1.19,1.19,0,0,1-1.18-1.19V128.39a1.18,1.18,0,0,1,1.18-1.19h0a1.19,1.19,0,0,1,1.19,1.19v36.34A1.19,1.19,0,0,1,219.09,165.92Z"/><path class="cls-17" d="M220.72,165.92h-3.26a.76.76,0,0,1-.75-.76h0a.76.76,0,0,1,.75-.75h3.26a.75.75,0,0,1,.75.75h0A.75.75,0,0,1,220.72,165.92Z"/><path class="cls-17" d="M260,165.92h0a1.19,1.19,0,0,1-1.18-1.19V128.39A1.18,1.18,0,0,1,260,127.2h0a1.18,1.18,0,0,1,1.18,1.19v36.34A1.19,1.19,0,0,1,260,165.92Z"/><path class="cls-17" d="M261.6,165.92h-3.26a.76.76,0,0,1-.75-.76h0a.76.76,0,0,1,.75-.75h3.26a.75.75,0,0,1,.75.75h0A.75.75,0,0,1,261.6,165.92Z"/><path class="cls-18" d="M264.46,144.08H213.87V129.69h50.59Zm0,1.77H213.87v6.59h50.59Z"/><g class="cls-19"><path class="cls-20" d="M207.73,163.33h-7.36l25.31-51.59H233Zm37-51.59h-7.36l-25.31,51.59h7.36Zm11.68,0H249l-25.31,51.59h7.36Zm11.68,0h-7.36l-25.31,51.59h7.36Zm11.68,0H272.4l-25.3,51.59h7.35Z"/></g><g class="cls-21"><path class="cls-20" d="M207.73,163.33h-7.36l25.31-51.59H233Zm37-51.59h-7.36l-25.31,51.59h7.36Zm11.68,0H249l-25.31,51.59h7.36Zm11.68,0h-7.36l-25.31,51.59h7.36Zm11.68,0H272.4l-25.3,51.59h7.35Z"/></g><path class="cls-22" d="M162.52,130.89c-.83,1-1.49,1.3-1.69,2.15s1.51,2,2.07.75c1.53-3.31,2-2.21,2-2.21Z"/><path class="cls-18" d="M170.92,128.24c-2-5-4.66-10.38-5.65-10.92a48.83,48.83,0,0,0,3.5,7.12l-5.23,9.23L162,131.41l3.93-8.3s-6.19-9-2.78-12.48a14.93,14.93,0,0,1,1.26-1.09,9,9,0,0,1,5-1.71s7.82.36,13,15C178,126.11,176,126.33,170.92,128.24Z"/><path class="cls-22" d="M166,107.7c.5,1.31,1.63,2.72,1.56,3.5s-1.52,1.47-1.85,1.16a6.31,6.31,0,0,1-1.58-2.6C164.26,109.62,166,107.7,166,107.7Z"/><path class="cls-22" d="M159.33,106.75c1.56,2.44,5.5,5.43,6.92,2.08a8,8,0,0,0-.14-6.33S155.44,95.57,159.33,106.75Z"/><path class="cls-23" d="M164.71,106.92c-.23-1.27,1.25-2.55,1.53-1.31.32,1.42-.26,1.37-.21,1.89a2.48,2.48,0,0,0,.34,1c3-2.22.82-8.74-2.29-9.53a4.22,4.22,0,0,0-5.71,1.11c-1.88,2.16-.61,3.87-.22,7,4.26-.59,4-2.5,5.32-2.49C164.2,104.64,164.51,107.05,164.71,106.92Z"/><path class="cls-24" d="M168.35,124.9c-4.61-4.85-5.5-14.41-5.5-14.41l.92-.56s2.24,7.06,2.8,7.3c1.22.53,2.63-1,2.63-1a29.32,29.32,0,0,1-1.62-8.18l1.08-.38c1.93,8.85,5,9,8.54,14.18l3.91-3.31s1.9,1.35,2.56,7.64c.84,8,2.1,15.58,2.1,15.58l6.49,19.07-3.78.75-8.15-18.08-4.26-12.69L174.6,144l.7,18.17h-4.08l-2.55-18.4s1-7.61,1.29-15.75C168.94,124.16,169.47,126.07,168.35,124.9Z"/><path class="cls-23" d="M188.48,161.61s-6.33,3.38-6,4.16,10.88-1.79,11.18-2.4-1.44-2.51-1.44-2.51Z"/><path class="cls-23" d="M175.3,162.17h-4.08s-6.32,2.48-6,3.16,10.42.12,10.74-.56S175.3,162.17,175.3,162.17Z"/><path class="cls-25" d="M167.69,103.36c-5.85,1.37-10.21,2.53-10.21,2.53-.47.07-1.27-6.08,3-7.34C166.56,96.79,167.69,103.36,167.69,103.36Z"/><path class="cls-25" d="M157.14,104.86c-3.78,4.93,4.91.62,5.65-.32Z"/><polygon class="cls-26" points="168.95 157.51 158.15 157.51 155.89 143.13 171.21 143.13 168.95 157.51"/><path class="cls-27" d="M171.21,143.49a.37.37,0,0,1-.34-.22c0-.09-3.82-9.11-7.53-9.11s-7.07,9-7.1,9.09a.37.37,0,1,1-.69-.25c.14-.39,3.58-9.58,7.79-9.58s8,9.18,8.21,9.57a.37.37,0,0,1-.2.48A.32.32,0,0,1,171.21,143.49Z"/><path class="cls-22" d="M164.78,131.51c-.83,1-2.15,1.31-2.35,2.16s.84,2.72,2.43,1c2.44-2.71,1.12-1.43,1.12-1.43Z"/><path class="cls-18" d="M169.46,107.83c9,.45,5.92,16.11,4.88,17.68s-9.05,8.76-9.05,8.76L164,132.19s5.21-6.65,6.21-8.47c.83-1.49.69-11,.69-11Z"/><polygon class="cls-28" points="64.5 165.91 53.7 165.91 51.44 151.54 66.76 151.54 64.5 165.91"/><path class="cls-27" d="M52.7,159.9a2.22,2.22,0,0,1-1.92-.92c-1.52-2.13.24-7.34.32-7.56a.37.37,0,0,1,.46-.23.38.38,0,0,1,.23.47c-.48,1.4-1.5,5.38-.42,6.9a1.52,1.52,0,0,0,1.33.61c3.83,0,13.74-7.84,13.83-7.92a.38.38,0,0,1,.52.06.36.36,0,0,1-.06.51C66.58,152.15,56.79,159.9,52.7,159.9Z"/><path class="cls-17" d="M56.6,165.92l-.23,0a1,1,0,0,1-.71-1.19L82.52,56.47a1,1,0,0,1,1.9.47L57.55,165.17A1,1,0,0,1,56.6,165.92Z"/><path class="cls-17" d="M78,165.92a1,1,0,0,1-1-1.22L103.94,56.47a1,1,0,0,1,1.89.47L79,165.17A1,1,0,0,1,78,165.92Z"/><path class="cls-17" d="M82.28,147.34,61,147.27v-2l21.27.07Zm3.42-13.78-21.28-.07v-2l21.27.07Zm3.41-13.78-21.28-.07v-1.95l21.28.07ZM92.52,106l-21.27-.07v-2l21.28.07Zm3.41-13.78-21.27-.07v-2l21.28.07Zm3.41-13.78-21.27-.07v-2l21.27.08Zm3.41-13.78-21.27-.08V62.63l21.27.08Z"/><path class="cls-22" d="M89.06,70.11c1.3-.52,2-1.92,3.37-1.72.75.11.44,2.29-.7,3.48a13.39,13.39,0,0,1-2.4.93Z"/><path class="cls-18" d="M90.08,69.42s-4.7,2.09-7.26,2.09c-1.74,0-3.38-9.32-7.08-9.32-.37,2.27.2,4.29-.44,6.5,1.37,3.52,3.49,7.39,5.39,7.91,2.13.58,9.39-3.8,9.39-3.8Z"/><path class="cls-18" d="M79.21,74.2a1,1,0,0,1-1.28-1.14c1.11-3.5.34-8.92-1.55-10.45s-4.95-1.26-7.27-.67c-2.84,2.82-.46,12-.75,22.09,5.89-.39,5.91,1.49,11.41-.42A23.42,23.42,0,0,1,79.21,74.2Z"/><path class="cls-23" d="M70.89,129.11s7.41,2,7.22,2.88-11.78.77-12.24.21.89-3,.89-3Z"/><path class="cls-23" d="M78.86,114.52l3.81.85s5.22,1.78,4.92,2.5-8.8.55-9.14-.17S78.86,114.52,78.86,114.52Z"/><path class="cls-22" d="M72.39,59.08a5.52,5.52,0,0,1-.34,2.27c.82,1.14,2.3,2.22,2.84,2.11s-.1-1-.1-1.09a9.61,9.61,0,0,1,.51-2.85"/><path class="cls-29" d="M79.92,80.1A110.6,110.6,0,0,0,78.3,67.22,11.68,11.68,0,0,0,75.39,62a1.22,1.22,0,0,0-.57-.27c.16,0,2.7,6.27,2.47,6.31a7.32,7.32,0,0,1-2,.05c0-.15-1-4.57-3.25-6.69a1.65,1.65,0,0,0-.59.2c.63,0,1.92,4.17,2.85,8.16.72,3.1-.1,7.72-.1,7.72L68,78.26s-.08,4.67-.06,7c0,4.53,5.43,22.47,5.43,22.47l-6.64,21.46,4.13-.12,9.19-20.56A100.78,100.78,0,0,0,79.15,91c1.77,1.53,5.36,5,6.27,5.84l-6.56,17.69,3.81.85S93.12,97,93,95.29C89.48,88.84,79.93,80.11,79.92,80.1Z"/><path class="cls-27" d="M83,104.15a.5.5,0,0,1-.17,0,.72.72,0,0,1-.54-.87L96,44.21a.46.46,0,0,0-.09-.38.42.42,0,0,0-.34-.16H88.14a2,2,0,0,1-1.38-.58,1.89,1.89,0,0,1-.56-1.38V39.94a2.72,2.72,0,0,1,2.71-2.68.73.73,0,1,1,0,1.46A1.24,1.24,0,0,0,87.68,40l0,1.77a.48.48,0,0,0,.48.48h7.44a1.9,1.9,0,0,1,1.85,2.34L83.69,103.59A.73.73,0,0,1,83,104.15Z"/><rect class="cls-18" x="89.16" y="34.71" width="16.74" height="6.52" rx="1.57"/><path class="cls-22" d="M78.45,54.31c0,3.26-2,8.45-5.37,6.1a8.93,8.93,0,0,1-3.62-6.13S75.54,41.32,78.45,54.31Z"/><path class="cls-23" d="M72.41,55.12c-1,.52-.58,2.24.11,2.57.1.05.22.09.26.2a.35.35,0,0,1,0,.2c-.13.57,0,1.41-.52,1.68-2.35-1.15-2.73-2.83-3-4.5a4.71,4.71,0,0,1,0-2.08,5.73,5.73,0,0,1,1.09-1.86A3.79,3.79,0,0,1,72,49.9a3.54,3.54,0,0,1,1-.14l3.29-.15a2.45,2.45,0,0,1,.81.06,2.08,2.08,0,0,1,1.05,1,9.75,9.75,0,0,1,1.41,3.6.62.62,0,0,1,0,.38.54.54,0,0,1-.28.21,3.44,3.44,0,0,1-1.7.29c-4.16-.4-3.62,2-3.62,2S73.28,54.67,72.41,55.12Z"/><path class="cls-25" d="M69.14,57.31c6.22-2.66,10.94-4.52,10.94-4.52.48-.25-2.91-6.36-7.64-4.62C65.78,50.61,69.14,57.31,69.14,57.31Z"/><path class="cls-25" d="M79.7,51.63c6.71,1.94-4,3.84-5.33,3.48Z"/><path class="cls-22" d="M85.75,79.74c1.41.09,2.59-.74,3.4-.28s2.82,2.91-1.08,2.82-3.22,0-3.22,0Z"/><path class="cls-18" d="M70.78,61.66c-1.32-.08-3.17.75-3.58,1.81-1.83,4.71.15,14.7.81,16.21,1.45,3.28,17.41,2.55,17.41,2.55l.9-2.91S73.52,78.12,72.05,77C71.47,76.62,72.55,61.78,70.78,61.66Z"/><rect class="cls-12" x="194.82" y="46.21" width="51.12" height="30.62" rx="3.53"/><rect class="cls-6" x="192.35" y="44.57" width="51.12" height="30.62" rx="3.53"/><g class="cls-13"><path class="cls-7" d="M195.71,66.48V53.27a1.61,1.61,0,0,1,1.61-1.62h13.22a1.61,1.61,0,0,1,1.62,1.62V66.48a1.61,1.61,0,0,1-1.62,1.62H197.32A1.61,1.61,0,0,1,195.71,66.48Z"/><path class="cls-7" d="M239.67,55.16h-24.4a.43.43,0,0,1,0-.86h24.4a.43.43,0,1,1,0,.86Zm.43,2.14a.43.43,0,0,0-.43-.43h-24.4a.43.43,0,0,0,0,.86h24.4A.43.43,0,0,0,240.1,57.3Zm0,2.58a.44.44,0,0,0-.43-.44h-24.4a.44.44,0,0,0,0,.87h24.4A.43.43,0,0,0,240.1,59.88Zm0,2.57a.43.43,0,0,0-.43-.43h-24.4a.43.43,0,0,0,0,.86h24.4A.43.43,0,0,0,240.1,62.45Zm0,2.57a.43.43,0,0,0-.43-.43h-24.4a.43.43,0,0,0,0,.86h24.4A.43.43,0,0,0,240.1,65Z"/></g><path class="cls-30" d="M278.6,168.68H9.86a1.46,1.46,0,1,1,0-2.92H278.6a1.46,1.46,0,1,1,0,2.92Z"/></g></g></g></g></svg>