<svg width="73" height="69" viewBox="0 0 73 69" fill="none" xmlns="http://www.w3.org/2000/svg">
<path d="M51.4707 17.4769V17.1094H51.1031C50.1821 17.1094 49.2485 17.3349 48.3254 17.7798L47.7239 18.0701C47.286 18.0182 42.5283 17.1383 36.9277 17.1182C31.4294 17.0984 27.7517 17.8583 25.2762 18.0701L24.6747 17.7798C23.7515 17.3349 22.8181 17.1094 21.897 17.1094H21.5293V17.4769C21.5293 18.5902 21.851 19.72 22.4608 20.7434L22.9411 21.5495C22.4981 23.2341 21.5293 25.8906 21.5293 29.9414C21.5293 30.2163 21.5692 30.4625 21.5789 30.7319C25.9842 30.3058 30.9693 30.0228 36.5 30.0228C41.4807 30.0228 46.4574 30.3194 51.4142 30.8396C51.4265 30.5342 51.4707 30.2538 51.4707 29.9413C51.4707 26.0124 50.504 23.2417 50.0589 21.5495L50.5392 20.7434C51.149 19.7201 51.4707 18.5902 51.4707 17.4769V17.4769Z" fill="#032FF2"/>
<path d="M68.7227 33.6194V-0.000244141H64.4453V5.33546C59.4762 3.40538 48.8307 -0.000244141 36.5 -0.000244141C24.1693 -0.000244141 13.5238 3.40538 8.55469 5.33546V-0.000244141H4.27734V33.4969C7.371 32.7776 11.8644 31.8998 17.3315 31.2055C17.311 30.7777 17.252 30.3819 17.252 29.9412C17.252 27.3765 17.6132 24.7386 18.3297 22.0861C17.6217 20.6282 17.252 19.0515 17.252 17.4767V12.8318H21.8969C23.2482 12.8318 24.5932 13.1054 25.9006 13.6442C29.5264 13.1054 33.0131 12.8359 36.5 12.8359C39.9869 12.8359 43.4736 13.1054 47.0994 13.6442C48.4068 13.1054 49.7519 12.8318 51.1031 12.8318H55.748V17.4767C55.748 19.0515 55.3783 20.6282 54.6703 22.0861C55.3868 24.7386 55.748 27.3765 55.748 29.9412C55.748 30.439 55.6839 30.8883 55.6579 31.3698C59.9893 31.9507 64.4479 32.6707 68.7227 33.6194Z" fill="#032FF2"/>
<path d="M12.9746 59.8827H60.0254C64.7434 59.8827 68.7227 63.7193 68.7227 68.4374H73V38.9638C71.6177 38.7024 56.7725 34.3 36.5 34.3C15.0803 34.3 1.88545 38.6072 0 38.9638V68.4374H4.27734C4.27734 63.7193 8.25656 59.8827 12.9746 59.8827ZM30.084 44.912H34.3613V40.6347H38.6387V44.912H42.916V49.1893H38.6387V53.4667H34.3613V49.1893H30.084V44.912Z" fill="#032FF2"/>
</svg>
