<svg width="69" height="80" viewBox="0 0 69 80" fill="none" xmlns="http://www.w3.org/2000/svg">
<path d="M34.3812 24.0105C38.953 23.2694 42.0584 18.9624 41.3172 14.3905C40.5761 9.81873 36.2691 6.71333 31.6973 7.45446C27.1255 8.19559 24.0201 12.5026 24.7612 17.0744C25.5024 21.6462 29.8094 24.7516 34.3812 24.0105Z" fill="#032FF2"/>
<path d="M63.4418 58.8132L43.7667 55.1881V34.881H43.9083C44.7563 34.881 45.5322 35.58 45.5407 36.3497V48.4505C45.5407 51.7092 49.1911 53.6111 51.8606 51.7985L64.8337 42.9904C66.6828 41.735 67.164 39.2182 65.9086 37.3693C64.6532 35.5204 62.1366 35.0389 60.2875 36.2945L53.6345 40.8117V36.3367C53.6345 36.33 53.6345 36.3232 53.6345 36.3165C53.6082 31.0624 49.245 26.7878 43.9085 26.7878C41.7502 26.7878 24.7281 26.7878 22.1832 26.7878C16.8381 26.7878 12.468 31.0624 12.4415 36.3165V36.3367V40.9265L6.27817 36.854C4.41335 35.6219 1.90319 36.1347 0.670924 37.9995C-0.561181 39.8642 -0.0484009 42.3747 1.81642 43.6068L14.2574 51.8272C16.93 53.5929 20.5351 51.6874 20.5351 48.4508V36.3501C20.5436 35.5805 21.327 34.8814 22.1832 34.8814H22.2814V55.0596C20.5197 55.5062 6.87475 58.9656 5.24077 59.3798C3.15056 59.9097 1.66004 61.7547 1.58122 63.9096C1.50256 66.0646 2.85429 68.0134 4.90027 68.6945L35.6819 78.9416C38.2258 79.7883 40.9759 78.4132 41.8232 75.8679C42.6703 73.3231 41.2943 70.5735 38.7495 69.7265L23.7048 64.7182C23.7588 64.7003 35.1093 63.6227 35.1093 63.6227L31.3412 64.7613L39.4984 67.4769C41.6821 68.2039 43.2857 69.8729 44.0121 71.8815L63.4254 68.3679C65.7333 67.9503 67.4127 65.9429 67.4168 63.5976C67.421 61.2518 65.7482 59.2388 63.4418 58.8132V58.8132Z" fill="#032FF2"/>
<path d="M68.7793 11.9865L64.7356 8.63411C64.1368 8.84331 63.501 8.95297 62.848 8.95297C61.3373 8.95297 59.9161 8.36994 58.8413 7.31026C58.6992 7.17023 58.5762 7.01057 58.4952 6.82832C58.2193 6.20869 58.3674 5.52301 58.812 5.0783L59.553 4.33732C58.9788 3.8613 58.7282 3.11799 58.8322 2.37951C58.8589 2.19025 58.8601 1.99274 58.8319 1.7904C58.7012 0.849109 57.9196 0.101901 56.9738 0.0101553C55.8845 -0.0956095 54.9473 0.636956 54.7275 1.63837L53.5261 2.31642C53.3647 2.40754 53.4057 2.65054 53.5879 2.68356L54.8479 2.91269C54.9434 3.13419 55.0761 3.33544 55.2381 3.50912C56.0126 4.33904 56.407 5.45432 56.407 6.58954C56.407 10.1637 59.3044 13.0611 62.8786 13.0611H68.3914C68.9604 13.0613 69.2171 12.3494 68.7793 11.9865V11.9865Z" fill="#032FF2"/>
<path d="M62.849 7.39508C63.9112 7.39508 64.9732 6.98978 65.7835 6.17949L68.1125 3.85048C67.3022 3.04019 66.24 2.63489 65.178 2.63489C64.1159 2.63489 63.0539 3.04019 62.2436 3.85048L59.9146 6.17949C60.7248 6.98978 61.7869 7.39508 62.849 7.39508Z" fill="#032FF2"/>
</svg>
