<svg width="271" height="201" viewBox="0 0 271 201" fill="none" xmlns="http://www.w3.org/2000/svg">
<path d="M135.88 200.507C210.505 200.507 271 196.975 271 192.618C271 188.261 210.505 184.729 135.88 184.729C61.2559 184.729 0.760742 188.261 0.760742 192.618C0.760742 196.975 61.2559 200.507 135.88 200.507Z" fill="#032FF2"/>
<path d="M93.6417 60.4883C92.9232 61.2427 91.8403 61.8997 90.4392 62.4591C90.4392 60.7757 89.7668 58.6047 89.7668 58.6047C89.7668 58.6047 89.8643 61.4018 89.074 62.9415C88.0424 63.27 86.8876 63.5574 85.625 63.7986C85.507 63.2289 85.3376 62.7773 85.3376 62.7773C85.3376 62.7773 85.3017 63.2905 85.1067 63.8961C81.2215 64.6044 75.8685 65.7592 71.0235 64.9021C68.0776 61.1041 71.1621 58.3019 71.4649 56.0539C71.8652 53.1182 69.1092 52.4305 69.4428 50.0491C69.7712 47.6728 72.4401 49.1201 73.7796 46.4257C75.5554 42.8433 79.456 40.7031 82.8638 41.3754C87.3803 42.2685 85.8201 49.0278 89.3049 51.2039C92.7949 53.38 94.5142 57.1368 93.6417 60.4883Z" fill="#263238"/>
<path d="M93.5546 61.3761C93.5392 61.3761 93.529 61.3761 93.5136 61.371C93.4468 61.3505 93.4109 61.2786 93.4366 61.2119C94.3912 58.4507 94.8377 54.8991 89.7926 51.907C87.9296 50.7984 87.4061 48.8019 86.9031 46.8721C86.2205 44.2649 85.5841 41.7963 81.6476 41.8527C81.586 41.8476 81.5193 41.7962 81.5193 41.7295C81.5193 41.6628 81.5757 41.6012 81.6425 41.6012C85.7637 41.5448 86.4669 44.2187 87.1443 46.8054C87.637 48.689 88.1451 50.6341 89.9209 51.6863C95.1764 54.8067 94.5811 58.6611 93.6727 61.2889C93.6521 61.3453 93.606 61.3761 93.5546 61.3761Z" fill="#263238"/>
<path d="M87.9592 94.5256C87.9592 94.5256 87.7591 119.623 86.1834 140.239C82.7807 160.64 79.7988 188.653 79.7988 188.653H76.5449C76.5449 188.653 73.2653 151.484 76.8836 139.526C74.7383 124.185 75.4055 94.9414 75.4055 94.9414L87.9592 94.5256Z" fill="#B55B52"/>
<path d="M92.2812 72.4002C92.2812 72.6363 92.2863 72.9853 92.2966 73.2829L92.3377 74.2222C92.3736 74.8534 92.4301 75.4796 92.5019 76.1057C92.6507 77.3529 92.8406 78.5949 93.1435 79.7805C93.4463 80.966 93.8363 82.1054 94.3342 83.1422C94.8371 84.1738 95.4581 85.0924 96.2023 85.8212L96.3922 86.0163C96.3101 85.9188 96.1099 85.8366 96.0689 85.8418C96.0124 85.8418 96.0843 85.8726 96.228 85.8674C96.5154 85.8623 96.9927 85.734 97.4649 85.5544C98.4298 85.1746 99.4716 84.6151 100.478 83.9993C101.494 83.3885 102.505 82.711 103.506 82.013C104.512 81.3253 105.507 80.5811 106.477 79.8626L106.498 79.8472C107.021 79.4571 107.765 79.57 108.156 80.0935C108.489 80.5452 108.453 81.1611 108.104 81.5717C107.252 82.5622 106.369 83.4604 105.451 84.3688C104.527 85.2618 103.562 86.1189 102.53 86.9401C101.489 87.7459 100.411 88.5362 99.1021 89.1932C98.4349 89.5165 97.7266 89.8296 96.772 89.9938C96.2947 90.0708 95.7353 90.1067 95.0681 89.9579C94.4111 89.8296 93.6567 89.4139 93.1589 88.8493L93.3487 89.0443C92.0657 87.9563 91.0649 86.6373 90.3104 85.2567C89.5508 83.8812 89.0017 82.4493 88.6013 81.0071C88.1959 79.5649 87.9085 78.1227 87.7288 76.6703C87.6416 75.9466 87.58 75.2178 87.5441 74.489C87.5235 74.1246 87.5081 73.7602 87.503 73.3907C87.503 73.0109 87.4979 72.6773 87.5184 72.2359C87.5646 70.9221 88.6732 69.8956 89.9819 69.9469C91.2701 69.9931 92.2812 71.0555 92.2761 72.3386L92.2812 72.4002Z" fill="#B55B52"/>
<path d="M111.46 79.8521L111.332 77.871C111.286 77.209 110.686 76.7317 110.029 76.8394C109.038 77.0037 108.135 77.4912 107.452 78.2252L105.297 80.5347L104.906 82.6903C106.646 83.5423 109.074 81.7973 109.074 81.7973L110.839 80.9299C111.245 80.7298 111.491 80.3038 111.46 79.8521Z" fill="#B55B52"/>
<path d="M90.7206 68.7718C94.1233 71.5073 93.6049 74.5303 94.3543 76.7577C92.7838 79.4265 86.548 80.6839 86.548 80.6839C86.548 80.6839 87.0509 65.8207 90.7206 68.7718Z" fill="#407BFF"/>
<path d="M92.2293 71.764C92.7579 78.7748 88.4878 84.0714 88.1337 91.4671L70.4528 91.0411C70.9558 83.8404 70.7505 84.559 68.2202 70.6452C67.9277 69.0234 69.0619 67.4888 70.6992 67.304C72.013 67.1501 73.6451 67.0115 75.349 66.9756C78.5362 66.914 81.1435 66.8832 83.9354 67.2168C85.778 67.4375 87.7436 67.7916 89.2474 68.0893C90.9924 68.4383 92.0959 69.9831 92.2293 71.764Z" fill="#407BFF"/>
<path d="M84.4294 74.2582C84.5012 74.9819 84.1368 75.567 83.6133 75.567C83.0898 75.567 82.6074 74.9819 82.5355 74.2582C82.4637 73.5346 82.8281 72.9495 83.3516 72.9495C83.8751 72.9495 84.3575 73.5346 84.4294 74.2582Z" fill="white"/>
<path d="M83.4805 70.9888C84.6712 71.2916 85.944 72.1077 86.4521 74.1914C90.0037 68.8743 83.9321 67.2166 83.9321 67.2166L83.4805 70.9888Z" fill="white"/>
<path d="M81.3918 71.287C79.7494 71.0714 78.0096 72.0825 77.64 74.1919C73.7446 69.1211 75.351 66.9758 75.351 66.9758L81.3918 71.287Z" fill="white"/>
<path d="M76.4738 57.3315C76.9357 60.1081 77.3361 65.184 75.3499 66.9752C75.3499 66.9752 78.8501 70.768 82.8379 71.7688C84.8652 69.8185 83.9363 67.2164 83.9363 67.2164C80.8774 66.3953 81.0211 64.1114 81.6164 61.9814L76.4738 57.3315Z" fill="#B55B52"/>
<path opacity="0.2" d="M78.5681 59.2256L81.6116 61.9765C81.4679 62.4795 81.355 62.9927 81.3037 63.4906C80.1335 63.2853 78.5527 61.9509 78.4603 60.714C78.4193 60.1032 78.4603 59.513 78.5681 59.2256Z" fill="black"/>
<path d="M73.2152 54.2424C75.0218 58.4971 75.6992 60.3344 78.6863 61.7869C83.1771 63.9733 88.0066 60.822 87.5087 56.1157C87.0571 51.8763 84.1779 45.6354 79.3073 45.4096C74.5085 45.194 71.4086 49.9876 73.2152 54.2424Z" fill="#B55B52"/>
<path d="M72.6659 50.8499C78.45 50.8037 86.5181 47.9142 84.1521 44.8913C82.9306 38.8762 72.748 45.1376 72.6659 50.8499Z" fill="#263238"/>
<path d="M73.5384 49.8538C77.4082 52.0197 76.3817 56.2179 73.9336 57.0391C71.3366 53.9289 70.6899 49.3098 73.5384 49.8538Z" fill="#263238"/>
<path d="M80.6258 55.9668C80.6258 55.9668 81.9397 55.7307 85.5785 55.9309C85.0858 57.0446 84.239 57.9325 82.376 57.8093C80.5129 57.6912 80.6258 55.9668 80.6258 55.9668Z" fill="#263238"/>
<path d="M83.12 56.6182C82.2218 56.5566 81.5597 56.7363 81.0568 57.0545C81.3082 57.27 81.6829 57.4291 82.2013 57.4599C83.0994 57.5164 83.7564 57.347 84.2593 57.0237C84.0027 56.8081 83.6383 56.649 83.12 56.6182Z" fill="#A02724"/>
<path d="M80.7955 55.9405C80.7955 56.156 80.8982 56.2844 81.2318 56.4178C81.9811 56.5461 83.6388 56.5564 84.1675 56.4948C84.5062 56.4691 85.1991 56.2895 85.4249 55.92C82.6226 55.7711 81.242 55.8892 80.7955 55.9405Z" fill="white"/>
<path d="M80.1853 52.9389C80.3085 53.293 80.601 53.5137 80.832 53.4316C81.0629 53.3495 81.1502 52.9953 81.0219 52.6412C80.8987 52.2871 80.6062 52.0664 80.3752 52.1485C80.1442 52.2306 80.057 52.5847 80.1853 52.9389Z" fill="#263238"/>
<path d="M84.7214 51.3476C84.8445 51.7017 85.1371 51.9224 85.368 51.8403C85.599 51.7582 85.6862 51.404 85.5579 51.0499C85.4348 50.6958 85.1422 50.4751 84.9113 50.5572C84.6803 50.6393 84.5982 50.9934 84.7214 51.3476Z" fill="#263238"/>
<path d="M84.8196 50.6139L85.5843 50.0698C85.5843 50.0647 85.379 50.8859 84.8196 50.6139Z" fill="#263238"/>
<path d="M83.4283 52.2249C83.4283 52.2249 84.5677 53.5387 85.4915 54.0366C85.1785 54.6371 84.3111 54.7192 84.3111 54.7192L83.4283 52.2249Z" fill="#A02724"/>
<path d="M73.1227 58.3582C73.7643 59.0665 74.6778 59.4155 75.4631 59.4411C76.6486 59.4822 76.9617 58.3531 76.3972 57.3831C75.8891 56.5106 74.6624 55.4328 73.5898 55.8588C72.5274 56.2745 72.3888 57.5473 73.1227 58.3582Z" fill="#B55B52"/>
<path d="M78.0899 52.3072C78.1463 52.2918 78.1976 52.2559 78.2284 52.1994C78.7057 51.3372 79.5115 51.2705 79.5218 51.2705C79.6398 51.2602 79.7322 51.1575 79.7271 51.0344C79.7168 50.9112 79.6142 50.8239 79.491 50.8291C79.4499 50.8342 78.4337 50.9163 77.8435 51.9838C77.7871 52.0916 77.823 52.2251 77.9308 52.2815C77.9769 52.3175 78.0334 52.3226 78.0899 52.3072Z" fill="#263238"/>
<path d="M85.1112 49.6692C85.1574 49.6436 85.1984 49.5974 85.2138 49.5409C85.2497 49.4229 85.183 49.2997 85.065 49.2638C83.8948 48.9148 83.1096 49.5614 83.0788 49.5871C82.9864 49.6641 82.9761 49.8027 83.0531 49.9002C83.1301 49.9926 83.2687 50.0028 83.3662 49.9258C83.397 49.9002 84.0129 49.4075 84.9418 49.6846C84.9983 49.7051 85.0598 49.7 85.1112 49.6692Z" fill="#263238"/>
<path d="M80.2823 52.2047L81.0471 51.6607C81.0419 51.6555 80.8418 52.4767 80.2823 52.2047Z" fill="#263238"/>
<path d="M83.2539 95.1311C83.2539 95.1311 79.9589 120.803 74.6418 141.066C67.3847 156.509 58.8394 168.436 50.0785 181.093L46.9734 179.445C52.9834 165.809 59.4142 149.647 65.5011 139.013C69.9047 100.31 69.4171 95.1362 69.4171 95.1362L83.2539 95.1311Z" fill="#B55B52"/>
<path d="M52.2132 191.342C52.0182 190.515 50.3553 188.339 50.3553 188.339C50.3553 188.339 49.8524 185.388 51.3459 179.948C51.3818 179.819 51.3459 179.681 51.2432 179.589L48.2254 176.858C48.056 176.704 47.784 176.725 47.6198 176.894C47.3632 177.161 46.5317 178.639 46.2341 179.096C45.9415 179.542 45.495 180.199 45.2179 180.641C44.1914 182.262 41.9999 185.973 41.9999 185.973L42.3951 186.184C42.3951 186.184 43.868 183.972 44.7611 183.022C45.6541 182.073 45.613 183.746 45.264 185.178C44.915 186.61 45.8389 188.842 48.364 190.284C51.3253 191.978 52.4185 192.209 52.2132 191.342Z" fill="#263238"/>
<path d="M88.1351 91.4675C91.8817 103.318 89.0384 115.343 87.2575 138.049C79.0612 139.285 71.6911 138.049 63.2382 135.477C68.6682 109.415 61.9705 102.918 70.4542 91.0415L88.1351 91.4675Z" fill="#407BFF"/>
<path d="M70.1463 89.748C70.0334 90.2151 69.9718 90.7796 69.941 91.144C69.9256 91.3544 70.0385 91.5495 70.1925 91.57C72.0966 91.8625 83.244 93.4895 88.2224 92.2526C88.3507 92.2218 88.4379 92.0678 88.4328 91.8882C88.4277 91.4622 88.4328 90.8002 88.4379 90.3793C88.4431 90.1637 88.3096 89.9841 88.1505 89.9892C86.4107 89.9995 77.2289 90.0303 70.3978 89.5119C70.29 89.5068 70.1822 89.594 70.1463 89.748Z" fill="#263238"/>
<path d="M79.183 89.5624C80.035 89.3314 85.0698 89.4854 85.5266 89.6958C85.9834 89.9063 85.7575 92.6777 85.3572 92.8574C84.5463 93.2166 79.9683 93.1242 79.1368 92.9395C78.3105 92.7598 78.5979 89.7215 79.183 89.5624Z" fill="white"/>
<path opacity="0.2" d="M79.2352 120.157L79.9281 108.712L83.88 103.277L79.2352 120.157Z" fill="black"/>
<path d="M71.5108 73.8169C70.8282 74.6535 70.084 75.5876 69.4065 76.5063C68.7291 77.4352 68.0465 78.3591 67.4255 79.3085C66.1988 81.2024 65.0543 83.1835 64.4641 85.0773C64.3974 85.3082 64.3307 85.5392 64.2896 85.765L64.2588 85.9087C64.2588 85.8985 64.2537 85.8933 64.2537 85.8933C64.2434 85.8933 64.2434 85.919 64.2434 85.9549C64.2434 86.1191 64.3615 86.5143 64.5719 86.9147C65.003 87.7307 65.6753 88.6237 66.399 89.4706C67.8617 91.1745 69.5759 92.8425 71.2798 94.4284L71.3106 94.4592C71.7879 94.9057 71.8187 95.655 71.3722 96.1323C70.9924 96.5429 70.3868 96.6199 69.9198 96.3582C67.7385 95.1213 65.7113 93.7458 63.7918 92.0367C62.8423 91.1694 61.9082 90.2507 61.0819 89.0138C60.6764 88.3825 60.2658 87.6794 60.0554 86.658C60.0092 86.3963 59.9733 86.1243 59.9733 85.8215C59.9682 85.6726 59.9836 85.5135 59.999 85.3596C60.0144 85.2159 60.0246 85.1594 60.04 85.0568C60.0862 84.6821 60.1632 84.3331 60.235 83.979C60.5584 82.5932 61.0511 81.3461 61.6002 80.1605C62.1494 78.9749 62.7858 77.8612 63.4479 76.7834C64.1151 75.7056 64.8028 74.6586 65.5521 73.6527C66.3117 72.6416 67.0457 71.6819 67.9233 70.6913C68.7958 69.7059 70.2996 69.6187 71.285 70.4912C72.2396 71.338 72.3525 72.7853 71.5519 73.7707L71.5108 73.8169Z" fill="#B55B52"/>
<path d="M70.9102 67.2735C67.5588 67.4736 66.4656 69.3777 65.3057 71.4255C66.3475 74.3458 70.5971 79.0368 70.5971 79.0368C70.5971 79.0368 76.9971 66.9142 70.9102 67.2735Z" fill="#407BFF"/>
<path d="M107.597 77.1475C101.895 73.3855 94.309 75.5051 90.665 81.8846C84.963 78.1226 77.3774 80.2423 73.7334 86.6218C70.0843 92.9961 71.7524 101.218 77.4595 104.975L98.1172 118.596L111.328 95.5058C114.972 89.1263 113.304 80.9095 107.597 77.1475Z" fill="#407BFF"/>
<path opacity="0.9" d="M107.597 77.1475C101.895 73.3855 94.309 75.5051 90.665 81.8846C84.963 78.1226 77.3774 80.2423 73.7334 86.6218C70.0843 92.9961 71.7524 101.218 77.4595 104.975L98.1172 118.596L111.328 95.5058C114.972 89.1263 113.304 80.9095 107.597 77.1475Z" fill="white"/>
<path opacity="0.2" d="M78.7123 102.789C76.4746 101.316 74.9298 98.9547 74.3601 96.1473C73.7904 93.3399 74.2626 90.4145 75.6945 87.915C77.1213 85.4156 79.3385 83.6398 81.9303 82.9161C84.5221 82.1925 87.1807 82.603 89.4132 84.076L91.3738 85.3694L92.6261 83.1779C94.0529 80.6784 96.27 78.9026 98.8619 78.179C101.454 77.4553 104.112 77.8659 106.345 79.3389C110.959 82.3823 112.314 89.0544 109.363 94.2124L97.4094 115.111L78.7123 102.789Z" fill="#407BFF"/>
<path d="M98.4836 105.247L92.6584 106.874L88.9066 88.3818L94.7318 86.7549L98.4836 105.247Z" fill="#407BFF"/>
<path d="M85.8063 102.357L84.5232 96.0446L101.583 91.2715L102.861 97.5843L85.8063 102.357Z" fill="#407BFF"/>
<path d="M69.8329 93.6428L74.257 93.7506L71.9321 97.3022C71.9321 97.3022 69.294 96.6504 68.6166 94.7873L69.8329 93.6428Z" fill="#B55B52"/>
<path d="M76.0897 96.3171L75.2531 98.1904C75.0427 98.6626 74.5141 98.8217 74.0522 98.5497L71.9325 97.3077L74.2574 93.7561L75.8279 95.2034C76.141 95.4857 76.2488 95.9579 76.0897 96.3171Z" fill="#B55B52"/>
<path d="M87.3542 195.71C86.7332 195.073 84.3672 194.237 84.3672 194.237C84.3672 194.237 82.1552 191.265 80.3999 185.763C80.3589 185.63 80.2511 185.527 80.1176 185.496L76.0785 184.532C75.8527 184.475 75.6371 184.624 75.5909 184.85C75.5242 185.204 75.5807 187.226 75.5807 187.775C75.5807 188.304 75.5704 189.099 75.5807 189.618C75.6114 191.532 75.827 195.838 75.827 195.838H76.2735C76.2735 195.838 76.2889 193.19 76.5096 191.932C76.7303 190.67 77.6233 192.163 78.1212 193.59C78.619 195.017 80.6257 196.541 83.5409 196.608C86.9642 196.685 88.006 196.372 87.3542 195.71Z" fill="#263238"/>
<path d="M167.726 184.403L175.579 184.475L175.281 193.744L168.722 193.688L167.726 184.403Z" fill="#FFC3BD"/>
<path opacity="0.2" d="M167.73 184.403L175.582 184.48L175.413 189.669L168.284 189.608L167.73 184.403Z" fill="black"/>
<path d="M176.06 147.502C178.801 135.312 183.338 122.446 178.56 111.503L156.742 113.408C156.742 113.408 158.898 139.351 159.483 150.314C160.088 161.713 167.484 188.011 167.484 188.011L176.471 188.032C176.471 188.037 177.872 160.122 176.06 147.502Z" fill="#263238"/>
<path d="M176.539 196.607H174.465L173.962 195.914L173.105 196.612H161.532C161.275 195.586 161.845 194.251 161.845 194.251C161.845 194.251 165.863 193.599 167.418 192.532C167.67 192.357 167.993 192.28 168.332 192.347C169.733 192.619 173.439 193.22 175.445 192.434C175.635 192.362 175.877 192.522 175.892 192.742C176.01 194.533 176.539 196.607 176.539 196.607Z" fill="#263238"/>
<path d="M201.584 179.024L209.149 176.905L212.064 185.707L205.746 187.487L201.584 179.024Z" fill="#FFC3BD"/>
<path opacity="0.2" d="M201.587 179.029L209.152 176.905L210.785 181.837L203.917 183.766L201.587 179.029Z" fill="black"/>
<path d="M200.603 145.279C200.162 133.382 199.418 115.588 194.958 110.502L170.543 112.16C170.543 112.16 179.664 137.473 183.184 148.168C186.844 159.29 202.636 182.478 202.636 182.478L210.796 180.133C210.796 180.133 205.007 158.505 200.603 145.279Z" fill="#263238"/>
<path d="M134.417 95.1928L135.095 98.4313C134.551 101.865 130.26 100.407 130.26 100.407L127.909 100.541C127.114 100.587 126.385 99.9556 126.19 99.0574L125.702 96.7992C125.477 95.7676 126.026 94.7565 126.919 94.5564L128.92 94.1098C129.505 93.9815 130.111 93.9969 130.686 94.156L134.417 95.1928Z" fill="#FFC3BD"/>
<path d="M122.11 101.716C120.642 101.716 119.2 101.316 117.917 100.53C116.075 99.4063 114.781 97.6305 114.278 95.5365C114.181 95.1208 114.432 94.7051 114.848 94.6075C115.259 94.51 115.679 94.7615 115.777 95.1772C116.188 96.876 117.235 98.308 118.723 99.2164C120.211 100.125 121.967 100.402 123.665 99.9914C125.364 99.5808 126.796 98.5338 127.704 97.0454C128.613 95.557 128.89 93.8018 128.479 92.103L107.196 4.07822C107.098 3.6625 107.35 3.24678 107.765 3.14926C108.176 3.05175 108.597 3.30324 108.694 3.71895L129.973 91.7437C130.481 93.8377 130.142 96.0087 129.018 97.8512C127.894 99.6937 126.119 100.987 124.025 101.49C123.388 101.639 122.747 101.716 122.11 101.716Z" fill="#263238"/>
<path d="M52.8899 43.4884C52.6486 41.3636 56.3953 38.7359 61.466 37.5092C66.7164 36.2415 71.3765 36.9549 71.8949 39.1054C71.3765 36.9549 76.6321 33.8447 83.6326 32.1511C90.6228 30.4625 96.72 30.8269 97.2384 32.9774C96.72 30.8269 103.803 27.2754 113.056 25.0377C122.31 22.8 130.25 22.723 130.768 24.8734C130.25 22.723 135.495 19.6128 142.49 17.9242C149.48 16.2357 155.578 16.6001 156.096 18.7505C155.578 16.6001 159.406 13.8338 164.647 12.5661C169.717 11.3394 174.259 11.9656 175.019 13.9672C171.606 1.02857 141.828 -2.8874 108.268 5.22683C74.7023 13.3411 50.0158 30.4215 52.8899 43.4884Z" fill="#407BFF"/>
<path opacity="0.2" d="M71.8995 39.1062C71.3811 36.9558 76.6366 33.8456 83.6371 32.1519C90.6274 30.4634 96.7246 30.8278 97.243 32.9782C96.7246 30.8278 103.807 27.2762 113.061 25.0385C122.314 22.8008 130.254 22.7238 130.773 24.8742C130.254 22.7238 135.499 19.6136 142.495 17.9251C149.485 16.2365 155.582 16.6009 156.101 18.7514C152.934 5.65877 131.527 -0.39226 108.272 5.22765C85.0126 10.8476 68.7328 26.0136 71.8995 39.1062Z" fill="black"/>
<path d="M97.239 32.9787C96.7206 30.8282 103.803 27.2766 113.057 25.0389C122.31 22.8012 130.25 22.7243 130.769 24.8747C127.602 11.7821 117.522 2.99042 108.268 5.22812C99.0148 7.46582 94.0723 19.8861 97.239 32.9787Z" fill="#407BFF"/>
<path d="M135.191 95.5672C133.795 93.0934 131.245 93.2371 129.238 92.729C128.899 92.6417 128.36 93.4116 128.776 93.894C129.505 94.7409 130.033 94.9564 130.731 95.0693C130.829 95.9521 131.958 98.2616 134.452 98.0102C135.32 97.0453 135.191 95.5672 135.191 95.5672Z" fill="#FFC3BD"/>
<path d="M170.897 75.2379C169.83 76.8444 168.731 78.3892 167.638 79.9545C166.535 81.5148 165.426 83.0647 164.292 84.6045C162.028 87.689 159.719 90.7376 157.281 93.7811L156.244 95.0795L155.284 95.4953C154.787 95.7108 154.263 95.9418 153.781 96.1368L152.38 96.65C151.476 96.9529 150.573 97.2403 149.7 97.4918C147.945 98.0101 146.205 98.4464 144.481 98.8518C142.751 99.2521 141.027 99.6217 139.297 99.9553C137.557 100.273 135.853 100.587 134.073 100.843L131.973 92.7854L141.437 89.0799C143.003 88.4742 144.537 87.8276 146.031 87.1963C146.78 86.8781 147.488 86.5496 148.192 86.2263L149.172 85.7387L150.003 85.2768L148.002 86.991C150.029 83.9064 152.046 80.7347 154.084 77.5783L157.142 72.836C158.174 71.2655 159.195 69.6693 160.232 68.1245L170.897 75.2379Z" fill="#407BFF"/>
<g opacity="0.6">
<path opacity="0.6" d="M170.897 75.2379C169.83 76.8444 168.731 78.3892 167.638 79.9545C166.535 81.5148 165.426 83.0647 164.292 84.6045C162.028 87.689 159.719 90.7376 157.281 93.7811L156.244 95.0795L155.284 95.4953C154.787 95.7108 154.263 95.9418 153.781 96.1368L152.38 96.65C151.476 96.9529 150.573 97.2403 149.7 97.4918C147.945 98.0101 146.205 98.4464 144.481 98.8518C142.751 99.2521 141.027 99.6217 139.297 99.9553C137.557 100.273 135.853 100.587 134.073 100.843L131.973 92.7854L141.437 89.0799C143.003 88.4742 144.537 87.8276 146.031 87.1963C146.78 86.8781 147.488 86.5496 148.192 86.2263L149.172 85.7387L150.003 85.2768L148.002 86.991C150.029 83.9064 152.046 80.7347 154.084 77.5783L157.142 72.836C158.174 71.2655 159.195 69.6693 160.232 68.1245L170.897 75.2379Z" fill="white"/>
</g>
<path d="M165.731 63.8396C172.115 62.5822 180.737 61.8842 187.502 62.2178C191.726 62.4231 194.846 66.1954 194.4 70.3987C192.562 87.7255 196.083 108.091 196.042 111.488C196.042 111.488 164.222 124.586 155.707 114.665C151.596 94.0126 157.508 76.0289 160.275 68.51C161.152 66.1081 163.221 64.3323 165.731 63.8396Z" fill="#407BFF"/>
<path d="M194.666 65.3222C193.295 63.5669 190.857 61.2573 182.687 61.6782C175.594 67.8883 170.651 76.4439 170.651 76.4439C170.651 76.4439 166.14 70.0696 170.42 62.8432C165.714 62.9715 162.635 64.424 161.526 65.1938C160.412 65.9637 154.982 76.3156 153.786 92.7391C152.591 109.163 155.239 139.869 156.265 147.742C171.575 153.901 196.898 146.973 202.287 141.584C201.604 129.097 196.903 110.364 196.046 102.408C195.179 94.4482 196.888 68.7865 194.666 65.3222Z" fill="#407BFF"/>
<path opacity="0.7" d="M194.666 65.3222C193.295 63.5669 190.857 61.2573 182.687 61.6782C175.594 67.8883 170.651 76.4439 170.651 76.4439C170.651 76.4439 166.14 70.0696 170.42 62.8432C165.714 62.9715 162.635 64.424 161.526 65.1938C160.412 65.9637 154.982 76.3156 153.786 92.7391C152.591 109.163 155.239 139.869 156.265 147.742C171.575 153.901 196.898 146.973 202.287 141.584C201.604 129.097 196.903 110.364 196.046 102.408C195.179 94.4482 196.888 68.7865 194.666 65.3222Z" fill="white"/>
<path d="M169.266 64.7842C169.517 64.0759 170.344 62.9519 171.272 62.5105C171.539 61.6432 171.498 60.7091 171.088 59.6467L181.491 55.2688C180.947 58.8871 180.521 61.7458 181.994 63.3471C180.003 64.8252 176.354 67.4786 172.14 67.7404C167.916 67.997 168.717 66.329 169.266 64.7842Z" fill="#FFC3BD"/>
<path opacity="0.2" d="M171.2 59.9641L179.196 58.7632C176.923 61.6784 173.207 63.0333 171.37 62.0941C171.498 61.4371 171.452 60.734 171.2 59.9641Z" fill="black"/>
<path d="M171.882 67.7446L173.489 66.1382L175.932 67.0979C175.932 67.1031 174.567 68.6325 171.882 67.7446Z" fill="#407BFF"/>
<path opacity="0.3" d="M171.882 67.7446L173.489 66.1382L175.932 67.0979C175.932 67.1031 174.567 68.6325 171.882 67.7446Z" fill="black"/>
<path d="M170.908 53.6512C168.809 53.3227 167.813 50.2844 169.204 48.601C170.59 46.9175 167.316 46.2709 168.398 44.6439C169.486 43.017 172.586 41.4003 174.48 42.8887C176.369 44.377 172.073 48.8011 173.007 51.4186C171.74 52.8916 170.908 53.6512 170.908 53.6512Z" fill="#263238"/>
<path d="M183.083 49.6125C182.282 54.7089 181.63 58.1476 178.453 60.0312C172.14 63.7726 168.856 60.647 168.117 55.4018C167.449 50.68 168.871 43.1458 174.08 41.6215C179.218 40.128 183.883 44.5212 183.083 49.6125Z" fill="#FFC3BD"/>
<path d="M180.809 55.0112C178.833 54.2311 178.52 51.0542 180.239 49.7147C181.958 48.3751 178.899 47.0304 180.311 45.6806C181.722 44.3308 185.874 43.0016 186.623 45.2855C187.809 48.8781 182.99 50.5358 183.334 53.2919C181.784 54.4467 180.809 55.0112 180.809 55.0112Z" fill="#263238"/>
<path d="M181.312 45.4602C176.37 47.1641 177.545 43.6947 174.799 44.1822C171.966 44.6801 169.307 45.1317 168.743 42.6425C168.286 40.6307 169.621 38.7933 172.269 38.9729C170.899 39.8865 171.268 40.7949 172.592 40.3432C173.916 39.8865 177.35 36.5864 179.131 39.2141C180.912 41.8419 183.976 39.8197 185.408 41.5391C186.84 43.243 184.545 46.1171 181.312 45.4602Z" fill="#263238"/>
<path d="M169.296 59.1224C169.727 58.3063 170.646 58.1523 170.646 58.1523C170.646 58.1523 171.595 58.4295 172.509 59.2712C172.765 60.5132 169.958 61.7655 169.527 61.9349C169.388 60.8314 169.296 59.1224 169.296 59.1224Z" fill="#263238"/>
<path opacity="0.2" d="M176.261 49.9716C176.261 49.9716 177.287 49.5918 178.072 50.0537C177.077 50.2025 176.261 49.9716 176.261 49.9716Z" fill="black"/>
<path opacity="0.2" d="M176.266 50.4029C176.266 50.4029 177.257 50.2592 177.837 50.8853C176.934 50.8135 176.266 50.4029 176.266 50.4029Z" fill="black"/>
<path opacity="0.2" d="M169.193 49.376C169.193 49.376 168.772 48.8781 168.459 49.1501C168.865 49.4427 169.193 49.376 169.193 49.376Z" fill="black"/>
<path opacity="0.2" d="M169.117 49.7765C169.117 49.7765 168.773 49.3249 168.552 49.756C168.876 49.9664 169.117 49.7765 169.117 49.7765Z" fill="black"/>
<path opacity="0.2" d="M170.735 45.4292C170.735 45.4292 173.208 44.9519 175.277 45.2239C172.762 45.46 170.735 45.4292 170.735 45.4292Z" fill="black"/>
<path opacity="0.2" d="M170.149 46.0915C170.149 46.0915 173.628 45.9735 175.363 46.6561C172.268 46.5483 170.149 46.0915 170.149 46.0915Z" fill="black"/>
<path d="M185.038 54.8881C184.278 56.0481 183.052 56.7461 181.928 56.9565C180.239 57.2696 179.531 55.7247 180.111 54.2055C180.634 52.8403 182.148 51.0338 183.791 51.4033C185.407 51.7626 185.905 53.5589 185.038 54.8881Z" fill="#FFC3BD"/>
<path d="M174.876 50.1152C174.835 50.5309 174.584 50.8491 174.312 50.8183C174.04 50.7875 173.85 50.4283 173.891 50.0126C173.932 49.5968 174.183 49.2786 174.455 49.3094C174.727 49.3351 174.917 49.6944 174.876 50.1152Z" fill="#263238"/>
<path d="M170.446 49.7558C170.405 50.1716 170.154 50.4898 169.882 50.459C169.61 50.4333 169.42 50.0689 169.461 49.6532C169.502 49.2375 169.753 48.9193 170.025 48.9501C170.297 48.9757 170.487 49.335 170.446 49.7558Z" fill="#263238"/>
<path d="M174.342 54.7402C174.999 55.2226 176.867 54.9095 176.995 54.2321C178.196 55.0532 177.216 56.3312 175.471 56.7212C173.726 57.1113 171.426 56.3928 170.923 55.7564L170.985 53.647C172.304 53.3955 173.192 53.8985 174.342 54.7402Z" fill="#263238"/>
<path d="M168.454 54.2109C167.736 54.6831 167.279 54.3752 167.305 53.6926C166.191 54.37 166.263 55.4375 167.587 56.0175C168.911 56.5975 170.41 56.3306 170.928 55.7609L171.051 53.6772C170.045 53.2768 169.532 53.5027 168.454 54.2109Z" fill="#263238"/>
<path d="M171.852 50.2231L171.549 53.7337C171.549 53.7337 170.184 53.9184 169.445 53.2512C170.061 51.4857 171.852 50.2231 171.852 50.2231Z" fill="#ED847E"/>
<path d="M176.379 48.8732C176.42 48.8732 176.461 48.8629 176.497 48.8373C176.615 48.7654 176.651 48.6166 176.579 48.4985C175.861 47.3335 174.727 47.2822 174.68 47.2822C174.542 47.277 174.429 47.3848 174.429 47.5182C174.424 47.6517 174.532 47.7697 174.67 47.7749C174.706 47.7749 175.594 47.8262 176.164 48.7551C176.21 48.8321 176.297 48.8783 176.379 48.8732Z" fill="#263238"/>
<path d="M168.162 48.2625C168.239 48.2676 168.321 48.2368 168.373 48.1701C169.04 47.3181 169.923 47.3797 169.964 47.3797C170.097 47.39 170.215 47.2925 170.225 47.1539C170.236 47.0153 170.138 46.8973 170 46.887C169.948 46.8819 168.819 46.7946 167.983 47.8622C167.9 47.9699 167.921 48.1239 168.029 48.206C168.07 48.2368 168.116 48.2573 168.162 48.2625Z" fill="#263238"/>
<path d="M204.622 106.643L207.706 105.442C211.181 105.411 210.452 109.886 210.452 109.886L210.97 112.181C211.145 112.961 210.647 113.777 209.79 114.121L207.64 114.978C206.659 115.368 205.571 114.993 205.227 114.146L204.452 112.247C204.227 111.693 204.144 111.093 204.206 110.502L204.622 106.643Z" fill="#FFC3BD"/>
<path d="M194.018 64.6348L194.691 65.1685L195.291 65.6612C195.686 65.9897 196.066 66.3233 196.451 66.6569C197.211 67.3292 197.955 68.0067 198.684 68.7047C200.141 70.0956 201.542 71.5686 202.897 73.1083C203.575 73.8832 204.237 74.6736 204.883 75.4948C205.525 76.3211 206.146 77.1731 206.752 78.0558C207.953 79.8265 209.076 81.7306 210.026 83.8605L210.483 84.8921L210.539 85.6466C210.678 87.4377 210.786 89.2289 210.898 91.0201L211.237 96.3937C211.432 99.9812 211.632 103.564 211.756 107.156L202.738 108.152C202.061 104.631 201.455 101.105 200.849 97.5793L199.987 92.2827C199.7 90.5171 199.412 88.7516 199.145 86.9861L199.659 88.7773C198.997 87.5558 198.129 86.3035 197.144 85.0717C196.148 83.8451 195.045 82.6339 193.88 81.4432C192.704 80.2627 191.462 79.1131 190.174 78.0045C189.533 77.4451 188.881 76.9011 188.224 76.3724L187.233 75.5923L186.746 75.2176L186.32 74.8994L194.018 64.6348Z" fill="#407BFF"/>
<g opacity="0.7">
<path opacity="0.7" d="M194.018 64.6348L194.691 65.1685L195.291 65.6612C195.686 65.9897 196.066 66.3233 196.451 66.6569C197.211 67.3292 197.955 68.0067 198.684 68.7047C200.141 70.0956 201.542 71.5686 202.897 73.1083C203.575 73.8832 204.237 74.6736 204.883 75.4948C205.525 76.3211 206.146 77.1731 206.752 78.0558C207.953 79.8265 209.076 81.7306 210.026 83.8605L210.483 84.8921L210.539 85.6466C210.678 87.4377 210.786 89.2289 210.898 91.0201L211.237 96.3937C211.432 99.9812 211.632 103.564 211.756 107.156L202.738 108.152C202.061 104.631 201.455 101.105 200.849 97.5793L199.987 92.2827C199.7 90.5171 199.412 88.7516 199.145 86.9861L199.659 88.7773C198.997 87.5558 198.129 86.3035 197.144 85.0717C196.148 83.8451 195.045 82.6339 193.88 81.4432C192.704 80.2627 191.462 79.1131 190.174 78.0045C189.533 77.4451 188.881 76.9011 188.224 76.3724L187.233 75.5923L186.746 75.2176L186.32 74.8994L194.018 64.6348Z" fill="white"/>
</g>
<path d="M181.049 61.0986C181.049 61.0986 177.97 65.5176 173.489 66.1386C176.22 67.1445 178.216 69.5003 178.216 69.5003C178.216 69.5003 182.815 65.923 183.467 62.3868C183.02 61.1243 181.049 61.0986 181.049 61.0986Z" fill="#407BFF"/>
<path opacity="0.3" d="M173.382 148.338C173.264 148.338 173.156 148.256 173.131 148.133C166.048 113.197 170.246 77.4091 170.287 77.055C170.303 76.9164 170.431 76.8138 170.575 76.8292C170.713 76.8446 170.816 76.9729 170.8 77.1166C170.759 77.4707 166.571 113.182 173.634 148.03C173.659 148.169 173.572 148.302 173.433 148.333C173.413 148.333 173.397 148.338 173.382 148.338Z" fill="#407BFF"/>
<path d="M180.952 85.97H173.228C172.648 85.97 172.243 85.4979 172.325 84.9179L172.848 81.392C172.935 80.812 173.479 80.3398 174.059 80.3398H181.784C182.364 80.3398 182.769 80.812 182.687 81.392L182.163 84.9179C182.081 85.4979 181.532 85.97 180.952 85.97Z" fill="white"/>
<path d="M178.217 81.2022H177.38C177.232 81.2022 177.129 81.079 177.149 80.9353L177.463 78.8413C177.483 78.6925 177.622 78.5745 177.77 78.5745H178.607C178.756 78.5745 178.859 78.6976 178.838 78.8413L178.525 80.9353C178.504 81.0842 178.366 81.2022 178.217 81.2022Z" fill="#407BFF"/>
<path d="M171.884 67.7446L169.754 66.1587L167.311 67.1287C167.316 67.1338 169.405 69.1047 171.884 67.7446Z" fill="#407BFF"/>
<path opacity="0.3" d="M171.884 67.7446L169.754 66.1587L167.311 67.1287C167.316 67.1338 169.405 69.1047 171.884 67.7446Z" fill="black"/>
<path d="M171.273 62.5048C171.273 62.5048 169.707 64.6912 169.753 66.159C168.198 66.8673 165.884 68.833 165.884 68.833C165.884 68.833 166.186 65.7484 169.276 63.0694C170.025 62.4689 171.273 62.5048 171.273 62.5048Z" fill="#407BFF"/>
<path d="M214.502 186.44L213.091 187.405L212.316 187.092L211.972 188.175L203.462 193.99C202.718 193.256 202.492 191.793 202.492 191.793C202.492 191.793 204.879 189.823 204.992 187.888C205.002 187.739 205.084 187.605 205.223 187.549C206.193 187.149 209.991 185.486 211.392 183.551C211.546 183.34 211.849 183.335 211.997 183.546C213.019 184.988 214.502 186.44 214.502 186.44Z" fill="#263238"/>
</svg>
