<svg width="270" height="174" viewBox="0 0 270 174" fill="none" xmlns="http://www.w3.org/2000/svg">
<path d="M259.979 158.543C259.216 159.229 258.414 159.889 257.575 160.521C253.403 163.663 248.283 166.149 242.38 168.019C242.372 168.02 242.366 168.023 242.357 168.025C240.303 168.675 238.264 169.261 236.24 169.784H236.239C234.017 170.359 231.813 170.859 229.623 171.288C226.548 171.888 223.503 172.347 220.472 172.669C218.169 172.914 215.877 173.082 213.589 173.176C211.244 173.271 208.902 173.288 206.562 173.229C206.313 173.225 206.062 173.217 205.813 173.208C203.242 173.128 200.674 172.958 198.096 172.701C196.418 172.535 194.736 172.333 193.049 172.096C187.734 171.349 182.362 170.256 176.878 168.86C174.754 168.319 172.613 167.732 170.45 167.103C164.87 165.479 159.15 163.563 153.233 161.4C152.624 161.176 152.013 160.952 151.398 160.724C148.253 159.554 145.052 158.318 141.785 157.02C138.919 155.881 136.223 154.916 133.674 154.109C130.569 153.128 127.68 152.377 124.957 151.83C123.455 151.529 122.005 151.288 120.596 151.103C116.569 150.575 112.888 150.503 109.365 150.764C108.382 150.836 107.361 150.979 106.303 151.182C104.741 151.484 103.104 151.92 101.4 152.462C92.3086 155.353 81.3695 161.258 70.4617 165.824C66.549 167.462 62.6423 168.925 58.8237 170.019C42.4546 174.702 28.9707 173.073 19.3338 166.694C2.56302 155.597 -2.56828 130.12 8.9891 98.4819C28.1374 46.0638 80.7393 51.4161 115.885 45.5202C139.676 41.5298 150.3 27.4904 165.56 15.8569C194.726 -6.37828 237.134 -3.56771 249.33 13.9961C259.515 28.6627 250.767 51.894 252.771 76.5634C253.389 84.1857 255.036 91.9454 258.583 99.6334C258.753 100.004 258.928 100.374 259.109 100.744C259.44 101.424 259.785 102.102 260.147 102.781C260.746 103.906 261.315 105.014 261.855 106.106C261.976 106.348 262.094 106.59 262.212 106.832C262.349 107.112 262.484 107.393 262.617 107.671C273.973 131.514 271.552 148.125 259.979 158.543Z" fill="#032FF2"/>
<path d="M85.7763 115.865C84.1739 115.865 82.6506 115.545 81.2095 114.905C74.1502 111.764 71.4964 101.996 73.3229 85.8731C74.749 73.2838 78.5483 59.5505 81.4843 50.2467C82.2758 47.7408 84.0499 45.7083 86.3527 44.6704C88.4017 43.7474 90.6104 43.7206 92.5742 44.5942L96.4466 46.3176L95.328 48.8324L91.4557 47.1091C90.2176 46.558 88.8079 46.5834 87.4832 47.1793C85.8943 47.8946 84.6652 49.3148 84.1096 51.074C81.2095 60.2614 77.4596 73.811 76.0573 86.1808C75.2747 93.0832 75.336 98.779 76.2395 103.11C77.2415 107.913 79.289 111.034 82.3265 112.385C85.3641 113.737 89.0543 113.169 93.2925 110.698C97.1141 108.47 101.387 104.702 105.989 99.4989C114.24 90.1756 121.794 78.318 126.677 70.0133C127.612 68.4228 127.844 66.559 127.312 64.8999C126.869 63.517 125.943 62.4537 124.706 61.9026L121.319 60.3958L122.438 57.8809L125.825 59.3878C127.788 60.2614 129.248 61.9206 129.934 64.0606C130.705 66.4664 130.384 69.1441 129.052 71.4096C124.107 79.8189 116.449 91.8362 108.053 101.324C99.4976 110.998 92.0276 115.865 85.7763 115.865Z" fill="#2E6B99"/>
<path d="M117.611 62.6003L118.394 62.9482C119.294 63.3485 120.359 62.9393 120.759 62.0388L123.17 56.6222C123.57 55.7217 123.161 54.6569 122.26 54.2567L121.478 53.9087C120.577 53.5085 119.512 53.9177 119.112 54.8182L116.702 60.2347C116.302 61.1353 116.711 62.1986 117.611 62.6003Z" fill="#0E2549"/>
<path d="M95.4147 52.7241L96.1972 53.072C97.0977 53.4723 98.1625 53.0631 98.5627 52.1626L100.973 46.746C101.373 45.8455 100.964 44.7807 100.064 44.3805L99.2811 44.0325C98.3805 43.6323 97.3157 44.0415 96.9155 44.942L94.5052 50.3585C94.105 51.2591 94.5141 52.3238 95.4147 52.7241Z" fill="#0E2549"/>
<path d="M82.3894 166.706C80.0269 166.706 77.975 165.962 76.2546 164.476C71.4533 160.331 69.7001 150.416 71.0411 135.007C72.0133 123.838 74.3191 113.653 74.3415 113.552C74.5476 112.648 75.4466 112.082 76.3516 112.288C77.2551 112.494 77.8211 113.393 77.615 114.298C77.5926 114.398 75.3331 124.389 74.3833 135.334C73.8308 141.704 73.8218 147.135 74.3594 151.478C74.9971 156.626 76.3725 160.144 78.4484 161.938C80.442 163.658 83.1884 163.804 86.8442 162.386C92.1069 160.343 92.9268 157.313 93.8781 153.803C94.9474 149.853 96.1615 145.377 103.739 143.067C104.626 142.798 105.564 143.297 105.834 144.183C106.105 145.07 105.604 146.008 104.719 146.278C98.9168 148.046 98.1238 150.973 97.1203 154.68C96.0824 158.512 94.9056 162.856 88.0613 165.513C86.0094 166.309 84.1158 166.706 82.3894 166.706Z" fill="#0E2549"/>
<path d="M106.148 132.335C111.399 127.872 119.275 128.511 123.737 133.762C128.201 139.012 127.562 146.889 122.311 151.351C117.06 155.813 109.184 155.175 104.722 149.925C100.258 144.674 100.897 136.799 106.148 132.335Z" fill="#2E6B99"/>
<path d="M108.819 135.055C112.471 131.952 117.946 132.395 121.049 136.047C124.152 139.698 123.709 145.173 120.057 148.276C116.406 151.38 110.931 150.936 107.828 147.285C104.723 143.635 105.168 138.16 108.819 135.055Z" fill="white"/>
<path d="M114.453 150.561C114.209 150.561 113.964 150.55 113.719 150.531C111.352 150.338 109.2 149.236 107.662 147.426C106.124 145.616 105.382 143.315 105.574 140.948C105.767 138.581 106.869 136.429 108.679 134.891C110.489 133.352 112.79 132.61 115.157 132.803C117.524 132.996 119.676 134.098 121.215 135.908C124.391 139.644 123.934 145.268 120.198 148.443C118.576 149.822 116.558 150.561 114.453 150.561ZM114.424 133.208C112.422 133.208 110.503 133.909 108.96 135.222C107.238 136.686 106.19 138.732 106.007 140.984C105.825 143.236 106.53 145.424 107.994 147.145C109.457 148.867 111.503 149.916 113.755 150.098C116.007 150.282 118.195 149.575 119.917 148.112C123.471 145.091 123.904 139.743 120.883 136.188C119.42 134.467 117.374 133.418 115.122 133.236C114.889 133.217 114.656 133.208 114.424 133.208Z" fill="#0E2549"/>
<path d="M73.6467 51.8087L84.9024 8.27173L76.5289 50.7663L73.6467 51.8087Z" fill="#0E2549"/>
<path d="M90.6293 62.9288L55.8007 54.7012L37.2803 133.1L72.1089 141.328L90.6293 62.9288Z" fill="white"/>
<path d="M72.2849 141.596L37.0229 133.268L55.6411 54.4358L90.9031 62.7645L90.8523 62.9795L72.2849 141.596ZM37.5575 132.939L71.9564 141.063L90.3714 63.093L55.9726 54.9689L37.5575 132.939Z" fill="#0E2549"/>
<path d="M79.773 46.8642L72.698 45.1929L69.677 57.9811L76.752 59.6524L79.773 46.8642Z" fill="#D2EBFC"/>
<path d="M76.9221 59.9119L69.4238 58.1407L72.5435 44.9302L80.0418 46.7013L76.9221 59.9119ZM69.9465 57.8182L76.5995 59.3892L79.5206 47.0239L72.8675 45.4529L69.9465 57.8182Z" fill="#0E2549"/>
<path d="M78.8036 75.9854C78.7722 75.9854 78.7409 75.9824 78.7095 75.9749L60.6275 71.6963C60.4065 71.6441 60.2706 71.4231 60.3228 71.2035C60.3751 70.9825 60.5961 70.8466 60.8156 70.8989L78.8977 75.1775C79.1187 75.2297 79.2546 75.4507 79.2023 75.6703C79.1575 75.8584 78.9888 75.9854 78.8036 75.9854Z" fill="#0E2549"/>
<path d="M76.4515 85.8882C76.4201 85.8882 76.3888 85.8852 76.3574 85.8778L58.2754 81.5992C58.0543 81.5469 57.9184 81.3259 57.9707 81.1064C58.023 80.8853 58.244 80.7494 58.4635 80.8017L76.5456 85.0803C76.7666 85.1326 76.9025 85.3536 76.8502 85.5731C76.8054 85.7613 76.6381 85.8882 76.4515 85.8882Z" fill="#0E2549"/>
<path d="M75.7994 70.045C75.7681 70.045 75.7367 70.042 75.7053 70.0345L65.9863 67.7347C65.7653 67.6824 65.6294 67.4614 65.6817 67.2419C65.7339 67.0208 65.9549 66.8849 66.1745 66.9372L75.8935 69.237C76.1145 69.2893 76.2504 69.5103 76.1982 69.7299C76.1534 69.918 75.9846 70.045 75.7994 70.045Z" fill="#0E2549"/>
<path d="M73.4555 79.9488C73.4241 79.9488 73.3927 79.9458 73.3614 79.9383L63.6424 77.6385C63.4213 77.5862 63.2855 77.3652 63.3377 77.1457C63.39 76.9246 63.611 76.7887 63.8305 76.841L73.5496 79.1409C73.7706 79.1931 73.9065 79.4142 73.8542 79.6337C73.8094 79.8219 73.6406 79.9488 73.4555 79.9488Z" fill="#0E2549"/>
<path d="M74.1129 95.7923C74.0815 95.7923 74.0501 95.7893 74.0188 95.7818L55.9367 91.5032C55.7157 91.451 55.5798 91.2299 55.6321 91.0104C55.6844 90.7894 55.9054 90.6535 56.1249 90.7058L74.2069 94.9844C74.428 95.0366 74.5639 95.2576 74.5116 95.4772C74.4668 95.6653 74.298 95.7923 74.1129 95.7923Z" fill="#0E2549"/>
<path d="M64.9943 121.421C64.963 121.421 64.9316 121.418 64.9002 121.41L46.8182 117.132C46.5972 117.079 46.4613 116.858 46.5136 116.639C46.5658 116.418 46.7869 116.282 47.0064 116.334L65.0884 120.613C65.3094 120.665 65.4453 120.886 65.3931 121.106C65.3498 121.294 65.181 121.421 64.9943 121.421Z" fill="#0E2549"/>
<path d="M71.1079 89.8531C71.0766 89.8531 71.0452 89.8501 71.0138 89.8412L61.2948 87.5413C61.0738 87.4891 60.9379 87.268 60.9902 87.0485C61.0425 86.8275 61.2635 86.6916 61.483 86.7438L71.202 89.0437C71.423 89.096 71.5589 89.317 71.5067 89.5365C71.4619 89.7262 71.2931 89.8531 71.1079 89.8531Z" fill="#0E2549"/>
<path d="M62.4469 114.886C62.4156 114.886 62.3842 114.883 62.3528 114.875L52.6338 112.575C52.4128 112.523 52.2769 112.302 52.3292 112.082C52.3814 111.861 52.6025 111.726 52.822 111.778L62.541 114.078C62.762 114.13 62.8979 114.351 62.8457 114.57C62.8009 114.759 62.6321 114.886 62.4469 114.886Z" fill="#0E2549"/>
<path d="M59.7913 126.658C59.76 126.658 59.7286 126.655 59.6973 126.648L49.9782 124.348C49.7572 124.295 49.6213 124.074 49.6736 123.855C49.7259 123.634 49.9469 123.498 50.1664 123.55L59.8854 125.85C60.1065 125.902 60.2423 126.123 60.1901 126.343C60.1453 126.531 59.9765 126.658 59.7913 126.658Z" fill="#0E2549"/>
<path d="M67.4701 99.844C67.4387 99.844 67.4073 99.8411 67.376 99.8336L57.657 97.5338C57.4359 97.4815 57.3 97.2605 57.3523 97.0409C57.4046 96.8199 57.6256 96.684 57.8451 96.7363L67.5641 99.0361C67.7852 99.0884 67.9211 99.3094 67.8688 99.5289C67.824 99.7171 67.6567 99.844 67.4701 99.844Z" fill="#0E2549"/>
<path d="M74.4843 140.216L37.7503 131.539L36.5761 136.509L73.3101 145.187L74.4843 140.216Z" fill="#D2EBFC"/>
<path d="M73.4812 145.451L36.324 136.675L37.5979 131.281L74.7551 140.056L73.4812 145.451ZM36.8467 136.351L73.1586 144.928L74.2324 140.379L37.9205 131.802L36.8467 136.351Z" fill="#0E2549"/>
<path d="M145.833 63.1809C145.833 63.1809 146.175 72.4206 145.356 73.4749C144.536 74.5292 140.254 76.9276 140.254 76.9276L154.843 86.1299L163.594 77.1143C163.594 77.1143 158.905 75.0594 158.463 73.8408C157.849 72.1547 157.961 63.1824 157.961 63.1824H145.833V63.1809Z" fill="white"/>
<path d="M154.877 86.4121L139.821 76.9156L140.146 76.7334C140.188 76.7095 144.398 74.3454 145.18 73.3389C145.745 72.6131 145.748 66.871 145.612 63.1898C145.608 63.0673 145.703 62.9643 145.826 62.9598C145.95 62.9583 146.051 63.0509 146.056 63.1733C146.091 64.1276 146.377 72.525 145.531 73.6107C144.819 74.5261 141.711 76.3496 140.687 76.9365L154.81 85.8446L163.215 77.1859C162.114 76.6856 158.666 75.0458 158.255 73.9138C157.635 72.2084 157.735 63.5452 157.74 63.1763C157.741 63.0554 157.84 62.9568 157.962 62.9568C157.964 62.9568 157.964 62.9568 157.965 62.9568C158.088 62.9583 158.186 63.0583 158.185 63.1808C158.183 63.2704 158.08 72.1307 158.673 73.76C159.011 74.6874 162.405 76.3451 163.685 76.9066L163.978 77.035L154.877 86.4121Z" fill="#0E2549"/>
<path d="M149.065 44.5895C147.128 44.7956 142.413 45.2346 142.413 48.6933C142.413 52.6389 143.081 57.7105 143.478 60.3806C143.635 61.435 144.54 62.2145 145.606 62.2145H157.543C158.636 62.2145 159.556 61.3947 159.68 60.309C160.098 56.6516 160.916 48.9084 160.482 47.742C159.005 43.7681 152.132 44.2639 149.065 44.5895Z" fill="#0E2549"/>
<path d="M149.225 66.2871C152.61 66.6799 156.838 66.0392 158.01 64.8669C158.699 64.1784 158.974 61.4575 159.053 58.3542C159.056 58.2646 159.105 58.1839 159.183 58.1391C160.019 57.6597 161.23 56.6338 161.194 55.0941C161.164 53.7605 160.162 54.0398 159.374 54.4699C159.234 54.546 159.063 54.446 159.06 54.2862C158.998 50.5437 158.784 47.2612 158.784 47.2612H143.642C143.642 47.2612 143.672 50.599 143.817 54.3414C143.823 54.5087 143.644 54.6177 143.498 54.5341C142.697 54.0711 141.594 53.6933 141.562 55.0941C141.522 56.8399 143.084 57.9256 143.886 58.3019C143.97 58.3407 144.025 58.4229 144.031 58.514C144.207 61.1543 144.459 63.4362 144.824 64.2456C145.022 64.6862 145.402 65.0506 145.911 65.3492L149.225 66.2871Z" fill="white"/>
<path d="M151.359 66.629C150.633 66.629 149.904 66.5901 149.199 66.508C149.077 66.4946 148.99 66.3841 149.004 66.2616C149.017 66.1391 149.131 66.0525 149.25 66.066C152.649 66.4602 156.75 65.8121 157.854 64.7085C158.236 64.3262 158.715 62.9119 158.83 58.3466C158.835 58.1823 158.927 58.027 159.072 57.9449C159.656 57.6103 161.009 56.6635 160.973 55.097C160.964 54.7251 160.876 54.4877 160.71 54.3921C160.48 54.2592 160.044 54.3547 159.481 54.6624C159.347 54.7356 159.187 54.7341 159.056 54.6564C158.923 54.5788 158.842 54.4414 158.839 54.2875C158.787 51.1245 158.624 48.2602 158.576 47.4807H143.866C143.875 48.2901 143.917 51.1828 144.04 54.3309C144.046 54.4892 143.965 54.6385 143.829 54.7206C143.693 54.8028 143.524 54.8043 143.387 54.7251C142.773 54.3697 142.298 54.2502 142.05 54.3906C141.882 54.4847 141.794 54.7236 141.785 55.0985C141.741 56.9936 143.751 57.9927 143.981 58.1017C144.137 58.1749 144.241 58.3272 144.253 58.5004C144.507 62.3175 144.815 63.6825 145.027 64.1544C145.197 64.5337 145.533 64.8698 146.023 65.1565C146.129 65.2177 146.165 65.3536 146.104 65.4596C146.041 65.5657 145.905 65.6015 145.8 65.5403C145.228 65.2058 144.831 64.8011 144.622 64.3366C144.286 63.5914 144.02 61.6918 143.81 58.5288C143.808 58.5168 143.802 58.5079 143.792 58.5019C142.637 57.9598 141.304 56.7397 141.341 55.088C141.353 54.5444 141.519 54.18 141.834 54.0038C142.233 53.7798 142.826 53.8903 143.596 54.3323C143.453 50.6347 143.421 47.294 143.421 47.2611L143.42 47.0371H158.995L159.008 47.2447C159.009 47.2775 159.223 50.566 159.284 54.2651C160.003 53.8769 160.557 53.7902 160.934 54.0083C161.244 54.1875 161.406 54.5504 161.418 55.088C161.46 56.8935 159.947 57.9568 159.295 58.3302C159.283 58.3361 159.277 58.3466 159.275 58.3585C159.178 62.1951 158.817 64.3754 158.169 65.0236C157.201 65.9913 154.31 66.629 151.359 66.629Z" fill="#0E2549"/>
<path d="M161.644 114.51C153.399 110.556 149.409 118.242 142.414 116.323C141.979 116.204 137.227 115.359 132.097 115.72C126.527 116.113 138.404 101.746 137.969 100.783C137.303 99.315 125.431 98.7251 126.04 97.1421L130.634 78.7495C130.634 78.7495 140.954 74.7487 141.979 74.9279L151.632 81.2718C151.189 81.5302 155.321 77.6743 161.194 74.7532L171.333 78.748L177.248 96.3417L164.959 99.4016C166.123 102.342 167.116 117.134 161.644 114.51Z" fill="#2E6B99"/>
<path d="M170.616 131.088L170.615 131.315L170.449 167.103C164.868 165.478 159.148 163.562 153.232 161.4L152.252 150.397L151.396 160.723C148.251 159.554 145.051 158.318 141.783 157.02C138.917 155.88 136.222 154.916 133.673 154.109V130.228L170.616 131.088Z" fill="#A1C5E2"/>
<path d="M155.28 56.1753C155.279 56.1753 155.277 56.1753 155.276 56.1753C155.059 56.1723 154.887 55.9961 154.889 55.781L154.893 55.4256C154.896 55.2106 155.069 55.0388 155.285 55.0388C155.286 55.0388 155.288 55.0388 155.289 55.0388C155.504 55.0418 155.677 55.218 155.676 55.4331L155.671 55.7885C155.668 56.002 155.494 56.1753 155.28 56.1753Z" fill="#0E2549"/>
<path d="M148.257 56.1753C148.044 56.1753 147.869 56.0035 147.866 55.7885L147.863 55.4331C147.861 55.218 148.035 55.0403 148.25 55.0388C148.465 55.0418 148.642 55.2106 148.644 55.4256L148.647 55.781C148.648 55.9961 148.475 56.1738 148.26 56.1753C148.26 56.1738 148.259 56.1753 148.257 56.1753Z" fill="#0E2549"/>
<path d="M146.766 53.8157C146.666 53.8157 146.568 53.7634 146.513 53.6708C146.429 53.5304 146.475 53.3482 146.616 53.2646C147.913 52.491 149.287 52.8584 149.344 52.8733C149.501 52.9166 149.593 53.0794 149.55 53.2377C149.507 53.3945 149.344 53.4871 149.187 53.4438C149.175 53.4408 147.994 53.1317 146.919 53.7724C146.871 53.8022 146.819 53.8157 146.766 53.8157Z" fill="#0E2549"/>
<path d="M156.766 53.8814C156.715 53.8814 156.663 53.8679 156.615 53.8396C155.533 53.1944 154.359 53.508 154.347 53.511C154.189 53.5543 154.026 53.4617 153.982 53.3049C153.939 53.1481 154.032 52.9838 154.189 52.9405C154.247 52.9241 155.619 52.5582 156.917 53.3318C157.057 53.4154 157.104 53.5976 157.02 53.738C156.965 53.8291 156.866 53.8814 156.766 53.8814Z" fill="#0E2549"/>
<path d="M130.055 115.297L130.441 131.272L173.029 131.319L172.878 111.645L130.055 115.297Z" fill="#2E6B99"/>
<path d="M134.675 115.938C133.259 115.938 131.692 115.821 130.015 115.515C129.894 115.493 129.815 115.378 129.837 115.257C129.86 115.136 129.975 115.057 130.096 115.078C136.386 116.226 141.095 114.667 141.944 114.356C141.961 111.261 142.481 108.925 142.651 108.239L132.669 104.876C132.552 104.838 132.49 104.712 132.53 104.596C132.569 104.479 132.696 104.418 132.811 104.457L143.188 107.954L143.13 108.157C143.123 108.183 142.386 110.81 142.386 114.51V114.658L142.249 114.715C142.212 114.731 139.223 115.938 134.675 115.938Z" fill="#0E2549"/>
<path d="M152.359 151.603C152.246 151.603 152.15 151.517 152.138 151.403L151.247 142.102L149.077 141.554L147.707 137.703C147.667 137.588 147.727 137.461 147.842 137.419C147.958 137.377 148.084 137.438 148.126 137.553L149.416 141.182L151.659 141.75L152.58 151.363C152.592 151.485 152.503 151.593 152.38 151.605C152.373 151.602 152.367 151.603 152.359 151.603Z" fill="#0E2549"/>
<path d="M142.166 114.51L161.699 109.531C161.699 109.531 166.862 107.233 166.895 105.348L164.961 99.4016C164.467 99.6137 162.583 102.445 160.508 103.931C158.837 105.129 156.847 105.062 156.847 105.062L143.059 106.889L136.382 105.861L138.172 99.9691L127.61 95.7622C127.61 95.7622 124.998 112.284 128.662 115.487C131.101 117.618 142.166 114.51 142.166 114.51Z" fill="white"/>
<path d="M131.918 116.451C130.433 116.451 129.183 116.236 128.519 115.656C124.803 112.409 127.285 96.4086 127.393 95.7291L127.436 95.4543L138.447 99.839L136.671 105.681L143.064 106.667L156.839 104.842H156.857C156.877 104.842 158.794 104.891 160.382 103.753C161.639 102.853 162.819 101.455 163.681 100.435C164.327 99.6702 164.648 99.2969 164.875 99.1998L165.099 99.1042L167.12 105.317V105.354C167.086 107.322 162.334 109.494 161.793 109.736L161.757 109.748L142.227 114.727C141.864 114.825 136.002 116.451 131.918 116.451ZM127.788 96.0726C127.472 98.2365 125.532 112.457 128.81 115.321C131.129 117.348 141.997 114.328 142.106 114.297L142.11 114.295L161.626 109.321C163.027 108.695 166.588 106.8 166.672 105.379L164.848 99.7733C164.639 99.9838 164.326 100.356 164.018 100.72C163.141 101.758 161.941 103.18 160.639 104.113C158.994 105.291 157.087 105.29 156.86 105.285L143.058 107.115L143.027 107.11L136.096 106.043L137.902 100.102L127.788 96.0726Z" fill="#0E2549"/>
<path d="M145.3 103.803C142.746 103.547 143.212 102.082 141.04 101.827C138.869 101.572 137.967 100.783 137.967 100.783L136.381 105.861C136.381 105.861 144.563 108.637 145.585 109.148C146.606 109.658 160.02 114.689 163.842 115.148C172.908 116.234 177.557 113.668 178.559 111.276C180.082 107.638 175.596 95.2261 175.596 95.2261L164.533 97.8813L166.7 105.554C166.702 105.554 147.853 104.058 145.3 103.803Z" fill="white"/>
<path d="M167.913 115.626C166.651 115.626 165.286 115.545 163.817 115.369C160.004 114.912 146.58 109.893 145.487 109.346C144.491 108.847 136.394 106.1 136.312 106.071L136.107 106.001L137.859 100.392L138.116 100.616C138.123 100.623 139.007 101.364 141.069 101.606C142.176 101.736 142.652 102.17 143.114 102.592C143.602 103.037 144.062 103.456 145.324 103.582C147.664 103.816 163.914 105.109 166.403 105.308L164.26 97.7201L175.742 94.9648L175.809 95.1515C175.994 95.6623 180.307 107.686 178.769 111.362C177.808 113.647 174.142 115.626 167.913 115.626ZM136.659 105.72C137.962 106.164 144.742 108.477 145.686 108.949C146.771 109.493 160.092 114.475 163.869 114.927C172.325 115.94 177.305 113.699 178.355 111.189C179.727 107.91 176.003 97.0511 175.455 95.4875L164.81 98.0427L167.001 105.799L166.683 105.774C166.495 105.759 147.803 104.275 145.276 104.022C143.868 103.882 143.307 103.37 142.811 102.919C142.364 102.511 141.979 102.16 141.014 102.047C139.439 101.861 138.507 101.401 138.089 101.139L136.659 105.72Z" fill="#0E2549"/>
<path d="M156.766 87.9429V89.6841L163.199 89.6886V87.9429H156.766Z" fill="#2E6B99"/>
<path d="M163.423 89.911L156.546 89.905V87.7202H163.423V89.911ZM156.989 89.4615L162.979 89.466V88.1638H156.989V89.4615Z" fill="#0E2549"/>
<path d="M151.68 59.3458C151.665 59.3458 151.648 59.3443 151.633 59.3413C151.421 59.2965 150.361 59.0397 150.252 58.4453C150.168 57.9928 150.216 57.8703 150.802 56.3695C150.93 56.0409 151.084 55.6452 151.271 55.1613C151.314 55.0463 151.444 54.9896 151.557 55.0344C151.672 55.0777 151.729 55.2061 151.684 55.3211C151.498 55.805 151.344 56.2022 151.215 56.5308C150.645 57.9943 150.63 58.045 150.69 58.3646C150.73 58.5812 151.318 58.8186 151.729 58.9067C151.848 58.9321 151.925 59.0501 151.899 59.1711C151.874 59.2756 151.781 59.3458 151.68 59.3458Z" fill="#0E2549"/>
<path d="M145.112 47.5989C145.112 47.5989 155.619 50.9397 159.871 46.9613C162.019 44.9512 157.163 43.2397 152.773 43.6863C148.382 44.1328 142.221 45.0228 145.112 47.5989Z" fill="#0E2549"/>
<path d="M147.228 45.3361C147.228 45.3361 140.477 43.6381 142.469 52.703C143.423 57.0428 141.167 51.2051 147.009 47.4074C147.613 47.0132 147.228 45.3361 147.228 45.3361Z" fill="#0E2549"/>
<path d="M127.956 89.4736L125.831 97.7679L137.791 100.601L139.998 94.3884L127.956 89.4736Z" fill="#2E6B99"/>
<path d="M174.371 88.3267L177.25 96.5299L164.955 99.2747L162.624 91.518L174.371 88.3267Z" fill="#2E6B99"/>
<path d="M136.383 106.083C136.362 106.083 136.34 106.08 136.317 106.073C136.201 106.037 136.134 105.913 136.171 105.795L139.092 96.2775C139.128 96.1611 139.252 96.0939 139.37 96.1312C139.486 96.167 139.552 96.291 139.516 96.409L136.595 105.926C136.565 106.022 136.477 106.083 136.383 106.083Z" fill="#0E2549"/>
<path d="M167.402 107.178C167.308 107.178 167.22 107.118 167.19 107.022L162.986 93.725C162.949 93.6086 163.015 93.4831 163.131 93.4458C163.249 93.4084 163.373 93.4742 163.41 93.5906L167.614 106.888C167.652 107.004 167.586 107.13 167.469 107.167C167.447 107.175 167.425 107.178 167.402 107.178Z" fill="#0E2549"/>
<path d="M160.607 48.0735C160.607 48.0735 153.796 47.4209 151.515 47.4194C149.199 47.4179 142.277 48.0735 142.277 48.0735V40.2974C142.277 40.2974 149.09 39.6448 151.369 39.6433C153.685 39.6418 160.607 40.2974 160.607 40.2974V48.0735Z" fill="#A1C5E2"/>
<path d="M148.963 60.7673C148.733 61.1078 149.909 62.2712 151.274 62.2114C153.502 62.1129 154.192 60.5866 153.653 60.6941C153.442 60.736 152.633 61.1959 151.299 61.2288C149.859 61.2646 149.117 60.5403 148.963 60.7673Z" fill="#0E2549"/>
<path d="M229.737 84.4376C229.56 84.0717 225.464 75.4413 227.758 70.8626C228.455 69.4707 229.668 68.5956 231.362 68.2626L231.433 68.2551H240.107C240.4 68.2716 247.281 68.7091 247.383 73.2117C247.471 77.0811 246.614 81.3074 246.605 81.3492L245.88 81.1999C245.889 81.1581 246.729 77.0109 246.643 73.2281C246.558 69.4678 240.353 69.0123 240.074 68.9929H231.469C230.01 69.2871 229.012 70.0069 228.42 71.1896C226.288 75.4443 230.362 84.0269 230.404 84.1135L229.737 84.4376Z" fill="#E2474B"/>
<path d="M232.16 82.6034L232.606 74.4509H241.446L244.037 83.943L232.16 82.6034Z" fill="white"/>
<path d="M257.576 160.52C253.404 163.662 248.284 166.149 242.381 168.018C242.373 168.02 242.367 168.023 242.359 168.024C240.304 168.674 238.265 169.261 236.242 169.784L239.724 131.438L229.624 171.287C226.549 171.888 223.504 172.346 220.473 172.669C218.17 172.914 215.878 173.081 213.59 173.175C211.245 173.271 208.904 173.287 206.563 173.229C207.846 169.315 209.126 165.392 210.376 161.552C211.517 158.044 212.63 154.608 213.691 151.309V151.307C214.959 147.374 216.152 143.634 217.234 140.21C217.234 140.21 217.235 140.208 217.234 140.207C219.837 131.965 221.787 125.546 222.525 122.586C222.544 122.512 222.562 122.437 222.582 122.362V122.361C222.731 121.763 222.883 121.194 223.033 120.649V120.648C223.04 120.615 223.05 120.584 223.059 120.552C223.513 118.917 223.964 117.513 224.408 116.308C226.385 110.926 228.164 109.509 228.955 109.146C229.25 109.005 229.42 109.004 229.43 109.004L236.374 109.071L242.772 109.134L250.611 109.209C250.611 109.209 250.856 109.34 251.256 109.691C251.329 109.757 251.406 109.827 251.489 109.906C251.665 110.076 251.864 110.282 252.075 110.532C252.687 111.244 253.425 112.301 254.159 113.826L254.161 113.829C254.204 113.926 254.252 114.023 254.298 114.125C254.298 114.125 254.298 114.125 254.298 114.126C254.353 114.244 254.409 114.365 254.462 114.491L254.464 114.492C255.267 116.322 256.043 118.742 256.611 121.925C257.342 126.012 257.569 142.224 257.576 160.52Z" fill="#0E2549"/>
<path d="M239.756 131.309C239.74 131.309 239.723 131.308 239.705 131.303C239.586 131.275 239.511 131.157 239.54 131.037L240.957 124.91L245.807 122.116C245.913 122.055 246.049 122.09 246.111 122.198C246.172 122.304 246.136 122.44 246.028 122.501L241.345 125.198L239.971 131.137C239.949 131.24 239.858 131.309 239.756 131.309Z" fill="#A1C5E2"/>
<path d="M239.42 45.8633C237.924 44.9553 233.643 45.13 231.094 46.1366C228.443 47.1835 225.858 81.536 225.858 81.536L245.374 80.8177L244.787 60.412C244.787 60.412 242.883 47.9645 239.42 45.8633Z" fill="#0E2549"/>
<path d="M231.237 60.5657C231.237 60.5657 231.658 70.9059 231.263 71.451C229.911 73.3133 225.907 74.9516 224.993 75.198C224.079 75.4444 239.936 81.4926 239.936 81.4926L248.934 75.7221L244.848 74.2377C244.848 74.2377 242.148 73.8748 241.064 72.7548C239.98 71.6347 239.452 61.1137 239.452 61.1137L231.237 60.5657Z" fill="white"/>
<path d="M239.963 81.7389L239.859 81.6986C239.821 81.6837 236.063 80.25 232.355 78.7686C224.71 75.7131 224.723 75.4622 224.735 75.2188C224.74 75.1292 224.795 75.0217 224.937 74.9828C225.982 74.7021 229.817 73.0653 231.084 71.3195C231.33 70.8133 231.173 64.4589 231.015 60.5731L231.004 60.3267L239.665 60.9031L239.675 61.1002C239.886 65.2952 240.471 71.8198 241.224 72.5979C242.241 73.6492 244.851 74.0121 244.878 74.0151L244.924 74.0271L249.433 75.6653L239.963 81.7389ZM225.397 75.3039C226.944 76.185 234.826 79.3032 239.911 81.2446L248.437 75.7773L244.794 74.4542C244.502 74.4124 241.987 74.0256 240.906 72.9085C239.845 71.8138 239.333 63.0551 239.242 61.3228L231.469 60.8045C231.576 63.4986 231.838 71.0373 231.444 71.5824C230.171 73.3326 226.721 74.8469 225.397 75.3039Z" fill="#0E2549"/>
<path d="M224.357 75.8403L227.961 73.9333L234.38 75.3296L236.647 74.4276L239.756 74.2364L245.104 73.542L248.423 75.2012L247.849 109.004H233.549L224.357 75.8403Z" fill="#A1C5E2"/>
<path d="M236.646 103.629L236.371 108.684L236.253 110.857L220.473 171.574L220.208 172.593H205.654L205.812 172.107L209.559 160.581L213.703 147.835V147.834L217.044 137.559L222.317 121.336C222.317 121.336 221.325 117.068 220.246 111.145C220.213 110.968 220.18 110.787 220.147 110.606C220.135 110.539 220.123 110.472 220.111 110.405C219.834 108.855 219.55 107.203 219.281 105.491C219.106 104.385 218.938 103.254 218.776 102.112C218.742 101.876 218.709 101.637 218.678 101.398C217.265 91.0683 216.653 79.9499 219.837 76.7153C219.884 76.666 219.934 76.6182 219.98 76.5734C222.081 74.511 223.928 74.2945 224.957 74.293C228.126 74.2885 236.646 103.629 236.646 103.629Z" fill="white"/>
<path d="M220.379 172.814H205.349L216.831 137.49L222.084 121.326C221.96 120.785 221.026 116.669 220.025 111.186C219.992 111.008 219.959 110.827 219.926 110.647C219.92 110.612 219.914 110.576 219.907 110.54L219.891 110.446C219.577 108.698 219.305 107.089 219.06 105.527C218.886 104.425 218.715 103.286 218.555 102.143C218.521 101.907 218.488 101.668 218.457 101.426C216.574 87.6617 216.984 79.2957 219.677 76.5598C219.726 76.509 219.777 76.4597 219.825 76.4134C221.426 74.8409 223.106 74.0748 224.955 74.0718H224.956C225.485 74.0718 226.409 74.5616 228.321 78.7834C229.424 81.2222 230.73 84.6226 232.198 88.8863C234.696 96.1412 236.836 103.493 236.857 103.566L236.867 103.602L236.466 110.912L220.685 171.629L220.379 172.814ZM205.957 172.373H220.037L220.258 171.52L236.034 110.824L236.424 103.656C236.258 103.088 234.187 96.0157 231.781 89.0311C227.269 75.9311 225.506 74.5153 224.958 74.5153C223.228 74.5183 221.651 75.2426 220.134 76.7315C220.086 76.7763 220.04 76.8226 219.994 76.8704C217.438 79.4659 217.059 87.9379 218.896 101.37C218.927 101.61 218.96 101.846 218.995 102.082C219.154 103.223 219.325 104.359 219.499 105.46C219.744 107.019 220.016 108.624 220.328 110.369L220.364 110.567C220.397 110.75 220.43 110.93 220.463 111.108C221.529 116.959 222.522 121.245 222.531 121.288L222.544 121.348L205.957 172.373Z" fill="#0E2549"/>
<path d="M252.769 76.5556C252.487 76.2883 252.222 76.0553 251.979 75.8641C250.769 74.9084 248.567 74.2692 246.873 74.426L242.795 105.003L242.766 109.013L242.662 124.01L242.357 167.699C242.365 167.697 242.37 167.694 242.379 167.693C248.283 165.831 253.402 163.352 257.575 160.222C258.414 159.593 259.216 158.934 259.979 158.252C258.925 141.742 257.297 119.421 256.019 115.874C255.895 115.533 255.659 115.043 255.354 114.47C256.44 113.602 259.667 110.935 262.613 107.554C265.091 104.711 267.373 101.361 268.014 98.159C268.308 96.7044 257.709 81.2209 252.769 76.5556ZM251.786 108.525C251.301 107.76 250.975 107.261 250.975 107.261L251.429 93.7162L256.099 100.1L251.786 108.525Z" fill="white"/>
<path d="M242.135 167.971L242.577 104.975L246.678 74.2213L246.854 74.2048C247.03 74.1884 247.217 74.1794 247.406 74.1794C249.057 74.1794 250.994 74.8007 252.118 75.6893C252.36 75.8804 252.632 76.1179 252.923 76.3942C255.563 78.8881 259.621 84.2479 262.538 88.4339C263.531 89.8586 268.471 97.0239 268.233 98.2022C267.675 100.993 265.841 104.189 262.782 107.699C259.981 110.911 256.949 113.471 255.637 114.527C255.92 115.069 256.119 115.496 256.228 115.796C257.496 119.311 259.088 140.815 260.202 158.235L260.209 158.343L260.129 158.414C259.364 159.1 258.55 159.767 257.709 160.398C253.603 163.479 248.468 166.004 242.448 167.903L242.435 167.908C242.424 167.911 242.416 167.914 242.405 167.915L242.135 167.971ZM243.017 105.02L242.581 167.396C248.438 165.521 253.437 163.048 257.442 160.044C258.243 159.443 259.019 158.809 259.751 158.158C258.64 140.785 257.057 119.407 255.81 115.948C255.698 115.638 255.478 115.175 255.159 114.574L255.072 114.412L255.215 114.297C256.428 113.327 259.561 110.717 262.446 107.409C265.453 103.958 267.254 100.831 267.796 98.1156C268.047 96.8701 257.672 81.4926 252.615 76.7167C252.333 76.4494 252.073 76.2209 251.84 76.0372C250.787 75.2054 248.963 74.623 247.403 74.623C247.288 74.623 247.176 74.626 247.067 74.6319L243.017 105.02Z" fill="#0E2549"/>
<path d="M251.807 108.97L251.599 108.643C251.114 107.88 250.79 107.382 250.79 107.382L250.753 107.324L251.229 93.0681L256.359 100.081L251.807 108.97ZM251.199 107.199C251.28 107.323 251.483 107.638 251.765 108.078L255.839 100.121L251.628 94.3659L251.199 107.199Z" fill="#0E2549"/>
<path d="M259.067 100.765C258.919 100.902 259.209 101.15 254.431 107.431C251.497 111.29 249.814 113.565 249.159 113.923C247.678 114.733 245.663 116.115 245.944 116.235L253.454 117.413C253.454 117.413 252.863 115.687 253.256 115.224C254.636 113.602 264.125 104.81 265.29 100.859C266.456 96.9089 259.067 100.765 259.067 100.765Z" fill="white"/>
<path d="M253.785 117.69L245.858 116.438C245.764 116.398 245.701 116.311 245.697 116.21C245.691 116.081 245.682 115.907 246.885 115.07C247.545 114.613 248.376 114.098 249.052 113.728C249.597 113.429 251.098 111.452 253.371 108.458L254.254 107.296C256.046 104.939 258.289 101.897 258.797 100.786C258.829 100.713 258.856 100.656 258.915 100.602L258.937 100.581L258.964 100.568C259.463 100.307 263.885 98.0531 265.241 99.1686C265.657 99.5106 265.745 100.102 265.503 100.923C264.582 104.049 258.583 110.109 255.359 113.366C254.448 114.288 253.727 115.015 253.425 115.369C253.232 115.596 253.399 116.57 253.664 117.342L253.785 117.69ZM246.304 116.066L253.137 117.139C252.968 116.556 252.732 115.499 253.089 115.081C253.401 114.713 254.091 114.017 255.045 113.053C258.241 109.824 264.189 103.816 265.079 100.796C265.266 100.162 265.226 99.7287 264.96 99.5106C264.013 98.7326 260.541 100.253 259.218 100.935C259.213 100.944 259.209 100.956 259.203 100.97C258.782 101.893 257.236 104.112 254.609 107.565L253.727 108.726C251.256 111.98 249.894 113.774 249.267 114.118C248.093 114.758 246.779 115.648 246.304 116.066Z" fill="#0E2549"/>
<path d="M254.363 117.782C254.351 117.782 254.34 117.78 254.328 117.779L244.01 116.178C243.889 116.159 243.806 116.045 243.825 115.924C243.845 115.803 243.958 115.719 244.079 115.739L254.397 117.34C254.518 117.359 254.602 117.473 254.582 117.594C254.564 117.704 254.47 117.782 254.363 117.782Z" fill="#0E2549"/>
<path d="M225.3 74.5468L229.242 71.2434L237.748 74.3556L235.172 77.659L225.3 74.5468Z" fill="#A1C5E2"/>
<path d="M247.012 74.1406L244.077 71.2434L237.748 74.3556L240.277 77.2289L247.012 74.1406Z" fill="#A1C5E2"/>
<path d="M247.396 74.2076L244.121 70.9744L237.735 74.1135L229.199 70.9893L224.847 74.6347L235.253 77.9142L237.584 74.9244C237.962 78.64 240.096 100.211 239.534 108.987C239.527 109.11 239.619 109.216 239.742 109.223C239.746 109.223 239.751 109.223 239.757 109.223C239.873 109.223 239.97 109.134 239.978 109.016C240.535 100.311 238.456 79.1164 238.041 75.02L240.221 77.496L247.396 74.2076ZM235.091 77.4005L225.752 74.457L229.285 71.4956L237.384 74.4585L235.091 77.4005ZM244.034 71.512L246.628 74.0717L240.335 76.9569L238.107 74.4256L244.034 71.512Z" fill="#0E2549"/>
<path d="M227.77 138.367C227.77 138.367 225.176 134.88 224.72 133.633C224.443 132.872 224.983 128.999 224.983 128.999L223.01 120.561L227.501 119.542C227.501 119.542 227.513 127.905 227.598 128.877C227.685 129.849 230.321 132.368 230.255 133.052C230.189 133.736 227.55 131.602 227.55 131.602C227.55 131.602 227.368 133.603 227.525 134.251C227.81 135.437 228.443 138.309 228.296 138.951C228.184 139.438 226.878 136.736 226.138 134.495C225.838 133.585 225.978 132.937 225.908 132.35L227.77 138.367Z" fill="white"/>
<path d="M228.23 139.233C228.118 139.233 227.963 139.179 227.578 138.479C227.345 138.164 224.96 134.935 224.512 133.708C224.231 132.938 224.68 129.566 224.758 129.009L222.743 120.395L227.722 119.265V119.543C227.722 119.626 227.734 127.907 227.819 128.858C227.858 129.293 228.611 130.246 229.217 131.012C230.024 132.03 230.515 132.676 230.476 133.076C230.463 133.218 230.385 133.33 230.263 133.38C229.824 133.566 228.605 132.713 227.739 132.036C227.691 132.723 227.643 133.796 227.74 134.202C227.839 134.61 228.695 138.204 228.512 139.003C228.475 139.166 228.357 139.229 228.26 139.233C228.25 139.233 228.241 139.233 228.23 139.233ZM227.975 138.282C228.015 138.356 228.054 138.424 228.09 138.485C228.034 137.637 227.69 135.882 227.309 134.306C227.146 133.63 227.322 131.668 227.33 131.584L227.367 131.17L227.69 131.432C228.572 132.145 229.661 132.883 230.025 132.962C229.945 132.65 229.328 131.869 228.868 131.287C228.127 130.35 227.427 129.465 227.376 128.897C227.298 128.015 227.28 121.302 227.277 119.82L223.275 120.73L225.206 128.99L225.2 129.03C224.986 130.564 224.736 133.035 224.927 133.557C225.143 134.151 225.878 135.293 226.568 136.3C226.328 135.71 226.105 135.111 225.924 134.566C225.711 133.92 225.709 133.406 225.708 132.953C225.708 132.75 225.706 132.558 225.684 132.378C225.669 132.257 225.756 132.145 225.877 132.13C225.998 132.117 226.11 132.202 226.124 132.323C226.15 132.528 226.15 132.732 226.151 132.95C226.153 133.37 226.154 133.846 226.345 134.426C226.823 135.874 227.509 137.425 227.951 138.241C227.963 138.255 227.969 138.268 227.975 138.282Z" fill="#0E2549"/>
<path d="M224.956 117.841C224.861 117.841 224.771 117.778 224.743 117.681C224.708 117.563 224.776 117.44 224.894 117.406L232.656 115.142C232.774 115.108 232.897 115.175 232.931 115.293C232.965 115.411 232.898 115.533 232.78 115.568L225.018 117.832C224.998 117.838 224.977 117.841 224.956 117.841Z" fill="#0E2549"/>
<path d="M221.867 116.793L223.729 127.738L228.34 126.697L228.998 115.515L221.867 116.793Z" fill="white"/>
<path d="M252.548 107.797L250.771 111.238L254.79 114.662L255.842 113.783L265.331 103.393L267.15 98.5577L265.14 97.2644L258.923 99.2267C258.923 99.2267 255.851 102.866 255.708 103.201C255.563 103.537 252.548 107.797 252.548 107.797Z" fill="white"/>
<path d="M227.961 86.388C227.961 87.5528 228.906 88.4981 230.071 88.4981C231.236 88.4981 232.181 87.5528 232.181 86.388C232.181 85.2231 231.236 84.2778 230.071 84.2778C228.906 84.2778 227.961 85.2231 227.961 86.388Z" fill="#EBF4FE"/>
<path d="M250.208 93.2915C250.286 91.6652 250.453 85.1002 248.265 82.6271C247.829 82.1343 247.32 81.8267 246.753 81.7057C246.959 80.5767 247.529 77.1449 247.456 73.9535C247.381 70.6531 246.006 70.1752 243.917 69.8213L243.793 70.5501C245.67 70.8682 246.653 71.1638 246.717 73.9699C246.79 77.1748 246.199 80.6409 246.01 81.6505C245.288 81.7042 244.641 82.0791 244.085 82.7645C241.957 85.3944 241.641 92.3476 241.82 94.7908C241.635 94.9372 241.515 95.1612 241.515 95.4151C241.515 95.8571 241.875 96.2155 242.316 96.2155C242.756 96.2155 243.116 95.8556 243.116 95.4151C243.116 95.0537 242.873 94.7505 242.543 94.6519C242.381 92.3491 242.694 85.6602 244.659 83.2305C245.146 82.6286 245.683 82.3524 246.294 82.3867C246.836 82.4166 247.299 82.6555 247.708 83.1185C249.668 85.3317 249.538 91.58 249.468 93.2078C249.236 93.3213 249.075 93.5573 249.075 93.8321C249.075 94.2159 249.387 94.528 249.771 94.528C250.155 94.528 250.467 94.2159 250.467 93.8321C250.47 93.6125 250.367 93.4199 250.208 93.2915Z" fill="#E2474B"/>
<path d="M230.313 83.9194C229.622 82.3962 225.336 72.4636 229.82 69.6306L229.424 69.0049C224.58 72.0648 228.509 81.7017 229.523 83.9702C228.418 84.2211 227.591 85.2082 227.591 86.388C227.591 87.756 228.703 88.8685 230.071 88.8685C231.439 88.8685 232.552 87.756 232.552 86.388C232.55 85.1022 231.567 84.0419 230.313 83.9194ZM230.071 88.1293C229.111 88.1293 228.33 87.3483 228.33 86.3895C228.33 85.4292 229.111 84.6497 230.071 84.6497C231.031 84.6497 231.812 85.4307 231.812 86.3895C231.811 87.3483 231.03 88.1293 230.071 88.1293Z" fill="#E2474B"/>
<path d="M254.806 115.143C254.755 115.143 254.706 115.127 254.664 115.091L250.173 111.323L251.588 108.426C251.641 108.315 251.774 108.271 251.885 108.324C251.995 108.378 252.04 108.511 251.986 108.622L250.725 111.207L254.949 114.752C255.043 114.831 255.055 114.972 254.976 115.064C254.931 115.116 254.869 115.143 254.806 115.143Z" fill="#0E2549"/>
<path d="M230.034 63.581C228.76 62.8059 226.516 61.2274 226.392 59.6026C226.269 57.9792 228.131 58.0957 228.708 58.3302C229.092 58.487 228.384 50.3674 228.384 50.3674L240.942 49.1936C240.942 49.1936 243.085 56.1125 242.813 60.621C242.54 65.1475 240.519 66.3975 237.244 66.6738C235.622 66.8112 234.331 66.5095 233.3 66.0346L230.034 63.581Z" fill="white"/>
<path d="M236.478 66.9991C235.294 66.9991 234.186 66.7646 233.178 66.3001C233.03 66.2315 232.966 66.0582 233.034 65.9104C233.103 65.7625 233.276 65.6983 233.424 65.767C234.561 66.2912 235.839 66.4973 237.22 66.3808C240.294 66.1209 242.251 65.0636 242.52 60.6028C242.758 56.6543 241.093 50.7375 240.73 49.5084L228.7 50.6329C228.753 51.2467 228.875 52.7416 228.972 54.238C229.24 58.318 229.086 58.4314 228.908 58.5629C228.817 58.6301 228.7 58.645 228.596 58.6017C228.266 58.4673 227.452 58.3926 227.004 58.7182C226.757 58.8974 226.653 59.1796 226.683 59.5799C226.765 60.6596 228.04 62.0261 230.185 63.3283C230.324 63.4119 230.367 63.5926 230.283 63.7315C230.2 63.8704 230.019 63.9137 229.88 63.8301C228.224 62.8235 226.223 61.2764 226.097 59.6232C226.039 58.8616 226.371 58.4524 226.657 58.2418C227.186 57.8565 227.979 57.8445 228.517 57.964C228.585 57.0112 228.361 53.5182 228.09 50.391L228.064 50.0998L241.151 48.8767L241.221 49.1037C241.309 49.3889 243.376 56.1256 243.104 60.6357C242.794 65.7894 240.114 66.7228 237.267 66.9632C237.002 66.9886 236.738 66.9991 236.478 66.9991Z" fill="#0E2549"/>
<path d="M242.307 48.6467C242.307 48.6467 230.833 52.5968 228.814 58.2283C228.814 58.2283 228.087 57.9371 227.576 57.9984C226.917 58.0775 226.693 58.309 226.693 58.309L227.498 49.4382L242.307 48.6467Z" fill="#0E2549"/>
<path d="M239.928 57.8479C239.693 57.8479 239.487 57.6791 239.445 57.4417L239.375 57.0354C239.329 56.7696 239.508 56.5157 239.774 56.4694C240.041 56.4231 240.293 56.6024 240.34 56.8682L240.41 57.2744C240.456 57.5402 240.277 57.7941 240.011 57.8404C239.983 57.8449 239.955 57.8479 239.928 57.8479Z" fill="#0E2549"/>
<path d="M234.342 58.3134C234.108 58.3134 233.902 58.1447 233.86 57.9072L233.79 57.501C233.743 57.2352 233.922 56.9813 234.188 56.935C234.456 56.8887 234.708 57.0679 234.754 57.3338L234.824 57.74C234.871 58.0058 234.692 58.2597 234.426 58.306C234.397 58.3119 234.369 58.3134 234.342 58.3134Z" fill="#0E2549"/>
<path d="M232.344 56.0362C232.247 56.0362 232.152 55.9884 232.096 55.9003C232.01 55.7629 232.049 55.5822 232.186 55.4941C233.56 54.6175 235.095 54.9311 235.161 54.9445C235.319 54.9789 235.421 55.1342 235.386 55.2925C235.353 55.4508 235.197 55.5523 235.038 55.5195C235.016 55.515 233.664 55.2477 232.501 55.9899C232.452 56.0213 232.398 56.0362 232.344 56.0362Z" fill="#0E2549"/>
<path d="M240.113 61.3151C240.319 61.5421 239.257 62.462 238.391 62.462C236.212 62.4635 235.538 60.9149 236.028 61.1583C236.213 61.2509 237.312 61.7422 238.391 61.6631C239.774 61.563 239.88 61.0582 240.113 61.3151Z" fill="#0E2549"/>
<path d="M238.007 60.7045C237.869 60.7045 237.747 60.6075 237.718 60.4686C237.687 60.3103 237.79 60.155 237.948 60.1236C238.52 60.0101 239.103 59.8234 239.292 59.6995C239.252 59.6398 239.177 59.5502 239.107 59.4695C238.816 59.123 238.328 58.5451 237.841 57.3892C237.778 57.2399 237.848 57.0681 237.998 57.0039C238.148 56.9412 238.32 57.0114 238.383 57.1607C238.835 58.2345 239.286 58.7706 239.557 59.0902C239.778 59.353 239.939 59.5427 239.899 59.8085C239.878 59.9429 239.817 60.3506 238.065 60.7001C238.045 60.703 238.026 60.7045 238.007 60.7045ZM239.319 59.7458H239.321H239.319Z" fill="#0E2549"/>
<path d="M238.388 55.1922C238.268 55.1922 238.156 55.119 238.113 55.001C238.056 54.8487 238.134 54.68 238.286 54.6232C239.635 54.1244 240.806 54.3216 240.855 54.3305C241.015 54.3589 241.121 54.5112 241.092 54.671C241.064 54.8308 240.913 54.9383 240.753 54.91C240.743 54.9085 239.682 54.7337 238.489 55.1743C238.456 55.1862 238.422 55.1922 238.388 55.1922Z" fill="#0E2549"/>
<path d="M235.687 45.3568C235.687 45.3568 249.121 43.3019 247.143 66.6675C245.931 80.9952 242.868 85.3439 242.868 85.3439C242.868 85.3439 243.683 80.3873 242.608 65.3339C242.24 60.1892 243.087 57.4921 242.115 54.5815C240.017 48.2838 235.687 45.3568 235.687 45.3568Z" fill="#0E2549"/>
<path d="M235.597 45.2774C235.597 45.2774 212.561 44.0408 228.049 85.3825L231.817 56.1777L235.597 45.2774Z" fill="#0E2549"/>
<path d="M223.627 127.998L222.071 121.238C222.044 121.118 222.117 120.999 222.238 120.972C222.356 120.945 222.477 121.018 222.504 121.139L223.965 127.48L228.776 126.518V111.695L228.46 93.6845C228.458 93.562 228.555 93.4605 228.678 93.459C228.679 93.459 228.681 93.459 228.682 93.459C228.803 93.459 228.902 93.5561 228.905 93.677L229.222 111.692V126.883L223.627 127.998Z" fill="#0E2549"/>
<path d="M254.806 115.143C254.742 115.143 254.678 115.115 254.634 115.062C254.557 114.967 254.57 114.828 254.666 114.75L255.634 113.959C255.729 113.881 255.868 113.896 255.946 113.99C256.023 114.086 256.01 114.225 255.914 114.302L254.947 115.094C254.906 115.127 254.855 115.143 254.806 115.143Z" fill="#0E2549"/>
<path d="M14.6772 153.708L20.3551 164.777L25.3356 157.68L20.0072 147.746L14.6772 153.708Z" fill="white"/>
<path d="M20.3251 165.205L14.4113 153.672L20.0533 147.361L25.5968 157.695L20.3251 165.205ZM14.9444 153.742L20.3833 164.35L25.0756 157.667L19.9607 148.131L14.9444 153.742Z" fill="#0E2549"/>
<path d="M34.2867 101.767L34.9498 89.6855H48.0499L51.8924 103.755L34.2867 101.767Z" fill="white"/>
<path d="M42.5963 41.7673C42.5963 41.7673 50.6606 41.6509 56.2026 48.6071C61.7446 55.5648 61.3339 56.8581 59.954 61.9043C58.5741 66.9505 57.6228 69.985 61.4489 72.1564C65.275 74.3278 65.5035 76.6814 66.2054 78.5004C66.9058 80.3193 64.0265 84.7667 64.9165 86.9604C68.1288 94.8739 68.426 98.7941 68.426 98.7941L13.5617 100.488C13.5617 100.488 12.697 91.142 14.0366 87.3517C14.9386 84.7995 20.5015 81.0167 20.9286 77.9209C21.2198 75.8063 18.3465 70.333 19.7249 67.8211C22.2398 63.2379 24.5486 63.2588 23.7257 58.2559C23.2852 55.5768 25.2744 40.253 42.5963 41.7673Z" fill="#0E2549"/>
<path d="M34.645 69.104C34.645 69.104 35.2692 84.4307 34.6838 85.2386C32.6812 87.9984 26.7464 90.4267 25.3919 90.7926C24.0374 91.157 45.5572 110.588 45.5572 110.588L58.8231 94.5933L54.4743 90.6686C54.4743 90.6686 50.8185 88.8303 49.2116 87.1711C47.6047 85.5119 46.8236 69.9179 46.8236 69.9179L34.645 69.104Z" fill="white"/>
<path d="M45.5811 110.906L45.4094 110.75C45.3586 110.704 40.2213 106.064 35.1856 101.334C24.9066 91.681 25.0499 91.0837 25.1186 90.7969C25.144 90.6894 25.2261 90.6073 25.3352 90.5774C26.8928 90.1578 32.6125 87.7146 34.5046 85.1086C34.8929 84.459 34.6614 74.9535 34.424 69.1143L34.4135 68.8679L47.0357 69.7087L47.0461 69.9058C47.2627 74.2203 48.102 85.703 49.3714 87.0157C50.9334 88.6285 54.5385 90.452 54.5743 90.4699L54.6012 90.4833L59.1307 94.5708L45.5811 110.906ZM25.5816 90.9672C26.2611 92.5069 37.9887 103.448 45.5333 110.266L58.5154 94.6141L54.3459 90.8522C53.983 90.6685 50.6094 88.9347 49.0503 87.3233C47.4867 85.706 46.7116 72.022 46.6116 70.1224L34.8765 69.3398C34.9989 72.3953 35.4454 84.5635 34.863 85.367C32.8559 88.1327 27.1496 90.4983 25.5816 90.9672Z" fill="#0E2549"/>
<path d="M34.8368 71.6071C33.0358 70.4124 29.8757 67.9946 29.7906 65.635C29.7055 63.2755 32.3966 63.5517 33.218 63.9251C33.7645 64.173 33.206 52.3737 33.206 52.3737L51.4643 51.3955C51.4643 51.3955 54.1703 61.5401 53.5162 68.0543C52.8606 74.5954 49.8618 76.2889 45.1009 76.501C42.7428 76.607 40.891 76.0948 39.4245 75.3481L34.8368 71.6071Z" fill="white"/>
<path d="M44.5002 76.7367C42.614 76.7367 40.8757 76.3364 39.3241 75.5449C39.2151 75.4897 39.1718 75.3553 39.227 75.2463C39.2823 75.1372 39.4167 75.0939 39.5257 75.1492C41.1744 75.99 43.0456 76.3693 45.0916 76.2782C49.5389 76.0796 52.6362 74.6011 53.2948 68.0317C53.8892 62.0954 51.6446 52.9947 51.2937 51.6267L33.4371 52.5825C33.47 53.2993 33.573 55.6574 33.6328 58.0185C33.7806 63.8323 33.5491 63.9891 33.3804 64.1041C33.3042 64.1563 33.2086 64.1638 33.125 64.1264C32.6486 63.9099 31.3807 63.7068 30.6161 64.2205C30.192 64.5043 29.9874 64.9777 30.0113 65.6273C30.0919 67.8659 33.1459 70.2195 34.9589 71.4217C35.0604 71.4889 35.0888 71.6278 35.0216 71.7293C34.9544 71.8309 34.817 71.8592 34.714 71.792C32.8293 70.5421 29.6559 68.081 29.5677 65.6437C29.5319 64.6312 29.9829 64.1115 30.3682 63.8532C31.2045 63.2931 32.4754 63.4305 33.1295 63.6545C33.3595 62.5793 33.1683 56.2996 32.9831 52.3854L32.9727 52.1644L51.6312 51.1653L51.6775 51.34C51.7043 51.4416 54.385 61.5981 53.7369 68.078C53.4173 71.2574 52.5212 73.4632 50.995 74.8177C49.6479 76.0139 47.8335 76.6023 45.111 76.7232C44.9064 76.7322 44.7033 76.7367 44.5002 76.7367Z" fill="#0E2549"/>
<path d="M106.164 103.688C103.231 105.032 91.121 115.845 91.121 115.845L98.7761 120.33C98.7761 120.33 106.268 108.791 107.427 108.732C109.603 108.625 116.094 109.37 118.313 108.141C121.67 106.282 123.541 103.71 123.233 102.834C123.068 102.362 117.281 105.198 116.068 105.126C112.648 104.927 108.255 102.729 106.164 103.688Z" fill="white"/>
<path d="M98.8449 120.629L90.7448 115.883L90.9717 115.68C91.4676 115.238 103.14 104.829 106.07 103.484C107.384 102.881 109.479 103.437 111.696 104.025C113.18 104.418 114.714 104.826 116.08 104.905C116.64 104.936 118.496 104.203 119.987 103.611C122.136 102.76 122.977 102.453 123.286 102.593C123.36 102.627 123.414 102.686 123.441 102.759C123.82 103.84 121.709 106.512 118.419 108.334C116.757 109.253 112.863 109.106 110.02 108.998C108.951 108.958 108.026 108.922 107.436 108.952C106.738 109.053 102.577 114.876 98.9599 120.448L98.8449 120.629ZM91.4959 115.808L98.7045 120.031C99.1436 119.358 100.771 116.88 102.484 114.425C106.582 108.552 107.166 108.523 107.416 108.51C108.025 108.48 108.958 108.516 110.038 108.556C112.829 108.662 116.652 108.807 118.205 107.947C121.431 106.161 123.119 103.798 123.044 103.002C122.641 103.039 121.27 103.582 120.151 104.025C118.461 104.694 116.713 105.387 116.055 105.348C114.644 105.266 113.087 104.854 111.582 104.455C109.444 103.889 107.424 103.353 106.255 103.889L106.163 103.688L106.255 103.889C103.606 105.103 93.1745 114.318 91.4959 115.808Z" fill="#0E2549"/>
<path d="M63.6649 91.7856C70.3016 97.0454 80.8285 120.62 82.9387 119.624C84.9264 118.686 96.8108 107.657 96.8108 107.657L105.562 114.427C105.562 114.427 88.1013 138.996 77.9731 137.366C70.7571 136.204 62.848 118.341 62.848 118.341L61.7026 144.252L28.149 144.721L22.8504 116.336L14.9026 130.836L22.6608 149.12L14.9026 159.15C14.9026 159.15 0 143.844 0 130.836C0 123.806 11.2916 97.9414 16.0182 93.0834C19.2185 89.7934 23.7749 89.3708 25.3355 89.3678C26.9468 89.3648 36.8958 88.4121 37.4678 89.3678C37.8232 89.9592 44.321 101.899 44.7152 102.072C46.0085 102.64 48.4666 89.0438 48.4666 89.0438C51.2683 88.6346 61.8714 90.3639 63.6649 91.7856Z" fill="#E2474B"/>
<path d="M70.4614 165.825C66.5487 167.463 62.642 168.927 58.8234 170.02C42.4543 174.703 28.9704 173.074 19.3336 166.696C19.5411 165.782 19.7577 164.898 19.9772 164.045C20.0056 163.937 20.034 163.83 20.0623 163.721L20.0683 163.695L20.0713 163.692C21.1032 159.778 22.2128 156.505 23.2687 153.827C25.8328 147.317 28.0789 144.348 28.0789 144.348L61.7191 143.823C61.7191 143.823 61.7191 143.823 61.7206 143.824C61.7594 143.899 62.4061 145.14 63.3708 147.395C64.337 149.65 65.6184 152.922 66.9311 157.057C67.0446 157.417 69.1114 162.477 70.4614 165.825Z" fill="#0E2549"/>
<path d="M49.5704 63.3169C49.3001 63.3169 49.0656 63.1168 49.0283 62.8405L48.9506 62.2476C48.9118 61.9474 49.1223 61.6727 49.421 61.6338C49.7212 61.5935 49.996 61.8056 50.0348 62.1042L50.1125 62.6971C50.1513 62.9973 49.9407 63.2721 49.642 63.3109C49.6181 63.3154 49.5943 63.3169 49.5704 63.3169Z" fill="#0E2549"/>
<path d="M41.4536 63.6725C41.1833 63.6725 40.9488 63.4724 40.9115 63.1961L40.8338 62.6033C40.795 62.3031 41.0056 62.0283 41.3043 61.9895C41.6044 61.9506 41.8792 62.1612 41.918 62.4599L41.9957 63.0528C42.0345 63.3529 41.824 63.6277 41.5253 63.6666C41.5014 63.671 41.4775 63.6725 41.4536 63.6725Z" fill="#0E2549"/>
<path d="M38.2491 61.3505C38.1297 61.3505 38.0177 61.2773 37.9729 61.1593C37.9146 61.007 37.9908 60.8352 38.1446 60.777C41.8811 59.3538 43.5238 60.0885 43.591 60.1199C43.7388 60.1886 43.8031 60.3648 43.7329 60.5142C43.6642 60.662 43.4895 60.7247 43.3416 60.6575C43.3147 60.6456 41.8034 60.0168 38.3552 61.3311C38.3193 61.343 38.2835 61.3505 38.2491 61.3505Z" fill="#0E2549"/>
<path d="M46.9034 67.2865C46.772 67.2865 46.651 67.1969 46.6166 67.064C46.5763 66.9057 46.6719 66.7444 46.8302 66.7041C47.0094 66.6548 48.1011 66.1157 48.3251 65.6199C48.3774 65.5049 48.3579 65.4377 48.3355 65.3929C47.8636 64.4311 46.3583 61.2158 46.7735 60.2406C46.8631 60.0301 47.0154 59.9435 47.1259 59.9076C50.7056 58.7667 51.845 59.6627 51.963 59.7687C52.084 59.8777 52.0944 60.0644 51.9854 60.1869C51.8779 60.3064 51.6942 60.3183 51.5717 60.2138C51.5434 60.1914 50.5293 59.4462 47.317 60.4676C47.1393 60.7439 47.5724 62.4972 48.8642 65.133C48.9762 65.363 48.9747 65.6184 48.8582 65.8722C48.5088 66.6309 47.1826 67.2253 46.9751 67.2775C46.9527 67.2835 46.9288 67.2865 46.9034 67.2865Z" fill="#0E2549"/>
<path d="M46.2488 142.065C46.1308 142.065 46.0322 141.971 46.0277 141.852L44.497 102.135C44.1162 101.491 40.0766 94.6604 37.2734 89.4724C37.2152 89.3648 37.2555 89.2304 37.3631 89.1722C37.4706 89.114 37.605 89.1543 37.6632 89.2618C40.5888 94.6768 44.8629 101.885 44.9062 101.959L44.9346 102.006L44.9361 102.063L46.4698 141.837C46.4743 141.959 46.3787 142.062 46.2562 142.067C46.2547 142.065 46.2517 142.065 46.2488 142.065Z" fill="#0E2549"/>
<path d="M53.0184 51.3952C53.0184 51.3952 36.3864 56.1532 33.4594 64.3176C33.4594 64.3176 32.4066 63.8964 31.6658 63.9845C30.7115 64.0995 30.386 64.4356 30.386 64.4356L30.8952 50.886L53.0184 51.3952Z" fill="#0E2549"/>
<path d="M43.6351 69.5307C43.6351 69.5307 47.6225 72.9222 49.4922 69.1364C49.4922 69.1364 48.52 68.5182 47.2387 69.1753C47.2387 69.1753 45.8245 68.7422 43.6351 69.5307Z" fill="#E2474B"/>
<path d="M60.8575 108.38H51.0922V113.904H60.8575V108.38Z" fill="white"/>
<path d="M61.0796 114.125H50.8693V108.158H61.0796V114.125ZM51.3144 113.682H60.6361V108.601H51.3144V113.682Z" fill="#0E2549"/>
<path d="M189.106 55.6482C189.106 55.6482 189.448 64.8878 188.628 65.9422C187.808 66.9965 182.13 71.0406 182.13 71.0406L197.584 79.9771L206.869 69.5801C206.869 69.5801 202.179 67.5252 201.737 66.3065C201.123 64.6205 201.236 55.6482 201.236 55.6482H189.106Z" fill="white"/>
<path d="M197.629 80.2608L181.721 71.06L182.002 70.8599C182.058 70.8195 187.663 66.8217 188.453 65.8047C189.018 65.0789 189.021 59.3368 188.885 55.6556L189.328 55.6392C189.364 56.5934 189.649 64.9908 188.804 66.0765C188.071 67.0188 183.709 70.1804 182.539 71.0196L197.537 79.6933L206.499 69.6577C205.412 69.1649 201.94 67.5161 201.526 66.3812C200.907 64.6757 201.007 56.0125 201.011 55.6436L201.455 55.6496C201.453 55.7392 201.35 64.5995 201.943 66.2288C202.279 67.1547 205.675 68.8139 206.955 69.3754L207.236 69.4979L197.629 80.2608Z" fill="#0E2549"/>
<path d="M198.087 37.3036C200.024 37.5097 204.737 37.9488 204.737 41.4075C204.737 45.353 204.069 50.4246 203.672 53.0948C203.515 54.1491 202.61 54.9287 201.544 54.9287H189.607C188.514 54.9287 187.594 54.1088 187.47 53.0231C187.052 49.3658 185.521 40.9625 185.956 39.7946C187.435 35.8207 195.019 36.9766 198.087 37.3036Z" fill="#0E2549"/>
<path d="M197.927 59.001C194.542 59.3937 190.314 58.7531 189.142 57.5807C188.453 56.8923 188.178 54.1713 188.099 51.068C188.096 50.9784 188.047 50.8978 187.969 50.853C187.133 50.3736 185.922 49.3477 185.958 47.808C185.988 46.4744 186.99 46.7536 187.778 47.1837C187.919 47.2599 188.122 47.1568 188.092 47C187.403 43.4024 187.084 39.7959 187.084 39.7959L203.51 39.9766C203.51 39.9766 203.48 43.3143 203.335 47.0568C203.329 47.224 203.508 47.3331 203.654 47.2494C204.455 46.7865 205.559 46.4086 205.59 47.8095C205.63 49.5552 204.068 50.6409 203.266 51.0173C203.183 51.0561 203.127 51.1382 203.121 51.2293C202.945 53.8697 202.693 56.1516 202.328 56.961C202.13 57.4015 201.75 57.7659 201.241 58.0646L197.927 59.001Z" fill="white"/>
<path d="M195.793 59.3414C192.842 59.3414 189.951 58.7037 188.985 57.7375C188.337 57.0893 187.974 54.909 187.878 51.0739C187.878 51.062 187.871 51.0515 187.859 51.0456C187.206 50.6722 185.694 49.6074 185.735 47.8034C185.747 47.2658 185.91 46.9029 186.219 46.7237C186.596 46.5056 187.147 46.5908 187.86 46.9761C187.185 43.4292 186.864 39.8496 186.861 39.8137L186.84 39.5703L203.734 39.7555L203.732 39.9765C203.732 40.0094 203.701 43.3501 203.558 47.0477C204.328 46.6057 204.921 46.4952 205.32 46.7192C205.635 46.8954 205.799 47.2613 205.813 47.8034C205.85 49.4551 204.516 50.6752 203.362 51.2173C203.351 51.2218 203.345 51.2322 203.344 51.2442C203.133 54.4057 202.868 56.3053 202.532 57.052C202.323 57.5164 201.927 57.9211 201.353 58.2557C201.247 58.3169 201.111 58.2811 201.05 58.175C200.989 58.069 201.025 57.9331 201.131 57.8719C201.622 57.5851 201.957 57.2476 202.127 56.8698C202.339 56.3979 202.647 55.0329 202.9 51.2158C202.912 51.0426 203.015 50.8902 203.172 50.8171C203.402 50.7095 205.411 49.709 205.369 47.8153C205.36 47.4405 205.27 47.2016 205.103 47.1075C204.857 46.9686 204.382 47.0881 203.767 47.442C203.629 47.5211 203.46 47.5197 203.325 47.4375C203.189 47.3554 203.108 47.206 203.114 47.0477C203.236 43.8967 203.277 41.001 203.286 40.1946L187.327 40.0198C187.412 40.889 187.732 43.9445 188.31 46.9581C188.338 47.1045 188.277 47.2523 188.153 47.3434C188.014 47.445 187.82 47.4584 187.672 47.3778C187.109 47.0701 186.673 46.9746 186.443 47.1075C186.277 47.2031 186.189 47.4405 186.18 47.8124C186.145 49.3789 187.498 50.3257 188.081 50.6603C188.226 50.7439 188.319 50.8977 188.323 51.0635C188.438 55.6288 188.918 57.043 189.3 57.4253C190.404 58.529 194.505 59.1756 197.904 58.7828C198.025 58.7694 198.135 58.856 198.15 58.9785C198.163 59.1009 198.077 59.2099 197.954 59.2249C197.248 59.3025 196.519 59.3414 195.793 59.3414Z" fill="#0E2549"/>
<path d="M213.817 123.701L213.702 148.662V148.663L213.69 151.306V151.308L213.644 161.547L213.59 173.176C211.246 173.271 208.904 173.288 206.564 173.23C206.314 173.225 206.063 173.218 205.814 173.209C203.244 173.128 200.675 172.958 198.098 172.701L195.456 143.018L193.049 172.096C187.734 171.349 182.362 170.256 176.878 168.86V122.839L177.828 122.862L177.855 122.863L181.658 122.951L183.736 123.001L189.808 123.143L203.072 123.452L205.589 123.51L213.817 123.701Z" fill="#0E2549"/>
<path d="M186.74 67.3264H204.734L208.834 84.6349L205.589 123.515L183.731 123.066L186.74 67.3264Z" fill="#2E6B99"/>
<path d="M188.03 51.1681C188.03 51.1681 188.581 52.0104 189.522 52.9318C190.609 53.9966 200.657 53.4142 201.363 53.0573C202.919 52.2702 202.518 50.9068 203.102 51.0248C203.824 51.1711 203.025 58.2886 202.276 59.2892C201.526 60.2898 194.229 60.6377 190.312 59.8373C187.06 59.1727 188.03 51.1681 188.03 51.1681Z" fill="#0E2549"/>
<path d="M226.311 107.881C226.311 107.881 219.455 112.033 214.578 111.936C214.41 111.933 219.337 161.567 219.337 161.567C218.272 161.519 204.422 161.567 204.422 161.567C202.444 160.192 203.187 80.6058 203.187 80.6058C203.013 80.2011 203.729 66.432 203.729 66.432C204.525 65.9511 217.938 71.4304 217.938 71.4304L228.583 98.3772C229.743 101.316 229.117 106.428 226.311 107.881Z" fill="#A1C5E2"/>
<path d="M190.386 161.567H172.322C172.322 161.567 176.46 125.479 176.3 125.405C171.236 123.05 163.841 103.579 163.405 102.616C162.738 101.148 162.655 99.4361 163.264 97.8531L173.521 71.2318L186.543 66.4455C187.057 66.2723 186.909 67.7373 186.97 68.4004C188.983 89.9441 191.352 160.897 190.386 161.567Z" fill="#A1C5E2"/>
<path d="M191.689 49.1416C191.476 49.1416 191.301 48.9699 191.298 48.7548L191.295 48.3994C191.294 48.1843 191.465 48.0066 191.682 48.0051C191.683 48.0051 191.685 48.0051 191.686 48.0051C191.9 48.0051 192.075 48.1769 192.078 48.3919L192.081 48.7473C192.082 48.9624 191.91 49.1401 191.694 49.1416C191.692 49.1416 191.691 49.1416 191.689 49.1416Z" fill="#0E2549"/>
<path d="M198.889 49.1416C198.888 49.1416 198.886 49.1416 198.885 49.1416C198.668 49.1401 198.495 48.9624 198.498 48.7473L198.501 48.3919C198.502 48.1769 198.677 48.0051 198.892 48.0051C198.894 48.0051 198.895 48.0051 198.897 48.0051C199.113 48.0066 199.286 48.1843 199.284 48.3994L199.281 48.7548C199.279 48.9699 199.104 49.1416 198.889 49.1416Z" fill="#0E2549"/>
<path d="M200.402 46.8194C200.35 46.8194 200.298 46.806 200.251 46.7776C199.176 46.137 197.995 46.4461 197.983 46.4491C197.825 46.4924 197.663 46.3983 197.62 46.2415C197.577 46.0847 197.669 45.9219 197.826 45.8786C197.884 45.8622 199.257 45.4948 200.555 46.2699C200.695 46.3535 200.741 46.5357 200.658 46.6761C200.601 46.7687 200.502 46.8194 200.402 46.8194Z" fill="#0E2549"/>
<path d="M194.966 67.3266L189.349 71.4708L183.731 69.1008L186.876 65.657L194.966 67.3266Z" fill="#2E6B99"/>
<path d="M194.966 67.3266L200.301 71.9651L206.25 68.0165L203.471 65.657L194.966 67.3266Z" fill="#2E6B99"/>
<path d="M206.619 68.0377L203.532 65.4183L194.966 67.0999L186.796 65.4138L183.353 69.1831L189.378 71.7249L194.742 67.7674V97.2381C194.742 97.3605 194.842 97.4606 194.965 97.4606C195.087 97.4606 195.187 97.3605 195.187 97.2381V67.8152L200.283 72.2446L206.619 68.0377ZM189.319 71.2186L184.108 69.0189L186.955 65.9007L194.434 67.4448L189.319 71.2186ZM203.408 65.8962L205.881 67.9944L200.318 71.6861L195.453 67.4568L203.408 65.8962Z" fill="#0E2549"/>
<path d="M190.385 46.8196C190.285 46.8196 190.187 46.7673 190.132 46.6747C190.048 46.5343 190.094 46.3521 190.235 46.2685C191.532 45.4949 192.906 45.8623 192.963 45.8772C193.12 45.9205 193.212 46.0833 193.169 46.2416C193.126 46.3984 192.963 46.491 192.806 46.4477C192.794 46.4447 191.613 46.1356 190.538 46.7763C190.49 46.8061 190.438 46.8196 190.385 46.8196Z" fill="#0E2549"/>
<path d="M192.907 54.0686C192.677 54.4091 193.852 55.5724 195.217 55.5127C197.445 55.4141 198.135 53.8879 197.596 53.9954C197.385 54.0372 196.576 54.4972 195.242 54.53C193.804 54.5659 193.062 53.8416 192.907 54.0686Z" fill="white"/>
<path d="M195.537 142.625C195.529 142.625 195.522 142.625 195.516 142.623C195.393 142.612 195.304 142.504 195.316 142.382L196.237 132.769L198.48 132.201L199.77 128.572C199.811 128.457 199.938 128.396 200.054 128.438C200.169 128.48 200.23 128.606 200.188 128.721L198.819 132.573L196.649 133.123L195.758 142.423C195.746 142.538 195.65 142.625 195.537 142.625Z" fill="#A1C5E2"/>
<path d="M180.516 119.748C180.516 119.748 181.712 123.47 182.223 124.089C182.733 124.711 184.491 125.405 184.491 125.405L178.577 129.791C178.577 129.791 178.382 127.75 178.137 126.386C178.011 125.684 176.876 124.424 176.876 124.424C176.876 124.424 177.517 123.277 178.388 122.111C179.2 121.023 180.314 119.962 180.516 119.748Z" fill="white"/>
<path d="M185.169 124.9C185.096 124.802 184.957 124.781 184.859 124.854L184.458 125.151C183.916 124.927 182.756 124.386 182.395 123.947C181.997 123.465 181.057 120.702 180.728 119.678L180.613 119.319L180.355 119.594C180.32 119.63 180.259 119.691 180.177 119.775C179.76 120.194 178.891 121.067 178.21 121.978C177.341 123.141 176.69 124.303 176.684 124.315L176.606 124.454L176.712 124.572C177.015 124.909 177.825 125.899 177.919 126.425C178.159 127.764 178.355 129.792 178.356 129.812L178.394 130.203L184.942 125.344L185.123 125.211C185.222 125.138 185.242 124.999 185.169 124.9ZM177.148 124.397C177.344 124.061 177.886 123.154 178.566 122.243C179.19 121.407 179.984 120.598 180.417 120.163C180.74 121.14 181.606 123.689 182.051 124.231C182.447 124.713 183.488 125.214 184.046 125.459L178.76 129.382C178.689 128.719 178.536 127.346 178.356 126.349C178.241 125.713 177.451 124.748 177.148 124.397Z" fill="#0E2549"/>
<path d="M176.3 125.626C176.269 125.626 176.237 125.62 176.209 125.607C176.097 125.556 176.048 125.424 176.098 125.312C177.468 122.306 180.868 118.906 181.525 118.264L174.96 100.828L174.999 100.745L177.889 94.4439C177.94 94.3319 178.071 94.2826 178.183 94.3349C178.295 94.3856 178.343 94.5171 178.292 94.6291L175.441 100.845L182.044 118.38L181.938 118.482C181.897 118.519 177.953 122.309 176.502 125.496C176.464 125.578 176.384 125.626 176.3 125.626Z" fill="#0E2549"/>
<path d="M195.643 52.3089C195.628 52.3089 195.611 52.3074 195.596 52.3044C195.384 52.2596 194.324 52.0028 194.214 51.4084C194.13 50.9559 194.178 50.8335 194.763 49.3326C194.892 49.004 195.045 48.6083 195.232 48.1244C195.275 48.0095 195.405 47.9527 195.519 47.9975C195.634 48.0408 195.691 48.1692 195.646 48.2842C195.459 48.7681 195.305 49.1653 195.177 49.4939C194.606 50.9574 194.591 51.0082 194.651 51.3278C194.691 51.5443 195.28 51.7818 195.691 51.8699C195.81 51.8953 195.886 52.0132 195.861 52.1342C195.837 52.2372 195.744 52.3089 195.643 52.3089Z" fill="#0E2549"/>
<path d="M195.553 46.9612L195.578 47.3554C195.584 47.4436 195.59 47.5361 195.597 47.6332C195.247 47.5869 194.936 47.5974 194.67 47.6377C194.678 47.5406 194.684 47.445 194.689 47.3554L194.715 46.9612H188.104L188.142 47.3659C188.22 48.1783 188.525 50.8739 189.158 51.4369C189.525 51.7639 190.587 51.9506 191.633 51.9506C192.612 51.9506 193.577 51.7863 193.943 51.422C194.286 51.0785 194.491 49.6463 194.607 48.3978C194.873 48.3381 195.227 48.3097 195.66 48.3904C195.777 49.6403 195.981 51.077 196.325 51.422C196.689 51.7863 197.654 51.9506 198.634 51.9506C199.679 51.9506 200.741 51.7639 201.108 51.4369C201.741 50.8739 202.046 48.1783 202.124 47.3659L202.162 46.9612H195.553ZM189.651 50.8843C189.397 50.6588 189.086 49.1311 188.922 47.7004H193.922C193.917 47.7527 193.913 47.8035 193.91 47.8557C193.738 47.9334 193.641 48.0006 193.626 48.011C193.459 48.129 193.42 48.3605 193.54 48.5263C193.61 48.6248 193.719 48.6771 193.832 48.6801C193.717 49.7583 193.559 50.7111 193.42 50.8993C192.948 51.3727 190.085 51.2696 189.651 50.8843ZM200.617 50.8843C200.182 51.2711 197.319 51.3727 196.855 50.9082C196.709 50.7126 196.547 49.7329 196.431 48.6353C196.443 48.6398 196.453 48.6442 196.465 48.6487C196.514 48.6711 196.567 48.6816 196.617 48.6816C196.758 48.6816 196.894 48.6009 196.955 48.4635C197.039 48.2769 196.956 48.0588 196.77 47.9737C196.626 47.9095 196.489 47.8557 196.355 47.8109C196.352 47.7736 196.349 47.7363 196.346 47.7004H201.347C201.181 49.1311 200.872 50.6573 200.617 50.8843Z" fill="#E2474B"/>
<path d="M187.04 65.3286L180.103 71.3649L185.281 73.6199L181.57 79.7892L188.696 96.1523L187.04 65.3286Z" fill="white"/>
<path d="M188.983 97.368L181.321 79.7729L184.961 73.7216L179.693 71.4278L187.237 64.8628L188.983 97.368ZM181.819 79.8057L188.408 94.9353L186.843 65.7947L180.514 71.3023L185.602 73.5185L181.819 79.8057Z" fill="#0E2549"/>
<path d="M203.255 65.4868L210.481 71.1752L205.463 73.9783L209.43 79.6621L203.255 96.1522V65.4868Z" fill="white"/>
<path d="M203.033 97.377V65.03L210.879 71.2067L205.785 74.0516L209.679 79.631L209.638 79.74L203.033 97.377ZM203.476 65.9455V94.9263L209.181 79.6937L205.142 73.9038L210.082 71.144L203.476 65.9455Z" fill="#0E2549"/>
<path d="M216.803 106.357C211.873 108.928 209.018 110.468 208.162 110.52C207.417 110.565 206.984 108.344 205.226 108.583L206.552 111.008C205.384 111.24 202.562 111.503 202.678 111.634L205.672 113.175L204.128 115.035L206.654 114.276L203.997 116.512L207.683 116.122L205.096 118.338L209.479 117.16C209.579 117.133 209.661 117.067 209.709 116.975C210.02 116.382 211.226 114.124 211.776 113.874C212.331 113.622 213.967 113.262 216.153 112.808C222.718 111.443 224.827 102.171 216.803 106.357Z" fill="white"/>
<path d="M204.142 118.838L206.946 116.437L203.246 116.828L205.616 114.835L203.439 115.489L205.3 113.25L202.531 111.825L202.406 111.685L202.452 111.539C202.524 111.346 202.585 111.321 204.495 111.07C205.095 110.991 205.712 110.91 206.184 110.831L204.85 108.392L205.194 108.346C206.408 108.181 207.058 109.049 207.531 109.682C207.755 109.982 207.985 110.295 208.148 110.283C208.862 110.239 211.387 108.919 215.209 106.921L216.691 106.146C219.547 104.657 220.919 104.942 221.569 105.444C222.174 105.911 222.377 106.731 222.141 107.751C221.664 109.817 219.421 112.372 216.203 113.039C214.326 113.429 212.447 113.829 211.877 114.089C211.575 114.227 210.772 115.457 209.922 117.082C209.844 117.231 209.705 117.343 209.541 117.387L204.142 118.838ZM208.421 115.799L206.053 117.829L209.419 116.924C209.454 116.915 209.483 116.891 209.499 116.86C210.067 115.774 211.103 113.915 211.68 113.652C212.237 113.399 213.726 113.063 216.108 112.569C219.13 111.942 221.233 109.563 221.676 107.641C221.868 106.812 221.726 106.165 221.278 105.819C220.837 105.477 219.683 105.121 216.914 106.566L215.431 107.341C211.281 109.511 208.993 110.707 208.178 110.756C207.756 110.783 207.477 110.404 207.15 109.966C206.765 109.451 206.335 108.876 205.624 108.809L206.919 111.177L206.601 111.24C206.099 111.34 205.316 111.442 204.559 111.542C204.157 111.594 203.7 111.654 203.351 111.707L206.05 113.096L204.82 114.575L207.692 113.711L204.749 116.188L208.421 115.799Z" fill="#0E2549"/>
<path d="M187.645 95.4219L188.907 122.119H207.164L206.111 95.4219H187.645Z" fill="#EBF4FE"/>
<path d="M207.394 122.34H188.695L188.685 122.128L187.412 95.198H206.325L207.394 122.34ZM189.118 121.897H206.932L205.897 95.643H187.877L189.118 121.897Z" fill="#0E2549"/>
<path d="M210.236 116.356C210.236 116.356 208.136 120.059 206.718 119.894C205.602 119.766 207.823 117.693 207.499 117.505C207.236 117.353 204.555 120.269 203.818 119.503C203.08 118.737 206.988 115.976 206.788 115.619C206.597 115.277 202.777 119.097 202.167 117.917C201.651 116.919 206.341 114.427 206.188 113.979C206.053 113.589 202.889 115.514 202.333 114.661C201.816 113.868 208.292 111.315 207.539 111.38L210.236 116.356Z" fill="white"/>
<path d="M206.495 120.312C206.207 120.312 206.077 120.187 206.019 120.078C205.833 119.734 206.144 119.247 206.68 118.487C206.703 118.456 206.725 118.425 206.747 118.39C206.676 118.449 206.603 118.508 206.534 118.565C205.453 119.454 204.109 120.56 203.469 119.897C203.36 119.784 203.305 119.637 203.31 119.473C203.325 118.888 204.101 118.081 205.149 117.094C203.88 118.054 202.857 118.737 202.215 118.592C202.022 118.549 201.871 118.432 201.78 118.256C201.4 117.521 202.642 116.55 204.44 115.26C204.787 115.012 205.184 114.725 205.459 114.504C205.281 114.566 205.076 114.643 204.894 114.714C203.774 115.141 202.505 115.625 201.982 115.05C201.88 114.938 201.84 114.793 201.87 114.642C202.001 113.97 203.631 113.066 206.216 111.827C206.51 111.685 206.789 111.552 206.853 111.512C206.942 111.437 207.074 111.437 207.164 111.515C207.263 111.601 207.273 111.752 207.186 111.852C207.133 111.913 207.076 111.943 206.422 112.257C205.736 112.585 204.701 113.083 203.823 113.586C202.357 114.428 202.337 114.725 202.337 114.737C202.638 115.061 203.944 114.563 204.724 114.267C205.5 113.971 205.854 113.844 206.075 113.949C206.153 113.985 206.211 114.049 206.238 114.128C206.352 114.455 205.963 114.754 204.718 115.647C203.831 116.285 201.985 117.609 202.204 118.035C202.231 118.087 202.264 118.112 202.319 118.124C202.856 118.245 204.333 117.118 205.212 116.444C206.168 115.713 206.414 115.545 206.632 115.592C206.713 115.608 206.782 115.659 206.822 115.729C206.982 116.014 206.703 116.295 205.709 117.222C204.949 117.932 203.802 119.004 203.789 119.483C203.787 119.531 203.801 119.551 203.814 119.564C204.147 119.911 205.608 118.708 206.231 118.195C206.962 117.593 207.209 117.39 207.442 117.524C207.516 117.567 207.567 117.638 207.585 117.723C207.634 117.945 207.452 118.216 207.068 118.761C206.867 119.047 206.459 119.625 206.441 119.831C206.456 119.833 206.479 119.836 206.511 119.834C207.584 119.799 209.477 117.09 209.99 115.955C210.043 115.835 210.185 115.781 210.306 115.835C210.426 115.889 210.479 116.031 210.426 116.152C210.049 116.985 208.042 120.261 206.528 120.312C206.517 120.311 206.505 120.312 206.495 120.312Z" fill="#0E2549"/>
<path d="M228.145 105.964C226.466 108.844 220.554 113.658 212.657 114.207L211.422 111.762L209.541 108.901L216.044 102.251C216.044 102.249 229.525 103.597 228.145 105.964Z" fill="#A1C5E2"/>
<path d="M218.897 101.223C218.8 101.101 218.623 101.082 218.5 101.177L218.127 101.473L214.713 94.4375C214.659 94.327 214.526 94.2807 214.416 94.3344C214.305 94.3882 214.259 94.5211 214.313 94.6316L217.77 101.755L209.102 108.631L209.077 108.655C208.898 108.837 208.889 109.104 209.056 109.279C210.412 110.699 212.023 112.764 212.097 113.911C212.111 114.132 212.213 114.313 212.391 114.433C212.568 114.552 212.81 114.594 213.064 114.594C213.599 114.594 214.186 114.409 214.341 114.356C214.489 114.307 214.568 114.146 214.519 113.998C214.47 113.85 214.308 113.771 214.16 113.82C213.714 113.971 212.94 114.122 212.704 113.964C212.682 113.949 212.663 113.932 212.66 113.876C212.558 112.312 210.375 109.857 209.559 108.991L218.851 101.621C218.974 101.524 218.995 101.346 218.897 101.223Z" fill="#0E2549"/>
<path d="M201.828 83.5286V89.2796L210.672 89.2961V83.5286H201.828Z" fill="white"/>
<path d="M208.135 83.5287H204.522V83.2211C204.522 82.6177 205.01 82.1294 205.614 82.1294H207.044C207.648 82.1294 208.136 82.6177 208.136 83.2211V83.5287H208.135Z" fill="white"/>
<path d="M208.356 83.306V83.2194C208.356 82.4951 207.767 81.9067 207.043 81.9067H205.612C204.888 81.9067 204.3 82.4951 204.3 83.2194V83.306H201.607V89.5006L210.895 89.5186V83.306H208.356ZM204.743 83.2194C204.743 82.7401 205.133 82.3503 205.612 82.3503H207.043C207.523 82.3503 207.912 82.7401 207.912 83.2194V83.306H204.743V83.2194ZM210.45 89.075L202.049 89.0586V83.7496H204.298H208.354H210.448V89.075H210.45Z" fill="#0E2549"/>
<path d="M209.138 85.5371H203.584C203.462 85.5371 203.362 85.437 203.362 85.3146C203.362 85.1921 203.462 85.092 203.584 85.092H209.138C209.261 85.092 209.361 85.1921 209.361 85.3146C209.361 85.437 209.261 85.5371 209.138 85.5371Z" fill="#0E2549"/>
<path d="M208.135 87.0691H204.416C204.294 87.0691 204.194 86.969 204.194 86.8465C204.194 86.7241 204.294 86.624 204.416 86.624H208.135C208.257 86.624 208.357 86.7241 208.357 86.8465C208.356 86.969 208.257 87.0691 208.135 87.0691Z" fill="#0E2549"/>
<path d="M201.357 37.6448C199.671 36.8159 196.539 36.3873 193.991 36.114C189.508 35.6317 182.051 35.79 186.744 39.6444C190.613 42.8224 198.346 41.2274 200.94 40.5703C205.475 44.4143 203.379 49.9668 204.47 45.1177C205.841 39.0351 203.223 37.8001 201.357 37.6448Z" fill="#0E2549"/>
</svg>
